<?xml version="1.0" standalone="no"?>
<!DOCTYPE svg PUBLIC "-//W3C//DTD SVG 1.1//EN" "http://www.w3.org/Graphics/SVG/1.1/DTD/svg11.dtd" >
<svg xmlns="http://www.w3.org/2000/svg" xmlns:xlink="http://www.w3.org/1999/xlink" version="1.1">
<metadata></metadata>
<defs>
<font id="funkydoriregular" horiz-adv-x="866" >
<font-face units-per-em="2048" ascent="1372" descent="-676" />
<missing-glyph horiz-adv-x="366" />
<glyph unicode="&#xfb01;" horiz-adv-x="841" d="M-184 -287q0 12 28 49q50 69 74 162q30 109 69.5 329t39.5 249q0 19 -9 28t-32 9q-15 0 -24 8t-9 20q0 21 15.5 41.5t29.5 20.5q30 0 41.5 10.5t19.5 42.5q81 340 381 340q122 0 186 -43t64 -107q0 -50 -32.5 -84t-77.5 -34q-56 0 -83.5 30t-27.5 74q0 25 -9.5 35 t-31.5 10q-34 0 -58 -73.5t-24 -127.5q0 -71 133 -75q37 -1 102.5 5.5t80.5 6.5q67 0 67 -53q0 -34 -32.5 -153t-32.5 -193q0 -39 19 -61.5t48 -22.5q24 0 39 9.5t39 33.5q20 20 35 20q12 0 20 -9.5t8 -19.5q0 -22 -32 -65q-42 -54 -108 -94.5t-152 -40.5q-97 0 -150 48 t-53 122q0 73 33.5 190.5t33.5 147.5q0 47 -61 47q-22 0 -39 -11.5t-27.5 -33t-16 -41t-11.5 -47.5q-6 -32 -21.5 -113t-26 -135.5t-25.5 -121.5t-26 -108q-11 -43 -43.5 -84t-72.5 -70t-83.5 -51t-79 -33t-56.5 -11q-22 0 -30.5 6.5t-8.5 21.5z" />
<glyph unicode="&#xfb02;" horiz-adv-x="954" d="M-184 -287q0 12 28 49q50 69 74 162q30 109 69.5 329t39.5 249q0 19 -9 28t-32 9q-15 0 -24 8t-9 20q0 21 15.5 41.5t29.5 20.5q30 0 41.5 10.5t19.5 42.5q20 83 53 145.5t71.5 99t87 59.5t93.5 30.5t97 7.5q43 63 109.5 111.5t136.5 48.5q80 0 127 -42t47 -118 q0 -71 -41 -226t-82 -315t-41 -243q0 -39 18.5 -61.5t46.5 -22.5q24 0 39 9.5t39 33.5q20 20 35 20q13 0 21 -9.5t8 -19.5q0 -4 -0.5 -7.5t-1.5 -7t-2 -6.5t-3.5 -7t-3.5 -6t-4.5 -7t-5 -7t-6 -8.5t-6.5 -8.5q-106 -135 -258 -135q-98 0 -149.5 54t-51.5 138q0 62 22.5 149 t49 162.5t49 172t22.5 174.5q0 92 -98 92q-40 0 -71.5 -41.5t-45.5 -92.5t-14 -96q0 -35 21.5 -54t76.5 -19q11 0 20 -6t9 -17q0 -30 -14 -49.5t-33 -19.5q-113 0 -137 -125q-6 -32 -21.5 -113t-26 -135.5t-25.5 -121.5t-26 -108q-11 -43 -43.5 -84t-72.5 -70t-83.5 -51 t-79 -33t-56.5 -11q-22 0 -30.5 6.5t-8.5 21.5z" />
<glyph horiz-adv-x="0" />
<glyph horiz-adv-x="682" />
<glyph unicode=" "  horiz-adv-x="366" />
<glyph unicode="&#x09;" horiz-adv-x="366" />
<glyph unicode="&#xa0;" horiz-adv-x="366" />
<glyph unicode="!" horiz-adv-x="335" d="M20 84q0 52 41.5 100.5t94.5 48.5q36 0 59 -27t23 -67q0 -55 -41 -103t-99 -48q-34 0 -56 27.5t-22 68.5zM80 373q0 18 56.5 399.5t68.5 452.5q3 25 14 40t39 23q128 39 162 39q14 0 25.5 -10t11.5 -25q0 -24 -29 -159t-82 -370.5t-78 -352.5q-6 -25 -14 -35t-29 -19 q-65 -30 -106 -30q-39 0 -39 47z" />
<glyph unicode="&#x22;" horiz-adv-x="430" d="M-8 1163q0 68 86 68q49 0 69.5 -16t20.5 -52q0 -20 -17 -124t-24 -132q-4 -16 -6 -22.5t-7.5 -14.5t-13.5 -11t-22 -3q-27 0 -35.5 11t-13.5 40q-1 7 -11 69t-18 118t-8 69zM238 1163q0 68 86 68q49 0 69.5 -16t20.5 -52q0 -44 -41 -256q-7 -29 -16 -40t-33 -11 q-27 0 -36 11t-14 40q-1 5 -10.5 68.5t-17.5 119t-8 68.5z" />
<glyph unicode="#" horiz-adv-x="925" d="M16 422q0 28 16 46.5t44 18.5h110l93 236q-20 1 -49.5 1.5t-44 1t-17.5 1.5q-41 0 -41 41q0 27 13.5 45t41.5 18h142l84 211q11 35 53 35q24 0 41.5 -16.5t17.5 -38.5l-74 -191h179l77 216q10 30 58 30q23 0 39 -16.5t16 -38.5q0 -10 -63 -191h114q47 0 47 -36 q0 -28 -16.5 -49t-42.5 -21h-145l-80 -240h100q24 0 33.5 -7t9.5 -25q0 -26 -16.5 -49t-42.5 -23h-125l-70 -209q-13 -35 -65 -35q-50 0 -50 47q0 7 4 23t12 39t15.5 43.5t17.5 48.5t15 43h-197l-84 -219q-11 -25 -55 -25q-24 0 -38.5 15.5t-14.5 37.5q0 14 67 191h-86 q-19 0 -31 13.5t-12 27.5zM313 487h191l82 236h-180z" />
<glyph unicode="$" horiz-adv-x="784" d="M37 315q0 36 20 60t52 24q61 0 61 -80q0 -25 38.5 -46t74.5 -21l82 313q-89 45 -138 110t-49 142q0 121 100 200.5t236 92.5l14 53q4 19 28 31t48 12q37 0 37 -28q0 -11 -2 -15l-12 -57q23 -6 57.5 -25t52.5 -37q23 -18 23 -43q0 -29 -19 -53t-51 -24q-10 0 -20.5 11 t-19 24.5t-25 24.5t-37.5 11l-80 -323q84 -48 135 -117t51 -139t-21.5 -124t-54.5 -85t-77.5 -51t-85 -26.5t-82.5 -6.5l-17 -66q-4 -17 -29 -28t-53 -11q-41 0 -41 33q0 2 1.5 6t1.5 6l20 64q-79 13 -149 69t-70 119zM342 831q0 -41 14.5 -68t51.5 -50l71 282 q-54 -5 -95.5 -53t-41.5 -111zM397 248q53 0 96.5 45t43.5 110t-74 113z" />
<glyph unicode="%" horiz-adv-x="1042" d="M16 883q0 91 64.5 155t155.5 64t155 -64t64 -155t-64 -155t-155 -64t-155.5 64t-64.5 155zM139 883q0 -40 28.5 -68.5t68.5 -28.5q39 0 66.5 28.5t27.5 68.5t-27 67t-67 27t-68.5 -27.5t-28.5 -66.5zM188 41q0 9 11 35q41 94 212.5 498.5t254.5 605.5q5 11 18 20.5 t27 9.5q55 0 96 -12t41 -27q0 -25 -19 -73q-45 -108 -155 -366.5t-202.5 -474.5t-102.5 -241q-11 -28 -45 -28q-136 0 -136 53zM578 276q0 91 64 155.5t155 64.5t155 -64.5t64 -155.5t-64 -155t-155 -64t-155 64t-64 155zM700 276q0 -40 28.5 -68t68.5 -28t67 28t27 68 t-27 67.5t-67 27.5t-68.5 -27.5t-28.5 -67.5z" />
<glyph unicode="&#x26;" horiz-adv-x="1159" d="M41 369q0 53 12 101.5t29.5 85t46 71.5t51.5 57.5t57 46.5t52.5 35t46.5 27q-60 56 -89.5 112t-29.5 129q0 98 65 178t163.5 122t205.5 42q136 0 211.5 -57.5t75.5 -163.5q0 -78 -39 -129t-104 -51q-42 0 -72.5 25.5t-30.5 66.5q0 27 13.5 47.5t29.5 31.5t29.5 28 t13.5 38q0 52 -69 52q-82 0 -136.5 -79t-54.5 -190q0 -41 11 -72t21 -42l11 -11q41 19 113 19q50 0 79 -26t29 -68q0 -52 -37 -83.5t-96 -31.5q-74 0 -168 45q-37 -27 -75.5 -108t-38.5 -171q0 -127 67.5 -194.5t173.5 -67.5q87 0 151 46t64 135q0 49 -28 78.5t-62 29.5 q-21 0 -33 -9.5t-12 -23.5q0 -9 20.5 -29t20.5 -44q0 -33 -23 -52.5t-55 -19.5q-38 0 -61 29.5t-23 74.5q0 66 61.5 121.5t153.5 89.5q129 49 182.5 90.5t53.5 83.5q0 54 -47 54q-16 0 -34.5 -6.5t-27.5 -6.5q-22 0 -22 25q0 34 56.5 83.5t139.5 49.5q96 0 148.5 -47.5 t52.5 -136.5q0 -59 -27 -106t-78 -79t-111.5 -53t-139.5 -37q30 -71 30 -151q0 -115 -64.5 -203.5t-169.5 -134t-232 -45.5q-195 0 -323 104t-128 275z" />
<glyph unicode="'" horiz-adv-x="200" d="M10 1163q0 68 86 68q49 0 69.5 -16t20.5 -52q0 -44 -41 -256q-4 -16 -6 -22.5t-7.5 -14.5t-13.5 -11t-22 -3q-27 0 -35.5 11t-13.5 40q-1 7 -11 69t-18 118t-8 69z" />
<glyph unicode="(" horiz-adv-x="372" d="M0 375q0 114 38.5 233.5t97 218.5t135 193.5t146 161t136.5 118.5q34 29 57 29q12 0 19.5 -7.5t7.5 -16.5q0 -24 -33 -62q-66 -73 -130.5 -166t-130 -214t-106 -264t-40.5 -277q0 -130 17 -208.5t54 -146.5q11 -22 11 -33q0 -26 -27 -26q-14 0 -41 22q-14 12 -33 31.5 t-52.5 63.5t-59.5 92.5t-46 118t-20 139.5z" />
<glyph unicode=")" horiz-adv-x="399" d="M-86 -68q0 24 33 62q66 73 130.5 166t130 214t106 264t40.5 277q0 130 -17 208.5t-54 146.5q-11 22 -11 33q0 26 27 26q13 0 41 -22q14 -12 33 -31.5t52.5 -63.5t59.5 -92.5t46 -118t20 -139.5q0 -113 -39 -232.5t-97 -217t-136 -193t-145.5 -161t-135.5 -121.5 q-34 -29 -57 -29q-12 0 -19.5 7.5t-7.5 16.5z" />
<glyph unicode="*" horiz-adv-x="466" d="M10 936q0 12 7 25.5t16 19.5q22 12 43.5 21.5t40 16.5t22.5 9q-29 14 -61.5 27t-44.5 20q-23 6 -23 41q0 23 18.5 46.5t39.5 23.5q34 0 110 -76q0 14 -2 55t-2 64q0 15 17.5 29t37.5 14q25 0 44.5 -13.5t19.5 -29.5q0 -6 -3 -55.5t-3 -63.5q8 6 32.5 27t45 35t34.5 14 q20 0 38 -23.5t18 -46.5q0 -30 -19 -41q-51 -29 -117 -45q24 -8 67.5 -28t45.5 -21q9 -4 16 -18.5t7 -26.5q0 -22 -17 -44t-39 -22q-12 0 -52 27t-62 47q8 -84 8 -121q0 -13 -20 -29t-44 -16q-19 0 -37 16t-18 29l6 123q-22 -26 -56.5 -51t-55.5 -25t-39.5 21t-18.5 45z" />
<glyph unicode="+" horiz-adv-x="880" d="M27 573q0 29 10.5 50.5t28.5 21.5h301v299q0 21 20.5 32t50.5 11t53 -10.5t23 -28.5v-303h299q21 0 32 -21t11 -51t-10.5 -52.5t-28.5 -22.5h-303v-297q0 -20 -23 -31.5t-53 -11.5q-29 0 -50 10.5t-21 28.5v301h-297q-20 0 -31.5 22.5t-11.5 52.5z" />
<glyph unicode="," horiz-adv-x="294" d="M-6 -174q0 15 16.5 40t32.5 62t16 80q0 19 -11 47t-11 49q0 47 29 78t79 31q109 0 109 -111q0 -51 -30 -108t-69.5 -98.5t-76.5 -69t-53 -27.5q-14 0 -22.5 7.5t-8.5 19.5z" />
<glyph unicode="-" horiz-adv-x="708" d="M61 305q0 26 21.5 70.5t44.5 44.5h467q22 0 29.5 -6t7.5 -23q0 -25 -24 -72t-48 -47h-467q-31 0 -31 33z" />
<glyph unicode="." horiz-adv-x="428" d="M57 84q0 52 41.5 100.5t94.5 48.5q36 0 58.5 -27t22.5 -67q0 -55 -40.5 -103t-98.5 -48q-34 0 -56 27.5t-22 68.5z" />
<glyph unicode="/" horiz-adv-x="512" d="M59 20q0 9 11 35q56 127 467 1125q5 11 18 20.5t27 9.5q55 0 96 -12t41 -27q0 -25 -19 -73q-78 -188 -258 -612t-202 -470q-8 -28 -45 -28h-66q-17 0 -26.5 0.5t-21 3.5t-17 10t-5.5 18z" />
<glyph unicode="0" horiz-adv-x="956" d="M27 391q0 133 30 257t84.5 222.5t125.5 172.5t156.5 113.5t174.5 39.5q151 0 242.5 -102.5t91.5 -309.5q0 -140 -41 -281.5t-113 -258.5t-182 -190.5t-236 -73.5q-152 0 -242.5 103.5t-90.5 307.5zM315 252q0 -65 27 -109.5t72 -44.5q59 0 107 88t76 221t43 271.5 t15 255.5q0 153 -77 153q-75 0 -135 -104t-94 -295t-34 -436z" />
<glyph unicode="1" horiz-adv-x="432" d="M10 35q0 77 41.5 276t83 368.5t41.5 174.5q-14 0 -49 -11.5t-53 -11.5q-13 0 -26 13.5t-13 27.5q0 32 35 56q101 73 237 186q5 4 14 12q66 55 82 58q41 0 69 -21.5t28 -54.5q0 -18 -8.5 -47t-27.5 -91t-36 -126q-158 -611 -158 -801q0 -25 -10 -34t-33 -9q-35 0 -100 -5 t-78 -5q-20 0 -29.5 10t-9.5 35z" />
<glyph unicode="2" horiz-adv-x="897" d="M41 139q0 13 3 25.5t6 20t13 19.5t14.5 17t20 20t21.5 21q74 72 114 112.5t106.5 110t104 119.5t77.5 111.5t58.5 117t18.5 105.5q0 74 -34.5 108.5t-104.5 34.5q-52 0 -90.5 -38t-38.5 -89q0 -26 29.5 -61t29.5 -78q0 -42 -31 -72t-71 -30q-66 0 -106 45t-40 121 q0 129 110 221t271 92q108 0 193.5 -33t138.5 -104t53 -172q0 -71 -40 -145t-105.5 -139t-132.5 -122t-136 -117t-102 -102q36 4 53 4q37 0 101.5 -6t91.5 -6q65 0 95 15t65 57q25 32 43 32q30 0 30 -37q0 -27 -12 -67t-38 -85.5t-61.5 -84t-88 -64.5t-111.5 -26 q-70 0 -153.5 27.5t-149.5 27.5q-25 0 -68 -22.5t-65 -22.5q-31 0 -56.5 50t-25.5 89z" />
<glyph unicode="3" horiz-adv-x="872" d="M76 342q0 24 10 37.5t25 13.5q14 0 23 -8.5t16 -32.5q15 -54 69 -91.5t117 -37.5q88 0 137 52.5t49 144.5q0 120 -112 149q-39 11 -55.5 24.5t-16.5 37.5q0 38 19 59t63 33q73 20 121.5 91t48.5 151q0 122 -115 122q-39 0 -61.5 -21.5t-22.5 -53.5q0 -26 22.5 -52 t22.5 -65q0 -41 -35 -69.5t-77 -28.5q-59 0 -96.5 39t-37.5 100q0 70 34 122t90.5 80.5t118.5 42t128 13.5q142 0 221.5 -59.5t79.5 -184.5q0 -57 -20 -104.5t-54 -80t-67.5 -53t-71.5 -34.5q32 -13 63 -34t61.5 -52.5t49.5 -78t19 -99.5q0 -115 -48 -211t-141.5 -154.5 t-214.5 -58.5q-77 0 -141 25.5t-103.5 64t-67 87t-39 93t-11.5 82.5z" />
<glyph unicode="4" horiz-adv-x="894" d="M20 549q0 18 23.5 49.5t57 70.5t67 82.5t57 96t23.5 100.5q0 26 -27.5 61t-27.5 74q0 41 35 70t77 29q65 0 99 -34.5t34 -96.5q0 -93 -54 -212.5t-120 -195.5q54 8 94 8q57 0 183 -14q31 124 55 217q34 111 68 166t86 94q35 27 76 45.5t69 18.5q33 0 33 -29 q0 -10 -5.5 -24t-17 -41.5t-20.5 -55.5q-15 -49 -48.5 -189t-54.5 -237q18 -4 68 -4q31 0 31 -23q0 -35 -45.5 -90.5t-94.5 -68.5q-51 -248 -51 -373q0 -25 -10 -34t-33 -9q-35 0 -100 -5t-78 -5q-20 0 -29.5 10t-9.5 35q0 128 55 379q-96 16 -280 16q-31 0 -61 -7t-42 -7 q-29 0 -55.5 50t-26.5 83z" />
<glyph unicode="5" horiz-adv-x="831" d="M49 342q0 24 10 37.5t25 13.5q16 0 23.5 -9.5t15.5 -37.5q38 -123 184 -123q84 0 133 66.5t49 159.5q0 30 -7.5 60.5t-24 62t-51 51.5t-82.5 20q-29 0 -74 -10q-6 -2 -19 -2q-28 0 -46.5 21.5t-18.5 47.5q0 12 18 70.5t40 145t30 157.5q5 43 35.5 74t70.5 31q8 0 37 -7 t83.5 -14.5t123.5 -7.5q74 0 123 8.5t71 16.5t29 8q13 0 22 -7t9 -20q0 -31 -40 -112.5t-91 -106.5q-33 -16 -92 -16q-73 0 -221 36q-8 -47 -22.5 -96.5t-25.5 -75.5l-10 -26q39 8 84 8q144 0 248.5 -90.5t104.5 -235.5q0 -190 -118.5 -320t-303.5 -130q-80 0 -143 30 t-101 81t-58 112.5t-20 128.5z" />
<glyph unicode="6" horiz-adv-x="860" d="M20 457q0 168 41.5 307t113.5 232.5t169.5 144.5t208.5 51q132 0 205 -65.5t73 -161.5q0 -85 -38 -132t-105 -47q-40 0 -71 30.5t-31 72.5q0 27 9 46t20.5 27.5t20.5 22.5t9 33q0 32 -24.5 50.5t-61.5 18.5q-70 0 -124.5 -66t-82.5 -174.5t-28 -238.5q4 4 11.5 11 t33.5 25t53.5 31.5t70 24.5t85.5 11q116 0 189 -78.5t73 -208.5q0 -85 -26.5 -161.5t-78.5 -138t-139 -98t-199 -36.5q-47 0 -95 12.5t-100 46t-91.5 84t-65 134.5t-25.5 190zM317 297q0 -85 29 -140t76 -55q65 0 105 94t40 246q0 71 -22.5 104.5t-73.5 33.5 q-60 0 -107 -81.5t-47 -201.5z" />
<glyph unicode="7" horiz-adv-x="694" d="M72 946q0 31 40 112.5t91 106.5q35 17 94 17q35 0 152.5 -11.5t183.5 -11.5q38 0 66.5 9.5t43.5 9.5q26 0 52 -48t26 -83q0 -13 -13.5 -27t-43 -40t-51.5 -50q-133 -148 -235.5 -426.5t-102.5 -435.5q0 -23 -13.5 -36.5t-35.5 -13.5q-12 0 -102.5 -14t-119.5 -14 q-14 0 -22 11.5t-8 27.5q0 95 65 265.5t175.5 351t222.5 282.5q-108 24 -211 24q-74 0 -123.5 -8t-71.5 -16t-29 -8q-30 0 -30 26z" />
<glyph unicode="8" horiz-adv-x="901" d="M20 270q0 61 24 119.5t65 105.5t82 82t88 66q-61 51 -94 104.5t-33 122.5q0 79 38 141.5t100.5 100t136.5 57t151 19.5q140 0 217 -57t77 -170q0 -47 -18 -90t-52 -80.5t-71 -66.5t-88 -62q65 -43 113.5 -121t48.5 -176q0 -178 -122.5 -281.5t-324.5 -103.5 q-67 0 -124.5 15t-107 47.5t-78 90.5t-28.5 137zM262 209q0 -51 35 -84t84 -33q62 0 100.5 42t38.5 102q0 65 -32 114t-97 109q-129 -137 -129 -250zM436 911q0 -47 17 -74t67 -75q66 57 107 123t41 125q0 33 -24 54t-56 21q-64 0 -108 -50t-44 -124z" />
<glyph unicode="9" horiz-adv-x="847" d="M-2 244q0 45 35 45q7 0 13 -3t9.5 -5.5t14 -12t16.5 -14.5q52 -45 141 -45q120 0 206.5 99t86.5 245q-3 -4 -9.5 -11.5t-29.5 -26.5t-49.5 -33t-69 -26t-88.5 -12q-118 0 -194 76.5t-76 204.5q0 85 29.5 166.5t84.5 149.5t145.5 109.5t201.5 41.5q163 0 260.5 -96 t97.5 -305q0 -182 -42 -333.5t-114.5 -253.5t-172 -158t-213.5 -56q-57 0 -106 18.5t-80.5 46.5t-54 63t-32.5 67t-10 59zM276 711q0 -59 27 -94t70 -35q58 0 105.5 102t47.5 225q0 87 -20 128.5t-66 41.5q-65 0 -114.5 -108.5t-49.5 -259.5z" />
<glyph unicode=":" horiz-adv-x="356" d="M61 145q0 52 41.5 101t94.5 49q36 0 59 -27t23 -67q0 -55 -41 -103.5t-99 -48.5q-34 0 -56 27.5t-22 68.5zM98 473q0 52 41 101t94 49q36 0 59 -27.5t23 -67.5q0 -55 -40.5 -103t-98.5 -48q-34 0 -56 27.5t-22 68.5z" />
<glyph unicode=";" horiz-adv-x="264" d="M-41 -174q0 15 16.5 40t33 62t16.5 80q0 19 -11.5 47t-11.5 49q0 47 29.5 78t79.5 31q108 0 108 -111q0 -51 -30 -108t-69.5 -98.5t-76.5 -69t-53 -27.5q-14 0 -22.5 7.5t-8.5 19.5zM43 473q0 52 41 101t94 49q36 0 59 -27.5t23 -67.5q0 -55 -40.5 -103t-98.5 -48 q-34 0 -56 27.5t-22 68.5z" />
<glyph unicode="&#x3c;" horiz-adv-x="638" d="M37 618q0 40 45 78q436 308 450 308q22 0 41 -35t19 -60q0 -21 -19 -35l-368 -253l370 -246q19 -14 19 -39q0 -21 -15 -57.5t-40 -36.5q-6 0 -124 76t-233 152l-114 77q-31 24 -31 71z" />
<glyph unicode="=" horiz-adv-x="868" d="M0 408q0 26 21 70t45 44h686q22 0 29 -5.5t7 -22.5q0 -26 -23.5 -72.5t-47.5 -46.5h-686q-31 0 -31 33zM41 682q0 26 21 70.5t44 44.5h687q22 0 29 -6t7 -23q0 -26 -23.5 -72.5t-47.5 -46.5h-686q-31 0 -31 33z" />
<glyph unicode="&#x3e;" horiz-adv-x="634" d="M37 336q0 26 18 39l371 246l-369 253q-18 14 -18 35q0 25 18.5 60t40.5 35q6 0 119 -77t223 -154l109 -77q45 -38 45 -78q0 -47 -31 -71q-457 -305 -471 -305q-25 0 -40 36.5t-15 57.5z" />
<glyph unicode="?" horiz-adv-x="772" d="M4 1001q0 146 107.5 230t267.5 84q82 0 152 -18t127 -55.5t89.5 -102.5t32.5 -152q0 -52 -20 -101t-52.5 -89.5t-72 -80t-81 -77.5t-77 -75.5t-62.5 -82t-36 -88.5q-8 -48 -60 -51q-32 -2 -73 -16.5t-51 -14.5q-11 0 -21 9.5t-10 23.5q0 54 32.5 123.5t79 137.5 t93.5 138.5t79.5 149.5t32.5 147q0 85 -35.5 124.5t-117.5 39.5q-53 0 -94 -38t-41 -89q0 -26 30.5 -66t30.5 -83q0 -41 -31 -66.5t-73 -25.5q-66 0 -106 44.5t-40 120.5zM139 84q0 52 41 100.5t94 48.5q36 0 59 -27t23 -67q0 -55 -40.5 -103t-98.5 -48q-34 0 -56 27.5 t-22 68.5z" />
<glyph unicode="@" horiz-adv-x="1112" d="M12 248q0 100 45 193t125 164.5t199 114t258 42.5q214 0 331 -88t117 -262q0 -92 -36 -176t-106.5 -138.5t-158.5 -54.5q-44 0 -79 14t-50.5 31t-26.5 31t-14 14t-32 -22.5t-79.5 -45t-105.5 -22.5q-80 0 -132 53t-52 148q0 66 20.5 126t61 109.5t109 79t157.5 29.5 q54 0 96.5 -16.5t49.5 -16.5q13 0 67 16.5t76 16.5q25 0 25 -27q0 -9 -30 -119.5t-30 -189.5q0 -31 16.5 -50.5t40.5 -19.5q42 0 75.5 61t33.5 183q0 132 -80.5 192t-247.5 60q-126 0 -226.5 -34t-164 -93.5t-96.5 -138.5t-33 -172q0 -127 72 -198t201 -71q79 0 147 41 q16 8 20 8q17 0 17 -20q0 -13 -30 -47t-77.5 -66t-85.5 -32q-175 0 -281 105.5t-106 287.5zM438 242q0 -35 16 -57.5t44 -22.5q52 0 88 80q16 35 30.5 106t14.5 119q0 51 -51 51q-35 0 -63.5 -29.5t-44.5 -73.5t-25 -89.5t-9 -83.5z" />
<glyph unicode="A" horiz-adv-x="1476" d="M0 266q0 55 21.5 103t54.5 79.5t72.5 54.5t74.5 33.5t62 10.5q28 0 28 -27q0 -10 -18.5 -42t-18.5 -58q0 -50 29 -78.5t90 -28.5q43 0 86.5 27t92.5 89.5t75 101t77 122.5q2 3 2.5 4t2 3t2.5 4q23 38 83 138t92 151t82.5 118t94.5 107q-128 41 -266 41 q-85 0 -141.5 -45.5t-56.5 -104.5q0 -44 23 -67t63 -23q19 0 37.5 10t23.5 10q9 0 16 -6t7 -16q0 -65 -71.5 -136t-170.5 -71q-98 0 -166 66.5t-68 171.5q0 106 63.5 187.5t164 122t217.5 40.5q124 0 265 -27.5t177 -27.5q74 0 139 8t103.5 16t48.5 8q37 0 37 -35 q0 -11 -9.5 -30.5t-30.5 -70t-42 -120.5q-48 -156 -98 -411t-50 -398q0 -114 68 -114q24 0 39 9.5t39 33.5q20 20 35 20q12 0 20 -9.5t8 -19.5q0 -22 -32 -65q-42 -54 -108 -94.5t-152 -40.5q-98 0 -148.5 61t-50.5 166q0 134 49 379q-75 0 -123 -34t-88 -109 q-98 -186 -150 -259q-116 -162 -267 -200q-55 -14 -117 -14q-140 0 -231 79t-91 207zM969 725h133q37 160 153 418q-83 -67 -164 -194t-122 -224z" />
<glyph unicode="B" horiz-adv-x="1441" d="M0 811q0 157 127 283.5t335.5 195t452.5 68.5q229 0 352.5 -78.5t123.5 -214.5q0 -93 -47.5 -167t-121 -115.5t-159.5 -51.5q44 -4 94.5 -30t95 -66.5t74 -99t29.5 -119.5q0 -95 -28.5 -170.5t-74 -122.5t-107 -78t-123 -43t-126.5 -12t-127 18t-101 36.5t-48 18.5 q-22 0 -100.5 -36.5t-108.5 -36.5q-33 0 -33 26q0 11 8.5 24t25.5 43.5t33 72.5q17 47 89.5 407.5t99.5 466.5q13 50 30 87t39 62.5t37.5 39t42.5 32.5q-96 -6 -184.5 -42.5t-148 -88t-94.5 -110.5t-35 -111q0 -96 84 -96q16 0 41 7t28 7q21 0 21 -22t-21 -56.5t-56 -69 t-89 -59t-111 -24.5q-97 0 -158 60t-61 165zM760 193q0 -39 25.5 -67t64.5 -28q34 0 67.5 22t64.5 66.5t50 124t19 181.5q0 94 -59.5 148t-147.5 54q-84 -446 -84 -501zM870 797q105 0 177.5 96t72.5 215q0 64 -27.5 105.5t-76.5 41.5q-25 -25 -62 -139t-61.5 -216.5 t-22.5 -102.5z" />
<glyph unicode="C" horiz-adv-x="976" d="M0 446q0 149 40 290t109 252t157.5 195.5t190 129.5t201.5 45q123 0 201 -68t78 -190q0 -86 -38.5 -142.5t-98.5 -56.5q-43 0 -72 25t-29 67q0 31 14.5 55t31.5 36t31.5 34t14.5 51q0 35 -26.5 54.5t-65.5 19.5q-103 0 -195 -102t-148 -274t-56 -365q0 -140 74 -213.5 t190 -73.5q38 0 74 12.5t68.5 37.5t48.5 40t41 41q32 35 47 35q11 0 18.5 -6.5t7.5 -16.5q0 -18 -20 -63q-15 -33 -41.5 -71.5t-70.5 -84t-95 -81.5t-119 -60.5t-139 -24.5q-198 0 -311 114.5t-113 358.5z" />
<glyph unicode="D" horiz-adv-x="1531" d="M0 811q0 156 127 283t329.5 195.5t430.5 68.5q101 0 189 -17.5t165 -57t132 -99t86.5 -149t31.5 -201.5q0 -258 -70 -435q-80 -200 -215 -304.5t-297 -104.5q-60 0 -124 18t-108 36.5t-56 18.5q-22 0 -100.5 -36.5t-108.5 -36.5q-33 0 -33 26q0 11 8 24t25.5 43.5 t33.5 72.5q15 39 50 206t76 373t63 295q12 50 29 86.5t39.5 62.5t38 39.5t42.5 32.5q-96 -6 -184.5 -42.5t-148 -88t-94.5 -110.5t-35 -111q0 -96 84 -96q16 0 41 7t28 7q21 0 21 -22t-21 -56.5t-56 -69t-89 -59t-111 -24.5q-97 0 -158 60t-61 165zM764 188q0 -79 84 -79 q88 0 161 87.5t117 233.5q66 216 66 469q0 165 -49 247t-129 95q-47 -58 -92 -221q-47 -164 -102.5 -472t-55.5 -360z" />
<glyph unicode="E" horiz-adv-x="929" d="M0 350q0 77 22.5 145t54.5 113t77 83.5t78.5 58t70.5 36.5q-106 109 -106 234q0 136 123 237t282 101q136 0 209.5 -56t73.5 -161q0 -78 -39 -128t-103 -50q-41 0 -70.5 25t-29.5 65q0 27 13.5 47.5t29.5 31t29.5 27.5t13.5 37q0 51 -70 51q-82 0 -135 -77.5t-53 -188.5 q0 -25 4.5 -47t10.5 -35t12.5 -22.5t11.5 -12.5l4 -4q39 17 111 17q49 0 78.5 -25.5t29.5 -67.5q0 -51 -37 -81.5t-96 -30.5q-76 0 -166 43q-35 -26 -73.5 -106t-38.5 -167q0 -106 66 -166.5t165 -60.5q49 0 94.5 22t70.5 45t54 58q36 41 49 41q11 0 19 -6.5t8 -16.5 q0 -13 -17 -55q-17 -40 -36.5 -77t-57.5 -85.5t-82.5 -83.5t-111 -59.5t-142.5 -24.5q-171 0 -286 108t-115 269z" />
<glyph unicode="F" horiz-adv-x="993" d="M0 279q0 92 46.5 162t114 103.5t140.5 33.5q80 0 80 -29q0 -22 -27 -29q-38 -11 -68 -48t-30 -81q0 -53 35 -87t90 -34q46 0 84 23.5t63 59t46 91.5t33.5 107.5t25.5 120.5h-88q-27 0 -27 26q0 24 19 53t36 29h78q33 183 54 246q34 109 112 156q-101 37 -229 37 q-85 0 -142 -45.5t-57 -104.5q0 -43 23.5 -66.5t62.5 -23.5q19 0 38.5 10t25.5 10q20 0 20 -22q0 -65 -71.5 -136t-170.5 -71q-98 0 -165.5 66.5t-67.5 171.5q0 107 63.5 188t163.5 121.5t217 40.5q105 0 224 -17.5t141 -17.5q38 0 83 17.5t52 17.5q37 0 37 -35 q0 -10 -8 -23t-32 -46.5t-46 -69.5q-39 -63 -60.5 -159.5t-39.5 -244.5h92q18 0 18 -20q0 -26 -20 -57t-41 -31h-64q-9 -64 -16.5 -112.5t-21 -110t-28 -107.5t-37 -97.5t-49 -89t-63.5 -73.5t-80 -58t-99 -35.5t-120 -13.5q-153 0 -251.5 84t-98.5 220z" />
<glyph unicode="G" horiz-adv-x="1062" d="M-20 -328q0 77 29.5 139.5t78 100.5t105.5 58t116 20q76 0 76 -31q0 -18 -27 -33q-36 -21 -62 -55t-26 -74q0 -58 35 -92.5t107 -34.5q85 0 154 84.5t110.5 223.5t58.5 317q-124 -203 -327 -203q-142 0 -240 103.5t-98 277.5q0 139 39 274.5t106 243.5t152 192t182 129.5 t190 45.5q125 0 198 -66t73 -172q0 -87 -37 -143.5t-96 -56.5q-41 0 -70 25t-29 65q0 32 13 57t28 37.5t28 31t13 38.5q0 53 -65 53q-72 0 -160 -74q-96 -87 -156.5 -251t-60.5 -341q0 -109 42.5 -165t112.5 -56q41 0 74 19t53.5 45.5t36.5 67t24 71.5t15 71q5 30 68.5 62.5 t120.5 32.5q34 0 34 -31q0 -12 -13.5 -44t-20.5 -63q-10 -46 -22 -130t-15 -130q-9 -173 -32 -312.5t-67.5 -262t-108.5 -205t-158 -129.5t-214 -47q-153 0 -260.5 90.5t-107.5 226.5z" />
<glyph unicode="H" horiz-adv-x="1538" d="M0 782q0 126 60 236t156 183t214.5 115t237.5 42q150 0 231.5 -64.5t81.5 -189.5q0 -95 -70 -383h254q66 280 121 442q15 48 77 87.5t122.5 57t95.5 17.5q41 0 41 -33q0 -10 -12 -29.5t-30 -49.5t-28 -58q-50 -129 -120 -456.5t-70 -428.5q0 -114 68 -114q17 0 30.5 6 t21.5 13t25 24q20 20 35 20q13 0 21 -9.5t8 -19.5q0 -4 -0.5 -7.5t-1.5 -7t-2 -6.5t-3.5 -7t-3.5 -6t-4.5 -7t-5 -7t-6 -8.5t-6.5 -8.5q-42 -54 -108 -94.5t-152 -40.5q-98 0 -148.5 61t-50.5 166q0 131 60 395q-169 0 -242 -73q-44 -44 -93.5 -225.5t-49.5 -276.5 q0 -25 -10 -34t-33 -9q-35 0 -120.5 -6t-98.5 -6q-41 0 -41 47q0 57 40.5 207t89.5 306t89.5 333.5t40.5 281.5q0 86 -90 86q-76 0 -150 -60.5t-119 -149.5t-45 -171q0 -48 23.5 -73t58.5 -25q15 0 38 8t28 8q20 0 20 -22q0 -24 -20 -58.5t-53 -68.5t-83.5 -58t-103.5 -24 q-94 0 -154.5 63.5t-60.5 169.5z" />
<glyph unicode="I" horiz-adv-x="972" d="M0 279q0 69 28.5 127t74.5 94t100 55.5t108 19.5q70 0 70 -26q0 -22 -27 -29q-38 -11 -68 -48t-30 -81q0 -53 35 -87t90 -34q67 0 116 45.5t76.5 119.5t46.5 164.5t31.5 184.5t25 175t33 141t50.5 78q-293 -108 -293 -312q0 -74 49 -108q2 -1 6 -3.5t6 -3.5t5 -3t4 -3 t3 -2.5t2.5 -3t2 -3t1.5 -3t0.5 -4t0.5 -4.5q0 -12 -16.5 -21.5t-45.5 -9.5q-62 0 -123.5 27t-106 81.5t-44.5 123.5q0 36 13.5 68.5t33 56.5t55 48.5t65.5 40.5t79.5 35.5t81.5 30.5t86.5 29t81.5 27q31 11 65.5 39.5t52.5 33.5q82 23 127 23q41 0 41 -31q0 -4 -0.5 -8.5 t-2.5 -11t-4 -12t-6.5 -16t-8 -19t-10.5 -24.5t-13 -30q-16 -38 -27.5 -117.5t-18 -171t-21.5 -200.5t-34.5 -212t-59.5 -200.5t-94.5 -169.5t-142.5 -116t-200 -44q-151 0 -250.5 86t-99.5 218z" />
<glyph unicode="J" horiz-adv-x="952" d="M-238 -88q0 74 34.5 138.5t87.5 105t114 63.5t117 23q41 0 58 -7t17 -24t-30 -29q-52 -17 -86.5 -55.5t-34.5 -99.5q0 -63 47.5 -103.5t118.5 -40.5q67 0 122.5 43t95 120.5t66.5 158.5t50 184q-91 1 -170 17t-144.5 49t-103 89.5t-37.5 131.5q0 59 16.5 112.5t42.5 96.5 t69.5 85t86 73.5t103.5 66.5t111 59.5t120 55.5q28 12 58 38t53.5 47t39.5 25q82 23 127 23q41 0 41 -31q0 -7 -3 -17t-7.5 -18.5t-13.5 -27.5t-15 -33q-25 -59 -40 -197t-32.5 -343t-41.5 -353q-21 -129 -53 -238t-84.5 -210t-120 -171.5t-163.5 -112.5t-212 -42 q-166 0 -285 101t-119 247zM410 694q0 -76 40 -137t103 -90q26 120 48 282.5t40.5 256t52.5 139.5q-284 -163 -284 -451z" />
<glyph unicode="K" horiz-adv-x="1474" d="M0 782q0 101 41 193t109.5 160.5t155 119.5t180 77t182.5 26q150 0 231.5 -64.5t81.5 -189.5q0 -104 -63 -320q51 26 98 92t83 140t73.5 145t85 117.5t102.5 46.5q61 0 123 -12.5t90 -30.5q31 -16 31 -37q0 -24 -29 -24q-68 0 -133 -68q-36 -37 -86.5 -111t-90 -131.5 t-104.5 -114.5t-139 -81q61 -26 96 -63t58 -115q8 -28 19 -74.5t18 -76t20 -66t26 -57.5t33.5 -35.5t46.5 -14.5q50 0 99 39q24 18 37 18q12 0 19 -7.5t7 -18.5q0 -27 -49 -92q-122 -162 -260 -162q-64 0 -111 24.5t-74 63t-43 97t-21 113.5t-5 126q0 117 -10.5 171 t-50.5 58q-56 -180 -89.5 -346t-33.5 -260q0 -25 -10 -34t-33 -9q-35 0 -120.5 -6t-98.5 -6q-41 0 -41 47q0 57 40.5 207t89.5 306t89.5 333.5t40.5 281.5q0 86 -90 86q-67 0 -141 -60t-123.5 -150t-49.5 -171q0 -48 23.5 -73t58.5 -25q15 0 38 8t28 8q20 0 20 -22 q0 -24 -20 -58.5t-53 -68.5t-83.5 -58t-103.5 -24q-94 0 -154.5 63.5t-60.5 169.5z" />
<glyph unicode="L" horiz-adv-x="1474" d="M0 285q0 138 92 223.5t225 85.5q141 0 289 -74q19 48 37 119q-93 15 -178.5 47.5t-159 81.5t-117 120t-43.5 154q0 116 72 189.5t186 73.5q62 0 112.5 -21t79 -53t43.5 -64.5t15 -60.5q0 -13 -7.5 -22t-20.5 -9q-7 0 -31 7.5t-39 7.5q-39 0 -67.5 -33t-28.5 -82 q0 -75 57.5 -135.5t157.5 -91.5q30 124 57 211t64.5 167t80.5 128t101 76t131 28q109 0 175.5 -59t66.5 -162q0 -106 -58.5 -212.5t-164.5 -185.5t-232 -100q-42 -148 -80 -250q91 -56 165 -86.5t150 -30.5q125 0 201 90q26 33 43 33q31 0 31 -37q0 -28 -12 -71.5t-38 -95 t-61.5 -96.5t-88 -75t-111.5 -30q-40 0 -81 15t-72 33.5t-73 56.5t-64.5 62t-66.5 72q-140 -239 -385 -239q-150 0 -251 83.5t-101 211.5zM272 365q0 -46 29.5 -73.5t71.5 -27.5q135 0 194 131q-101 72 -178 72q-50 0 -83.5 -29t-33.5 -73zM922 743q82 20 145.5 79.5 t93 124.5t29.5 120q0 31 -19.5 50.5t-50.5 19.5q-61 0 -107.5 -91.5t-90.5 -302.5z" />
<glyph unicode="M" horiz-adv-x="1839" d="M0 180q0 103 81.5 182.5t149.5 79.5q29 0 29 -24q0 -10 -7 -36t-7 -52q0 -42 28 -73.5t80 -31.5q69 0 132 51.5t109 134t84.5 183t62 203t36.5 189t13 144.5q0 47 -29 80t-68 33q-57 0 -120 -51t-106.5 -133t-43.5 -162q0 -48 23.5 -73t58.5 -25q15 0 37 8t26 8 q23 0 23 -22q0 -24 -20 -58.5t-53.5 -68.5t-84 -58t-104.5 -24q-93 0 -153 64t-60 169q0 100 38.5 189t102 152t143 109t163 68.5t161.5 22.5q69 0 127 -15t100.5 -39.5t76.5 -64t56 -79t38 -94.5t24.5 -101t13 -108.5t5.5 -106t0 -103.5l-1 -174q31 70 79.5 177 t148.5 309.5t141 252.5q28 36 120.5 66.5t190.5 30.5q37 0 37 -37q0 -10 -10 -29.5t-26.5 -49.5t-26.5 -56q-50 -129 -113.5 -428.5t-63.5 -403.5q0 -53 20 -82.5t54 -29.5q44 0 99 55q22 22 38 22q9 0 16 -6.5t7 -15.5q0 -30 -27.5 -74t-70.5 -85t-102.5 -70t-116.5 -29 q-98 0 -148.5 61t-50.5 166q0 136 135 629h-16q-22 -49 -103.5 -224t-148 -327t-97.5 -246q-17 -59 -55 -59h-160q-41 0 -41 45q0 5 10 172t20.5 364t10.5 275h-16q-13 -68 -23.5 -117.5t-30 -129t-39 -139.5t-49.5 -135t-62.5 -130t-77.5 -111.5t-94.5 -91.5t-113 -57.5 t-133.5 -22.5q-132 0 -204 77t-72 191z" />
<glyph unicode="N" horiz-adv-x="1478" d="M0 180q0 103 81.5 182.5t149.5 79.5q29 0 29 -24q0 -10 -7 -36t-7 -52q0 -43 30 -74t89 -31q67 0 143 84.5t136.5 210t101 280.5t40.5 287q0 156 -122 156q-83 0 -158.5 -111t-75.5 -235q0 -48 23.5 -73t58.5 -25q15 0 38 8t28 8q20 0 20 -22q0 -24 -20 -58.5t-53 -68.5 t-83.5 -58t-103.5 -24q-94 0 -154.5 63.5t-60.5 169.5q0 100 37 189t98 152t138.5 109t158.5 68.5t158 22.5q108 0 185 -26.5t125 -80.5t75 -116t47 -152q28 -120 37 -393q51 255 91 402.5t93 252.5q28 57 65 85t95 28q80 0 125 -36t45 -73q0 -30 -31 -30q-40 0 -66 -10.5 t-55 -45.5q-78 -95 -180.5 -429t-138.5 -675q-3 -59 -54 -59h-202q-18 0 -28 10t-11 35q-6 98 -8.5 358.5t-18.5 384.5h-10q-61 -267 -108 -399q-172 -476 -490 -477q-133 0 -214 78t-81 190z" />
<glyph unicode="O" horiz-adv-x="1159" d="M0 477q0 129 26.5 244t72 202.5t108 160.5t133 123t147.5 84.5t151.5 50.5t145.5 16q91 0 139 -18t48 -42q0 -20 -27 -20q-4 0 -36 2t-62 2q-100 0 -188 -52t-155.5 -148.5t-107 -245t-39.5 -330.5q0 -176 52 -264t137 -88q96 0 179 99.5t128 247.5t45 300 q0 113 -43.5 162t-114.5 49q-59 0 -116 -31q-29 -16 -39 -16q-19 0 -19 22q0 27 32.5 75t84.5 83q93 65 209 65q120 0 193 -82t73 -239q0 -132 -35 -265.5t-99 -248.5t-148 -205t-190 -141.5t-216 -51.5q-101 0 -185.5 31.5t-148.5 92.5t-99.5 157.5t-35.5 218.5z" />
<glyph unicode="P" horiz-adv-x="1452" d="M0 811q0 158 123 283.5t335 194.5t472 69q146 0 261.5 -39t183 -115.5t67.5 -179.5q0 -90 -32.5 -168.5t-87.5 -134.5t-126 -97t-149.5 -61t-157.5 -20q-37 0 -37 30q0 25 43 39q119 38 189.5 153.5t70.5 272.5q0 90 -38 143.5t-101 69.5q-52 -48 -92 -172 q-101 -322 -177.5 -641.5t-76.5 -400.5q0 -25 -9.5 -34t-33.5 -9q-34 0 -120 -6t-99 -6q-39 0 -39 47q0 77 94.5 418t171.5 583q30 95 64 140t85 81q-96 -6 -184.5 -42.5t-148 -88t-94.5 -110.5t-35 -111q0 -96 84 -96q16 0 41 7t28 7q21 0 21 -22t-21 -56.5t-56 -69 t-89 -59t-111 -24.5q-97 0 -158 60t-61 165z" />
<glyph unicode="Q" horiz-adv-x="1138" d="M0 477q0 129 26.5 244t72 202.5t108 160.5t133 123t147.5 84.5t151.5 50.5t145.5 16q91 0 139 -17.5t48 -42.5q0 -20 -27 -20q-4 0 -36 2t-62 2q-100 0 -188 -52t-155.5 -148.5t-107 -245t-39.5 -330.5q0 -176 52 -264t137 -88q73 0 140.5 57.5t115 148t76 205 t28.5 226.5q0 123 -40.5 174t-116.5 51q-61 0 -125 -35q-29 -16 -39 -16q-19 0 -19 22q0 27 32.5 75t84.5 83q93 65 209 65q120 0 193 -82t73 -239q0 -179 -62 -354.5t-172.5 -311t-246.5 -198.5q34 -14 70 -45t60.5 -57.5t63.5 -47t82 -20.5q63 0 103 47q26 26 41 26 q26 0 26 -39q0 -34 -13 -73.5t-41 -80t-66 -74t-92.5 -54.5t-116.5 -21q-68 0 -118.5 40.5t-78.5 98t-50 115t-47 98.5q-24 39 -55 39h-2q-199 8 -320.5 136.5t-121.5 363.5z" />
<glyph unicode="R" horiz-adv-x="1458" d="M0 811q0 157 128 283t344.5 195t477.5 69q217 0 346 -77t129 -232q0 -67 -25 -128.5t-66.5 -107t-95.5 -82t-111.5 -59t-116.5 -33.5q41 -17 72 -69.5t51.5 -113.5t42.5 -120t56.5 -98t82.5 -39q57 0 108 51q20 20 35 20q10 0 16.5 -6.5t6.5 -15.5q0 -30 -39 -86 q-121 -172 -301 -172q-75 0 -125.5 33.5t-73 87t-34 118.5t-15.5 130t-11.5 118.5t-28 87t-58.5 33.5q-5 -20 -44 -162t-60 -240t-21 -159q0 -25 -9.5 -34t-33.5 -9q-34 0 -120 -6t-99 -6q-39 0 -39 47q0 52 48 235t130 463t88 303q19 67 46 113t47 64.5t56 43.5 q-96 -6 -184.5 -42.5t-148 -88t-94.5 -110.5t-35 -111q0 -96 84 -96q16 0 41 7t28 7q21 0 21 -22t-21 -56.5t-56 -69t-89 -59t-111 -24.5q-97 0 -158 60t-61 165zM819 702q98 12 174.5 74.5t114 146t37.5 169.5q0 77 -34.5 120t-94.5 43q-50 -46 -92 -176 q-22 -71 -48.5 -164t-42 -153t-14.5 -60z" />
<glyph unicode="S" horiz-adv-x="1038" d="M0 287q0 67 33.5 122t86 88t111.5 50.5t115 17.5q90 0 90 -33q0 -11 -5.5 -19t-10.5 -12t-19 -12q-48 -32 -81 -89.5t-33 -125.5q0 -76 43.5 -122t113.5 -46q73 0 121.5 73t48.5 183q0 84 -27 161t-65 135.5t-76 113t-65 117.5t-27 127q0 80 37.5 147t96 108.5t126.5 64 t134 22.5q127 0 196.5 -57.5t69.5 -165.5q0 -70 -40.5 -121t-101.5 -51q-42 0 -71 25t-29 65q0 30 17.5 55t35 46.5t17.5 43.5q0 55 -64 55q-56 0 -95.5 -42.5t-39.5 -108.5q0 -56 20.5 -111t51.5 -98.5t67.5 -95t67.5 -99.5t51.5 -113.5t20.5 -135.5q0 -204 -149 -341 t-370 -137q-170 0 -286.5 85.5t-116.5 230.5z" />
<glyph unicode="T" horiz-adv-x="1048" d="M0 283q0 72 28.5 130.5t74.5 93t99.5 53t108.5 18.5q70 0 70 -25q0 -22 -27 -29q-38 -11 -68 -48t-30 -81q0 -53 35 -87t90 -34q65 0 113.5 42.5t75.5 107.5t48.5 154.5t34 172t31 171.5t39.5 143q32 75 92 113q-66 22 -111.5 31.5t-115.5 9.5q-85 0 -142 -45.5 t-57 -104.5q0 -43 23.5 -66.5t62.5 -23.5q19 0 38.5 10t25.5 10q20 0 20 -22q0 -65 -71.5 -136t-170.5 -71q-98 0 -165.5 66.5t-67.5 171.5q0 107 63.5 188t163.5 121.5t217 40.5q131 0 274 -22.5t179 -22.5q60 0 105.5 16.5t70 32.5t33.5 16q22 0 22 -20q0 -19 -10 -49 t-22 -45q-74 -97 -193 -105q-24 -17 -41 -69t-27.5 -124t-21 -161t-26.5 -182.5t-38.5 -186.5t-63 -175t-94.5 -145t-137 -99.5t-188 -36.5q-151 0 -250.5 85.5t-99.5 217.5z" />
<glyph unicode="U" horiz-adv-x="1613" d="M0 782q0 126 60 236t156 183t214.5 115t237.5 42q151 0 238 -68.5t87 -199.5q0 -89 -26 -201.5t-57 -201.5t-57 -195t-26 -183q0 -43 22.5 -68.5t61.5 -25.5q57 0 115.5 69t126.5 191q47 87 87.5 230t73.5 291.5t48 195.5q14 43 94 80t176 37q39 0 39 -37q0 -10 -26 -55 t-37 -80q-35 -106 -102 -428.5t-68 -438.5q0 -114 67 -114q24 0 39 9.5t39 33.5q20 20 35 20q13 0 21 -9.5t8 -19.5q0 -4 -0.5 -7.5t-1.5 -7t-2 -6.5t-3.5 -7t-3.5 -6t-4.5 -7t-5 -7t-6 -8.5t-6.5 -8.5q-42 -54 -108 -94.5t-152 -40.5q-98 0 -148.5 61t-50.5 166q0 58 4 78 q-28 -44 -53.5 -80t-68 -82.5t-84.5 -77.5t-99.5 -53t-116.5 -22q-109 0 -178.5 70.5t-69.5 176.5q0 67 23 158.5t55.5 184t65 187t55.5 194t23 179.5q0 113 -90 113q-76 0 -150 -60.5t-119 -149.5t-45 -171q0 -48 23.5 -73t58.5 -25q15 0 38 8t28 8q20 0 20 -22 q0 -24 -20 -58.5t-53 -68.5t-83.5 -58t-103.5 -24q-94 0 -154.5 63.5t-60.5 169.5z" />
<glyph unicode="V" horiz-adv-x="1609" d="M0 782q0 126 60 236t156 183t214.5 115t237.5 42q162 0 241.5 -70t79.5 -203q0 -86 -25 -198t-55 -203.5t-55 -199.5t-25 -185q0 -36 20 -56t56 -20q68 0 173 134.5t175 332.5q68 191 68 348q0 66 -27.5 101t-72.5 35q-15 0 -24 8t-9 20q0 43 67.5 99.5t147.5 56.5 q85 0 134.5 -55.5t49.5 -151.5q0 -184 -119 -432q-95 -202 -225.5 -372t-265 -268.5t-240.5 -98.5q-108 0 -170.5 66.5t-62.5 176.5q0 96 32.5 215t71 216.5t71 231.5t32.5 255q0 50 -24 76t-66 26q-76 0 -150 -60.5t-119 -149.5t-45 -171q0 -48 23.5 -73t58.5 -25 q15 0 38 8t28 8q20 0 20 -22q0 -24 -20 -58.5t-53 -68.5t-83.5 -58t-103.5 -24q-94 0 -154.5 63.5t-60.5 169.5z" />
<glyph unicode="W" horiz-adv-x="2160" d="M0 782q0 126 60 236t156 183t214.5 115t237.5 42q149 0 236 -73t87 -200q0 -98 -26.5 -212t-58.5 -199t-58.5 -181t-26.5 -163q0 -40 22.5 -65t55.5 -25q114 0 221 178q53 87 98.5 239.5t45.5 210.5q0 14 -2 33.5t-2 36.5q0 42 91.5 83.5t135.5 41.5q38 0 56 -18t18 -58 q0 -70 -72 -320.5t-72 -324.5q0 -102 84 -102q73 0 138.5 78.5t129.5 220.5q89 196 89 440q0 102 -38.5 149.5t-95.5 47.5q-34 0 -34 30q0 41 69.5 96.5t159.5 55.5q101 0 150 -56t49 -157q0 -124 -58 -308.5t-151 -371.5q-102 -210 -241 -347.5t-277 -137.5 q-107 0 -173.5 68.5t-80.5 178.5q-31 -41 -68.5 -78.5t-91.5 -78.5t-123 -65.5t-141 -24.5q-113 0 -172.5 67.5t-59.5 175.5q0 78 23.5 170t57.5 180t68 179t57.5 198t23.5 207q0 86 -90 86q-76 0 -150 -60.5t-119 -149.5t-45 -171q0 -48 23.5 -73t58.5 -25q15 0 38 8t28 8 q20 0 20 -22q0 -24 -20 -58.5t-53 -68.5t-83.5 -58t-103.5 -24q-94 0 -154.5 63.5t-60.5 169.5z" />
<glyph unicode="X" horiz-adv-x="1361" d="M0 231q0 65 25.5 119.5t64.5 86.5t80.5 49.5t77.5 17.5q28 0 28 -25q0 -10 -8 -36t-8 -52q0 -42 29 -73t82 -31q57 0 109 31.5t98.5 94t85 136t81.5 176.5q-6 193 -29 306.5t-60 158.5t-95 45q-79 0 -121.5 -64.5t-42.5 -156.5q0 -54 26 -86.5t69 -32.5q19 0 37.5 10 t23.5 10q20 0 20 -22q0 -30 -16 -64.5t-45 -67t-76.5 -54t-103.5 -21.5q-96 0 -165 67.5t-69 170.5q0 124 73.5 225t188 155t242.5 54q188 0 284.5 -116t117.5 -388q23 80 57 164q132 340 266 340q60 0 112 -35t52 -63q0 -35 -47 -35q-193 0 -416 -576q5 -104 35 -206.5 t75 -168t91 -65.5q52 0 94 39q24 22 39 22q9 0 15.5 -6.5t6.5 -15.5q0 -30 -27.5 -74t-70.5 -85t-102.5 -70t-116.5 -29q-76 0 -129.5 37t-85.5 109t-47.5 162t-20.5 212q-16 -44 -33 -85t-45 -96.5t-58 -102.5t-71.5 -95t-86 -81t-100.5 -54t-116 -21q-126 0 -200 72 t-74 184z" />
<glyph unicode="Y" horiz-adv-x="1622" d="M0 782q0 126 60 236t156 183t214.5 115t237.5 42q149 0 231 -66t82 -188q0 -81 -21.5 -178t-48 -173t-48 -169t-21.5 -166q0 -43 24.5 -71t63.5 -28q57 0 124 64.5t111 155.5q27 56 57.5 150t50.5 168t48.5 186.5t38.5 148.5q11 43 94.5 80t181.5 37q18 0 28.5 -8.5 t10.5 -22.5q0 -10 -6.5 -23t-20 -38t-24.5 -52q-35 -85 -93 -311.5t-112 -491.5q-22 -107 -39.5 -184.5t-42.5 -172.5t-49 -163t-57.5 -143.5t-69.5 -127.5t-83.5 -102t-101 -79.5t-120.5 -47.5t-143 -18q-179 0 -288.5 92.5t-109.5 241.5q0 152 103 242t254 90 q49 0 75.5 -12t26.5 -27q0 -27 -31 -27q-41 0 -75.5 -35t-34.5 -94q0 -64 39 -102.5t110 -38.5q235 0 385 715q-64 -103 -176.5 -188t-224.5 -85q-105 0 -169.5 67.5t-64.5 176.5q0 73 28 177.5t61.5 195.5t61.5 212.5t28 225.5q0 44 -24 68t-66 24q-76 0 -150 -60.5 t-119 -149.5t-45 -171q0 -48 23.5 -73t58.5 -25q15 0 38 8t28 8q20 0 20 -22q0 -24 -20 -58.5t-53 -68.5t-83.5 -58t-103.5 -24q-94 0 -154.5 63.5t-60.5 169.5z" />
<glyph unicode="Z" horiz-adv-x="1136" d="M0 139q0 34 14.5 65t46.5 79q58 87 148.5 184.5t180 180t176 164.5t156 165t101.5 153q-136 54 -252 54q-75 0 -123.5 -47t-48.5 -107q0 -59 47 -96q14 -12 20.5 -20t6.5 -19q0 -31 -67 -31q-45 0 -92.5 13t-93 38.5t-74.5 72t-29 106.5q0 122 88.5 193t228.5 71 q102 0 204 -20t178.5 -40t117.5 -20q59 0 96.5 7t53.5 13.5t24 6.5q29 0 29 -29q0 -35 -22.5 -123.5t-51.5 -132.5q-50 -77 -132 -165.5t-165.5 -166t-164.5 -152t-145.5 -144.5t-90.5 -122q55 23 159 23q37 0 109.5 -10.5t114.5 -10.5q66 0 127 25.5t94 64.5q26 33 43 33 q28 0 28 -37q0 -35 -25 -94.5t-66 -121.5t-106 -107t-134 -45t-198 47t-181 47q-45 0 -90.5 -21t-84 -42t-65.5 -21q-31 0 -53 28.5t-29.5 58.5t-7.5 52z" />
<glyph unicode="[" horiz-adv-x="391" d="M37 -92v1368q0 27 14.5 41t38.5 14l270 2q5 0 12 -1t19 -12t12 -32q0 -33 -12.5 -45t-36.5 -12h-133v-1274h133q24 0 36.5 -12t12.5 -45q0 -21 -10.5 -32t-21.5 -12l-11 -1q-211 2 -270 2q-22 0 -35 11t-15.5 20.5t-2.5 19.5z" />
<glyph unicode="\" horiz-adv-x="714" d="M41 1171q0 15 41 27t96 12q14 0 27 -9.5t18 -20.5q97 -250 252 -632t195 -472q10 -23 10 -35q0 -14 -10 -27q-8 -11 -47.5 -18.5t-77.5 -7.5q-37 0 -45 28q-37 77 -437 1086q-22 55 -22 69z" />
<glyph unicode="]" horiz-adv-x="385" d="M-31 -100q0 33 12.5 45t36.5 12h134v1274h-134q-24 0 -36.5 12t-12.5 45q0 21 10.5 32t21.5 12l11 1q212 -2 271 -2q22 0 35 -11t15.5 -20.5t2.5 -19.5v-1368q0 -27 -14.5 -41t-38.5 -14l-271 -2q-5 0 -12 1t-19 12t-12 32z" />
<glyph unicode="^" horiz-adv-x="841" d="M37 868q0 6 76.5 124t152.5 232l76 115q24 31 72 31q24 0 39 -8.5t39 -36.5q307 -437 307 -451q0 -22 -34.5 -40.5t-59.5 -18.5q-21 0 -35 19l-254 368l-246 -371q-13 -18 -39 -18q-21 0 -57.5 15t-36.5 40z" />
<glyph unicode="_" horiz-adv-x="1216" d="M61 -190q0 26 21 70t45 44h989q22 0 29.5 -5.5t7.5 -22.5q0 -25 -24 -72t-48 -47h-989q-31 0 -31 33z" />
<glyph unicode="`" horiz-adv-x="368" d="M12 879q0 32 38.5 79.5t62.5 47.5q34 0 47 -39q46 -137 168 -209q18 -10 24 -18t6 -21q0 -12 -9 -20.5t-25 -8.5q-51 0 -130 28.5t-135 78.5q-29 24 -38 40.5t-9 41.5z" />
<glyph unicode="a" d="M-31 229q0 79 24.5 150t73 130.5t130.5 94.5t188 35q48 0 83.5 -9.5t56 -19.5t32.5 -10q16 0 80.5 19.5t89.5 19.5q31 0 31 -31q0 -17 -18 -76.5t-36 -140.5t-18 -151q0 -38 20.5 -61t49.5 -23q24 0 39 9.5t39 33.5q20 20 34 20q13 0 21 -9.5t8 -19.5q0 -4 -0.5 -7.5 t-1.5 -7t-2 -6.5t-3.5 -7t-3.5 -6t-4.5 -7t-5 -7t-6 -8.5t-6.5 -8.5q-42 -54 -108 -94.5t-152 -40.5q-34 0 -63 11t-46 27t-28.5 32t-16.5 27l-4 11q-4 -4 -12.5 -11.5t-35 -26t-55 -33t-71 -26t-84.5 -11.5q-95 0 -157 62.5t-62 176.5zM236 221q0 -42 18 -69t51 -27 q30 0 58.5 25.5t48.5 70.5q19 41 36 125t17 143q0 60 -62 60q-41 0 -75 -35t-53 -87.5t-29 -106t-10 -99.5z" />
<glyph unicode="b" horiz-adv-x="749" d="M-41 254q0 65 22 154.5t48.5 166.5t48.5 180.5t22 192.5q0 49 -21.5 75t-55.5 26q-31 0 -31 24q0 35 71 73t154 38q82 0 128 -42t46 -118q0 -60 -54.5 -254.5t-57.5 -212.5q27 29 80 55.5t114 26.5q215 0 215 -209q0 -77 -27.5 -153t-78 -141t-134.5 -105.5t-186 -40.5 q-151 0 -227 71t-76 193zM211 156q0 -32 14.5 -52t42.5 -20q46 0 85 73t57 153.5t18 131.5q0 37 -18.5 55.5t-47.5 18.5q-66 0 -96 -92q-55 -167 -55 -268z" />
<glyph unicode="c" horiz-adv-x="673" d="M-31 256q0 164 117.5 275.5t310.5 111.5q110 0 161.5 -39.5t51.5 -103.5q0 -61 -34 -96t-87 -35q-36 0 -58.5 18.5t-22.5 48.5q0 25 15.5 52t16.5 36q0 27 -37 27q-49 0 -98 -76t-49 -178q0 -86 47 -131t117 -45q96 0 215 104q29 25 43 25q11 0 17.5 -7.5t6.5 -17.5 q0 -23 -43 -69q-29 -29 -47 -45.5t-55.5 -44t-71 -43t-84 -27.5t-104.5 -12q-146 0 -237 73t-91 199z" />
<glyph unicode="d" d="M-31 227q0 175 109.5 293.5t279.5 118.5q48 0 90 -11.5t60 -23.5q59 226 59 344q0 49 -22 75t-56 26q-30 0 -30 24q0 35 71 73t154 38q80 0 127 -42t47 -118q0 -74 -43 -219t-86 -302.5t-43 -262.5q0 -38 20.5 -61t49.5 -23q24 0 39 9.5t39 33.5q20 20 34 20 q13 0 21 -9.5t8 -19.5q0 -4 -0.5 -7.5t-1.5 -7t-2 -6.5t-3.5 -7t-3.5 -6t-4.5 -7t-5 -7t-6 -8.5t-6.5 -8.5q-42 -54 -108 -94.5t-152 -40.5q-35 0 -64.5 10.5t-46.5 25.5t-28.5 30t-16.5 26l-4 10q-4 -4 -12.5 -11t-34.5 -24.5t-54 -31t-70 -24.5t-83 -11q-107 0 -164 61.5 t-57 175.5zM238 207q0 -84 65 -84q30 0 58.5 25.5t48.5 72.5q19 41 37 125.5t18 142.5q0 28 -17 44t-49 16q-41 0 -73.5 -37t-50.5 -92.5t-27.5 -111t-9.5 -101.5z" />
<glyph unicode="e" horiz-adv-x="675" d="M-31 266q0 75 29.5 143t84 120t137 83t181.5 31q101 0 152 -40t51 -109q0 -90 -96 -162t-246 -84q0 -56 41 -91.5t113 -35.5q17 0 33 2t32 7.5t28 9t27.5 13t23.5 13.5t23.5 16t19 14.5t19.5 15.5l15 13q29 25 43 25q11 0 18 -7.5t7 -17.5q0 -25 -41 -69q-34 -36 -60 -59 t-72 -52.5t-105.5 -45t-129.5 -15.5q-152 0 -240 70t-88 212zM262 334q81 16 137 73.5t56 100.5q0 47 -49 47t-96.5 -67.5t-47.5 -153.5z" />
<glyph unicode="f" horiz-adv-x="417" d="M-184 -287q0 12 28 49q50 69 74 162q30 109 69.5 329t39.5 249q0 19 -9 28t-32 9q-15 0 -24 8t-9 20q0 21 15.5 41.5t29.5 20.5q30 0 41.5 10.5t19.5 42.5q81 340 381 340q96 0 149.5 -38.5t53.5 -96.5q0 -50 -29.5 -79.5t-74.5 -29.5q-29 0 -47 13t-24.5 31t-10.5 36.5 t-10 31.5t-19 13q-34 0 -58 -64t-24 -116q0 -35 10.5 -53.5t46 -29.5t103.5 -11q11 0 20 -6t9 -17q0 -30 -14.5 -49.5t-33.5 -19.5q-100 0 -142.5 -29.5t-55.5 -95.5q-68 -343 -105 -478q-14 -53 -58.5 -102.5t-96.5 -80t-99.5 -48.5t-74.5 -18q-22 0 -30.5 6.5t-8.5 21.5z " />
<glyph unicode="g" horiz-adv-x="780" d="M-92 -360q0 57 21 104.5t51 73.5t58 39.5t48 13.5q23 0 23 -18q0 -7 -9.5 -28.5t-9.5 -47.5q0 -44 32 -70t85 -26q50 0 90 38t62.5 89.5t38 113.5t20.5 100.5t6 59.5q-8 -12 -32.5 -30.5t-79 -40t-113.5 -21.5q-104 0 -168 66t-64 173q0 78 24.5 149t73 130.5t130.5 95 t188 35.5q64 0 118.5 -19.5t61.5 -19.5q20 0 78 19.5t88 19.5q31 0 31 -31q0 -12 -10.5 -44.5t-34 -133.5t-47.5 -254q-40 -258 -75 -376q-94 -313 -296 -374q-52 -16 -111 -16q-117 0 -197.5 63t-80.5 167zM233 227q0 -41 19.5 -68.5t52.5 -27.5q69 0 107 96 q18 48 34.5 136t16.5 133q0 28 -18 43.5t-52 15.5q-37 0 -68.5 -36t-50.5 -89t-30 -107.5t-11 -95.5z" />
<glyph unicode="h" horiz-adv-x="851" d="M-51 35q0 57 28 176t62 237.5t62 260.5t28 239q0 49 -22 75t-56 26q-31 0 -31 24q0 35 71.5 73t154.5 38q82 0 128 -42t46 -118q0 -75 -41.5 -238t-77.5 -274q46 51 115 89t149 38q84 0 129 -36.5t45 -102.5q0 -52 -30.5 -141t-30.5 -134q0 -33 17 -51t46 -18 q24 0 39 9.5t39 33.5q20 20 35 20q13 0 21 -9.5t8 -19.5q0 -4 -0.5 -7.5t-1.5 -7t-2 -6.5t-3.5 -7t-3.5 -6t-4.5 -7t-5 -7t-6 -8.5t-6.5 -8.5q-42 -54 -108 -94.5t-152 -40.5q-91 0 -136.5 42t-45.5 115q0 60 32.5 160t32.5 135q0 23 -13.5 36.5t-35.5 13.5q-66 0 -129 -127 q-25 -48 -54.5 -165.5t-31.5 -156.5q0 -25 -10 -34t-33 -9q-35 0 -100 -5t-78 -5q-20 0 -29.5 10t-9.5 35z" />
<glyph unicode="i" horiz-adv-x="434" d="M-31 160q0 73 34 190.5t34 147.5q0 18 -6 35t-6 30q0 33 67.5 54.5t159.5 21.5q70 0 70 -53q0 -34 -33 -153t-33 -193q0 -38 19.5 -61t48.5 -23q17 0 30.5 6t21.5 13t25 24q20 20 35 20q13 0 21 -9.5t8 -19.5q0 -4 -0.5 -7.5t-1.5 -7t-2 -6.5t-3.5 -7t-3.5 -6t-4.5 -7 t-5 -7t-6 -8.5t-6.5 -8.5q-42 -54 -108 -94.5t-152 -40.5q-97 0 -150 48t-53 122zM90 858q0 62 47 115t105 53q54 0 84 -30.5t30 -77.5q0 -62 -46.5 -116t-104.5 -54q-47 0 -81 32t-34 78z" />
<glyph unicode="j" horiz-adv-x="358" d="M-532 -346q0 89 58.5 153t111.5 64q24 0 24 -18q0 -8 -10 -28t-10 -38q0 -48 27.5 -77t76.5 -29q52 0 92 48.5t76 135.5q54 135 80 340.5t26 292.5q0 18 -7 35t-7 30q0 33 67.5 54.5t159.5 21.5q70 0 70 -53q0 -15 -9 -51t-32.5 -142t-48.5 -252q-45 -260 -84 -377 q-91 -279 -276 -336q-51 -16 -109 -16q-120 0 -198 66t-78 176zM68 858q0 63 46 115.5t105 52.5q54 0 84.5 -30.5t30.5 -77.5q0 -62 -47 -116t-105 -54q-47 0 -80.5 32t-33.5 78z" />
<glyph unicode="k" horiz-adv-x="718" d="M-51 35q0 58 28 175.5t62 233t62 258.5t28 246q0 49 -22 75t-56 26q-31 0 -31 24q0 35 71.5 73t154.5 38q82 0 128 -42t46 -118q0 -70 -73 -347t-73 -312q44 0 83.5 40t39.5 78q0 12 -7 24.5t-7 22.5q0 33 76 71t145 38q60 0 60 -47q0 -66 -64 -142.5t-176 -138.5 q19 -60 68.5 -107.5t109.5 -47.5q26 0 43.5 10t40.5 33q20 20 35 20q13 0 21 -9.5t8 -19.5q0 -4 -0.5 -7.5t-1.5 -7t-2 -6.5t-3.5 -7t-3.5 -6t-4.5 -7t-5 -7t-6 -8.5t-6.5 -8.5q-43 -54 -107 -94.5t-143 -40.5q-61 0 -104.5 42.5t-60.5 93.5t-29 93.5t-17 42.5 q-49 -180 -49 -219q0 -25 -9.5 -34t-33.5 -9q-34 0 -98.5 -5t-77.5 -5q-20 0 -29.5 10t-9.5 35z" />
<glyph unicode="l" horiz-adv-x="430" d="M-31 182q0 61 24.5 154t54.5 179t54.5 206t24.5 227q0 49 -22.5 75t-57.5 26q-29 0 -29 24q0 35 71.5 73t154.5 38q80 0 127 -42t47 -118q0 -71 -41 -226t-82 -315t-41 -243q0 -39 18.5 -61.5t46.5 -22.5q24 0 39 9.5t39 33.5q20 20 35 20q13 0 21 -9.5t8 -19.5 q0 -4 -0.5 -7.5t-1.5 -7t-2 -6.5t-3.5 -7t-3.5 -6t-4.5 -7t-5 -7t-6 -8.5t-6.5 -8.5q-106 -135 -258 -135q-98 0 -149.5 54t-51.5 138z" />
<glyph unicode="m" horiz-adv-x="1331" d="M-41 35q0 34 43 218.5t43 244.5q0 18 -7 35t-7 30q0 33 68.5 54.5t160.5 21.5q70 0 70 -53q0 -15 -4 -38t-8 -38l-5 -16q15 17 32.5 33.5t56 46t89.5 47.5t105 18q44 0 78 -15t52 -38.5t26.5 -41.5t11.5 -34q129 129 274 129q174 0 174 -139q0 -45 -28.5 -138t-28.5 -133 q0 -73 66 -73q17 0 30.5 6t21.5 13t25 24q20 20 35 20q13 0 21 -9.5t8 -19.5q0 -4 -0.5 -7.5t-1.5 -7t-2 -6.5t-3.5 -7t-3.5 -6t-4.5 -7t-5 -7t-6 -8.5t-6.5 -8.5q-42 -54 -108 -94.5t-152 -40.5q-85 0 -136.5 45t-51.5 112q0 68 32.5 160.5t32.5 126.5q0 58 -49 58 q-66 0 -125 -115q-34 -65 -62 -164.5t-28 -169.5q0 -25 -9.5 -34t-33.5 -9q-35 0 -99.5 -5t-78.5 -5q-41 0 -41 45q0 65 38 210.5t38 184.5q0 62 -45 62q-30 0 -69.5 -32t-74.5 -93q-30 -52 -59 -158.5t-29 -165.5q0 -25 -10.5 -34t-34.5 -9q-34 0 -97 -5t-75 -5 q-22 0 -32.5 10t-10.5 35z" />
<glyph unicode="n" horiz-adv-x="868" d="M-41 35q0 34 43 218.5t43 244.5q0 18 -7 35t-7 30q0 33 68.5 54.5t160.5 21.5q70 0 70 -53q0 -15 -4 -38t-8 -38l-5 -16q38 47 118.5 96t160.5 49q158 0 158 -129q0 -48 -29 -144t-29 -137q0 -73 66 -73q24 0 39 9.5t39 33.5q20 20 34 20q13 0 21 -9.5t8 -19.5 q0 -4 -0.5 -7.5t-1.5 -7t-2 -6.5t-3.5 -7t-3.5 -6t-4.5 -7t-5 -7t-6 -8.5t-6.5 -8.5q-42 -54 -108 -94.5t-152 -40.5t-137 44.5t-51 112.5t32.5 160.5t32.5 126.5q0 25 -13 41.5t-34 16.5q-29 0 -63 -31t-66 -94q-28 -57 -58 -162t-30 -162q0 -25 -10.5 -34t-34.5 -9 q-34 0 -97 -5t-75 -5q-22 0 -32.5 10t-10.5 35z" />
<glyph unicode="o" horiz-adv-x="724" d="M-31 250q0 76 29.5 146.5t84 126.5t139 90t186.5 34q114 0 185 -66.5t71 -172.5q0 -179 -108 -302.5t-290 -123.5q-135 0 -216 72.5t-81 195.5zM244 283q0 -69 36.5 -110.5t96.5 -41.5q58 0 96.5 49t38.5 107q0 61 -41 78q-46 18 -64 37t-18 47q0 30 15.5 54t15.5 25 q0 17 -19 17q-20 0 -57 -29q-100 -80 -100 -233z" />
<glyph unicode="p" horiz-adv-x="808" d="M-154 -434q0 82 15 158.5t49 205.5t57 238q44 210 49 330q0 18 -7 35t-7 30q0 33 68.5 54.5t160.5 21.5q70 0 70 -53q0 -15 -1.5 -29.5t-3.5 -21.5l-1 -7q20 32 90 71.5t152 39.5q97 0 154 -60.5t57 -164.5q0 -54 -16 -112t-49 -114t-78.5 -100t-109.5 -71t-137 -27 q-40 0 -77 12t-54 23t-26 20q-22 -84 -45 -214.5t-23 -192.5q0 -48 24 -72.5t60 -24.5q29 0 29 -24q0 -30 -69.5 -70.5t-160.5 -40.5q-80 0 -125 44t-45 116zM246 154q0 -60 65 -60q41 0 74 37t51.5 92t28.5 110.5t10 100.5q0 40 -15 59t-48 19q-29 0 -59 -27t-50 -73 q-21 -44 -39 -121t-18 -137z" />
<glyph unicode="q" horiz-adv-x="798" d="M-31 229q0 80 25 151t74 130t132 94t189 35q48 0 84.5 -9.5t58 -19.5t33.5 -10q20 0 76 19.5t86 19.5q31 0 31 -31q0 -17 -8.5 -47t-34 -133t-56.5 -252q-3 -12 -14.5 -68t-15 -72t-13 -65t-13 -70t-10 -62.5t-9 -67.5t-4.5 -59t-2 -62q0 -57 26.5 -83t59.5 -26 q28 0 28 -24q0 -10 -13.5 -27.5t-37 -36.5t-64.5 -33t-88 -14q-95 0 -143.5 51t-48.5 144q0 37 6.5 84t21.5 106t25 97t30.5 107t25.5 87q-30 -33 -91 -62.5t-127 -29.5q-103 0 -161 65t-58 174zM240 209q0 -84 65 -84q31 0 60.5 25.5t46.5 70.5q55 173 55 268q0 60 -64 60 q-41 0 -73.5 -34t-51.5 -86.5t-28.5 -109.5t-9.5 -110z" />
<glyph unicode="r" horiz-adv-x="612" d="M-41 35q0 34 43 218.5t43 244.5q0 18 -7 35t-7 30q0 33 68.5 54.5t160.5 21.5q70 0 70 -53q0 -15 -3 -37t-7 -37l-3 -14q2 5 6.5 14t21 32t35.5 40.5t51 32t67 14.5q43 0 68.5 -25.5t25.5 -70.5q0 -62 -37 -112t-96 -50q-40 0 -63 24t-23 54q-26 -9 -70 -89 q-29 -54 -56.5 -157.5t-27.5 -161.5q0 -25 -10.5 -34t-34.5 -9q-34 0 -97 -5t-75 -5q-22 0 -32.5 10t-10.5 35z" />
<glyph unicode="s" horiz-adv-x="600" d="M-51 164q0 47 28 75.5t66 28.5q42 0 65 -19.5t23 -55.5q0 -40 14 -63.5t41 -23.5q45 0 45 56q0 33 -21 61.5t-50.5 50.5t-59 45.5t-50.5 58t-21 77.5q0 93 80 143.5t202 50.5q109 0 163 -37.5t54 -103.5q0 -45 -24 -75t-72 -30q-30 0 -52 20.5t-22 49.5q0 17 8.5 36 t8.5 26q0 28 -39 28q-22 0 -41 -19.5t-19 -47.5q0 -33 23.5 -61t56.5 -49.5t66 -44.5t56.5 -57t23.5 -75q0 -101 -77 -162t-210 -61q-118 0 -192 48t-74 130z" />
<glyph unicode="t" horiz-adv-x="481" d="M-31 186q0 69 32 179t32 157q0 9 -8.5 13.5t-19.5 6t-19.5 8.5t-8.5 19q0 19 9.5 39.5t25.5 21.5q75 0 145 57t117 134q27 45 56 45q32 0 32 -32q0 -24 -14 -86t-14 -78q0 -22 13 -31.5t56 -8.5q29 0 29 -24q0 -30 -14 -49.5t-33 -19.5q-38 0 -58 -14.5t-30 -51.5 q-43 -159 -43 -231q0 -84 80 -84q25 0 56.5 21.5t57.5 43t37 21.5t19 -8t8 -17q0 -22 -30.5 -60t-76.5 -75.5t-108 -64.5t-117 -27q-105 0 -158 54.5t-53 141.5z" />
<glyph unicode="u" horiz-adv-x="880" d="M-31 147q0 70 35 195.5t35 155.5q0 18 -7 35t-7 30q0 33 68.5 54.5t160.5 21.5q70 0 70 -53q0 -40 -38 -169.5t-38 -211.5q0 -23 13.5 -37t35.5 -14q34 0 68.5 23.5t54.5 60.5q33 59 52.5 130.5t19.5 129.5q0 18 -7.5 35t-7.5 30q0 33 69 54.5t161 21.5q69 0 69 -53 q0 -36 -35.5 -162t-35.5 -184q0 -39 18.5 -61.5t46.5 -22.5q24 0 39 9.5t39 33.5q20 20 35 20q12 0 20 -9.5t8 -19.5q0 -22 -32 -65q-106 -135 -258 -135q-45 0 -80.5 13t-53.5 31t-29.5 36.5t-14.5 31.5l-3 13q-5 -5 -14.5 -13.5t-41 -30t-65.5 -38t-85 -30t-103 -13.5 q-74 0 -118 45.5t-44 111.5z" />
<glyph unicode="v" horiz-adv-x="737" d="M-31 147q0 75 34 198.5t34 152.5q0 18 -6 35t-6 30q0 33 67.5 54.5t159.5 21.5q70 0 70 -53q0 -41 -37 -179.5t-37 -205.5q0 -47 45 -47q65 0 130.5 82t65.5 161q0 15 -12.5 31.5t-25.5 39.5t-13 54q0 54 35 85.5t88 31.5q58 0 91.5 -38.5t33.5 -106.5 q0 -79 -47.5 -168.5t-122.5 -163.5t-177 -123t-202 -49q-81 0 -124.5 45t-43.5 112z" />
<glyph unicode="w" horiz-adv-x="1177" d="M-31 154q0 73 34 189t34 155q0 18 -6 35t-6 30q0 33 67.5 54.5t159.5 21.5q70 0 70 -53q0 -40 -35 -167t-35 -198q0 -32 15.5 -54t43.5 -22q35 0 67 25.5t54 69.5q25 49 41 124.5t16 133.5q0 18 -7 35t-7 30q0 33 67.5 54.5t159.5 21.5q70 0 70 -53q0 -41 -32.5 -169.5 t-32.5 -195.5q0 -36 19 -56t52 -20q64 0 112 75.5t48 162.5q0 28 -30.5 64.5t-30.5 74.5q0 52 34 84.5t88 32.5q61 0 94 -39t33 -111q0 -60 -17.5 -127t-53.5 -133t-85 -119.5t-117.5 -86.5t-145.5 -33q-92 0 -152 41.5t-90 95.5q-137 -137 -309 -137q-86 0 -136.5 47 t-50.5 117z" />
<glyph unicode="x" horiz-adv-x="702" d="M-102 113q0 41 42 90t70 49q19 0 49.5 -17.5t57.5 -17.5q49 0 78 47q-12 27 -28.5 59.5t-48 75t-59.5 52.5q-32 14 -32 34q0 37 60 95.5t124 58.5q15 0 29.5 -6.5t29 -22t26 -29.5t26.5 -39.5t24 -41t24.5 -46t22.5 -42.5q62 71 62 116q0 49 28 80t76 31q43 0 68.5 -25.5 t25.5 -68.5q0 -62 -53.5 -123.5t-146.5 -134.5q6 -8 24 -33.5t27.5 -37.5t25.5 -29t31 -24t31 -7q24 0 39 9.5t39 33.5q20 20 35 20q12 0 20 -9.5t8 -19.5q0 -4 -0.5 -7.5t-1.5 -7t-2 -6.5t-3.5 -7t-3.5 -6t-4.5 -7t-5 -7t-6 -8.5t-6.5 -8.5q-42 -54 -108 -94.5t-152 -40.5 q-34 0 -62 13.5t-51 42.5t-35 48.5t-30 55.5q-41 -47 -65.5 -73t-67.5 -56.5t-74 -30.5q-53 0 -105 46t-52 77z" />
<glyph unicode="y" horiz-adv-x="837" d="M-51 -360q0 57 21 104.5t51 73.5t58 39.5t48 13.5q23 0 23 -18q0 -7 -9.5 -28.5t-9.5 -47.5q0 -44 32 -70t85 -26q36 0 67 17.5t53.5 50.5t40.5 71.5t31.5 91.5t22.5 98.5t18 102.5q-128 -123 -311 -123q-76 0 -126 44.5t-50 112.5q0 76 33.5 199t33.5 152q0 18 -7 35 t-7 30q0 33 68 54.5t159 21.5q70 0 70 -53q0 -40 -36 -170.5t-36 -198.5q0 -27 15 -45t39 -18q33 0 68.5 25t60.5 61q28 42 43.5 118t15.5 140q0 18 -7 35t-7 30q0 33 68 54.5t159 21.5q70 0 70 -53q0 -17 -5 -40.5t-13.5 -56t-25.5 -117t-36 -196.5q-43 -253 -75 -362 q-91 -309 -281 -381q-61 -23 -134 -23q-117 0 -197.5 63t-80.5 167z" />
<glyph unicode="z" horiz-adv-x="657" d="M-49 14v39q0 86 15 134t69 73q123 55 250 131q24 13 24 29q0 26 -110 26q-69 0 -125 -43q-4 -3 -10.5 -7.5t-9 -6.5t-7 -4t-8 -3t-8.5 -1q-9 0 -16 8t-7 21q1 21 17.5 57.5t43 75.5t68 67.5t84.5 28.5q39 0 124 -14.5t128 -14.5q35 0 65.5 8.5t34.5 8.5q31 0 31 -29 q0 -43 -22.5 -103.5t-71.5 -91.5q-46 -29 -122 -73.5t-105 -61.5q-27 -19 -27 -32q0 -20 25 -23q46 -10 174 -10q104 0 159 37q33 22 43 22t16.5 -6.5t6.5 -15.5q0 -24 -37 -78q-65 -83 -127 -127.5t-141 -44.5q-77 0 -158.5 24.5t-120.5 24.5q-33 0 -67.5 -24.5 t-46.5 -24.5q-31 0 -31 24z" />
<glyph unicode="{" horiz-adv-x="477" d="M-8 678q0 38 45 55q86 34 86 123q0 72 -15.5 166.5t-15.5 204.5q0 52 28.5 92.5t75 62.5t96.5 32.5t101 10.5q22 0 36.5 -9t14.5 -25q0 -22 -49 -37q-104 -34 -104 -203q0 -163 5 -233t5 -80q0 -48 -22.5 -96.5t-49.5 -63.5q27 -16 48.5 -62.5t21.5 -97.5q0 -11 -4 -80.5 t-4 -232.5q0 -169 104 -203q49 -15 49 -37q0 -16 -15 -25.5t-36 -9.5q-51 0 -101 11t-96.5 33t-75 62.5t-28.5 92.5q0 110 15.5 204.5t15.5 166.5q0 101 -86 123q-45 12 -45 55z" />
<glyph unicode="|" horiz-adv-x="290" d="M53 -59v1253q0 22 31.5 36.5t58.5 14.5q31 0 63 -14t32 -37v-1257q0 -20 -28 -33t-60 -13q-31 0 -64 14t-33 36z" />
<glyph unicode="}" horiz-adv-x="481" d="M-8 -35q0 22 49 37q104 34 104 203q0 163 -4 232.5t-4 80.5q0 51 21.5 97.5t48.5 62.5q-27 15 -49.5 63.5t-22.5 96.5q0 10 5 80t5 233q0 169 -104 203q-49 15 -49 37q0 16 14.5 25t36.5 9q51 0 101 -10.5t96.5 -32.5t75 -62.5t28.5 -92.5q0 -110 -15.5 -204.5 t-15.5 -166.5q0 -89 86 -123q45 -17 45 -55q0 -43 -45 -55q-86 -22 -86 -123q0 -72 15.5 -166.5t15.5 -204.5q0 -52 -28.5 -92.5t-75 -62.5t-96.5 -33t-101 -11q-21 0 -36 9.5t-15 25.5z" />
<glyph unicode="~" horiz-adv-x="884" d="M18 385q0 10 8.5 38.5t20.5 47.5q14 22 23.5 35t26 30t33.5 26t43 15.5t58 6.5q48 0 106.5 -17.5t104.5 -38t103.5 -38t105.5 -17.5q39 0 69.5 7.5t45.5 16.5t33 23q28 23 37 23t16.5 -6.5t7.5 -16.5q0 -26 -45 -90q-27 -38 -45 -58t-52 -37.5t-75 -17.5q-60 0 -209 55.5 t-211 55.5q-61 0 -92.5 -9.5t-58.5 -35.5q-21 -21 -29 -21q-11 0 -18 6.5t-7 16.5z" />
<glyph unicode="&#xa1;" horiz-adv-x="448" d="M-37 -360q0 -15 11.5 -25t25.5 -10q34 0 162 39q28 8 39 23t14 40q12 71 68.5 452.5t56.5 399.5q0 47 -39 47t-106 -31q-21 -10 -29 -19t-14 -34q-25 -117 -78 -352.5t-82 -370.5t-29 -159zM182 793q0 55 41 103t99 48q34 0 55.5 -27.5t21.5 -68.5q0 -52 -41 -101 t-94 -49q-36 0 -59 27.5t-23 67.5z" />
<glyph unicode="&#xa2;" horiz-adv-x="702" d="M20 256q0 145 94.5 251t254.5 130v51q0 23 22 37t47 14q29 0 51.5 -14t22.5 -37v-49q74 -10 110.5 -43.5t36.5 -77.5q0 -32 -17.5 -50.5t-43.5 -18.5q-23 0 -37 15.5t-14 41.5q0 36 -35 43v-420q43 11 92 45q36 25 47 25t19 -7.5t8 -17.5q0 -25 -45 -70q-57 -57 -121 -86 v-71q0 -22 -19.5 -36.5t-48.5 -14.5q-28 0 -51.5 13t-23.5 36v39h-21q-146 0 -237 73t-91 199zM307 297q0 -113 62 -156v342q-62 -75 -62 -186z" />
<glyph unicode="&#xa3;" horiz-adv-x="899" d="M0 139q0 17 14.5 38t33 41.5t41 60t34.5 86.5q21 77 27 251h-99q-31 0 -31 33q0 26 21.5 70.5t44.5 44.5h66v55q0 262 115 406.5t317 144.5q142 0 226.5 -72.5t84.5 -199.5q0 -76 -39.5 -121t-105.5 -45q-41 0 -72 30t-31 72q0 43 30 78.5t30 61.5q0 86 -105 86 q-68 0 -112 -79.5t-44 -195.5q0 -85 -4 -221h105q22 0 29.5 -6t7.5 -23q0 -25 -24 -72t-48 -47h-82q-23 -247 -98 -360q40 4 71 4q44 0 127 -5t107 -5q65 0 95 15t65 57q25 32 43 32q30 0 30 -37q0 -27 -12 -67t-38 -85.5t-61.5 -84t-88 -64.5t-111.5 -26q-70 0 -174 27.5 t-170 27.5q-25 0 -68 -22.5t-65 -22.5q-31 0 -56.5 50t-25.5 89z" />
<glyph unicode="&#xa5;" horiz-adv-x="952" d="M27 418q0 19 11 31t22 14l12 2h180l27 135h-201q-3 1 -7.5 3.5t-12 15t-7.5 30.5t11.5 29.5t22.5 13.5l11 2h166l-205 559q0 3 0.5 7.5t4 16.5t10.5 21.5t23 17t38 7.5q36 0 59.5 -15.5t29.5 -30.5l5 -15l181 -492l340 492q1 3 4 7t13.5 15.5t23 20t33 15.5t44.5 7 q70 0 70 -51l-4 -25l-414 -557h146q5 0 12 -1t19 -12.5t12 -31.5q0 -22 -15 -34t-30 -13l-15 -2h-205l-26 -135h231q7 0 14 -2t14 -11.5t7 -25.5q0 -24 -14 -37t-28 -15l-15 -1h-226l-63 -326q0 -2 -1.5 -6t-7 -14t-13.5 -17.5t-23.5 -13.5t-34.5 -6q-21 0 -37.5 6t-25 14 t-14.5 16.5t-7 14.5l-2 6l63 326h-178q-1 0 -3 0.5t-7 3.5t-8.5 7.5t-6.5 13.5t-3 20z" />
<glyph unicode="&#xa6;" horiz-adv-x="245" d="M47 -287v604q0 22 6 29.5t23 7.5q26 0 72.5 -23.5t46.5 -47.5v-605q0 -30 -33 -30q-26 0 -70.5 21t-44.5 44zM47 635v604q0 22 6 29.5t23 7.5q25 0 72 -24t47 -48v-604q0 -31 -33 -31q-26 0 -70.5 21.5t-44.5 44.5z" />
<glyph unicode="&#xa7;" horiz-adv-x="698" d="M20 102q0 42 29.5 68.5t63.5 26.5q28 0 46 -16.5t25.5 -37t19 -37t27.5 -16.5q33 0 48.5 29t15.5 69q0 36 -23 75.5t-55.5 78t-65.5 81.5t-56 102t-23 124q0 112 40.5 211t107.5 168.5t157.5 109.5t187.5 40q45 0 83 -29.5t38 -71.5q0 -43 -24.5 -69.5t-61.5 -26.5 q-34 0 -54 16.5t-25.5 35.5t-15.5 35.5t-26 16.5q-33 0 -49 -31t-16 -73q0 -33 22.5 -70.5t54 -76.5t63.5 -84.5t54.5 -109.5t22.5 -136q0 -128 -63 -244t-172.5 -188t-235.5 -72q-68 0 -104 28t-36 74zM215 768q0 -47 21 -98.5t50.5 -98t59.5 -92.5t51 -97t21 -97 q0 -19 -4 -43t-8 -38l-3 -14q4 4 10 11.5t21.5 31t27.5 47.5t22 58.5t10 67.5q0 39 -32 107.5t-70.5 131.5t-70.5 131.5t-32 106.5q0 26 3.5 50.5t7.5 36.5l3 11q-31 -28 -59.5 -85.5t-28.5 -127.5z" />
<glyph unicode="&#xa8;" horiz-adv-x="581" d="M41 829q0 52 41 101t94 49q36 0 59 -27t23 -67q0 -55 -40.5 -103.5t-98.5 -48.5q-34 0 -56 27.5t-22 68.5zM324 829q0 52 41 101t94 49q36 0 59 -27t23 -67q0 -55 -41 -103.5t-99 -48.5q-34 0 -55.5 27.5t-21.5 68.5z" />
<glyph unicode="&#xa9;" horiz-adv-x="1024" d="M25 889q0 96 38.5 185t103.5 154t154.5 103.5t186.5 38.5q98 0 188 -38.5t155 -103.5t103.5 -153.5t38.5 -185.5q0 -131 -65.5 -243t-177 -177.5t-242.5 -65.5q-97 0 -186.5 39t-154.5 104t-103.5 155t-38.5 188zM145 889q0 -153 106 -259t257 -106q154 0 260 105.5 t106 259.5q0 151 -106.5 256.5t-259.5 105.5q-151 0 -257 -105.5t-106 -256.5zM211 883q0 134 90.5 217.5t235.5 83.5q58 0 111.5 -21t53.5 -43q0 -82 -38 -82q-6 0 -46 18.5t-77 18.5q-93 0 -147 -50.5t-54 -137.5q0 -89 51.5 -140t140.5 -51q49 0 91 17.5t51 17.5 q41 0 41 -59q0 -28 -35.5 -47.5t-77 -26t-82.5 -6.5q-139 0 -224 74t-85 217z" />
<glyph unicode="&#xaa;" d="M-31 954q0 79 24.5 150t73 130.5t130.5 94.5t188 35q48 0 83.5 -10t56 -19.5t32.5 -9.5q16 0 80.5 19.5t89.5 19.5q31 0 31 -31q0 -17 -18 -76.5t-36 -140.5t-18 -151q0 -38 20.5 -61t49.5 -23q24 0 39 9.5t39 33.5q20 20 34 20q13 0 21 -9.5t8 -19.5q0 -4 -0.5 -7.5 t-1.5 -7t-2 -6.5t-3.5 -7t-3.5 -6t-4.5 -7t-5 -7t-6 -8.5t-6.5 -8.5q-42 -54 -108 -94.5t-152 -40.5q-34 0 -63 11t-46 27t-28.5 32t-16.5 27l-4 11q-4 -4 -12.5 -11.5t-35 -26t-55 -33t-71 -26t-84.5 -11.5q-95 0 -157 62.5t-62 176.5zM236 946q0 -42 18 -69t51 -27 q30 0 58.5 25.5t48.5 70.5q19 41 36 125t17 143q0 60 -62 60q-41 0 -75 -35t-53 -87.5t-29 -106t-10 -99.5z" />
<glyph unicode="&#xab;" horiz-adv-x="1116" d="M33 575q0 50 16.5 93t63.5 92q22 23 137.5 129.5t212.5 202.5q28 32 59 32q27 0 58.5 -30.5t31.5 -61.5q0 -18 -7 -28.5t-25 -24.5q-94 -92 -167 -161.5t-106.5 -100t-36.5 -33.5q-59 -59 -59 -109q0 -9 2.5 -17t9 -17t10.5 -14t15 -16t14 -15q204 -222 320 -318 q2 -1 4 -4q22 -18 25 -31l1 -18q0 -29 -27.5 -59.5t-58.5 -30.5q-18 0 -53 22q-40 36 -94.5 88.5t-141 137.5t-131.5 129q-73 73 -73 163zM483 575q0 50 16.5 93t63.5 92q22 23 137.5 129.5t212.5 202.5q28 32 60 32q27 0 58.5 -30.5t31.5 -61.5q0 -13 -5 -23t-10 -15 t-18 -15q-94 -92 -166.5 -161.5t-105.5 -99.5t-37 -34q-59 -59 -59 -109q0 -9 2.5 -17t9 -17t10.5 -14t15 -16t14 -15q120 -131 319 -318q20 -14 25.5 -23t5.5 -30q0 -29 -27.5 -59.5t-58.5 -30.5q-18 0 -53 22q-40 36 -94.5 88.5t-141 137.5t-131.5 129q-74 74 -74 163z " />
<glyph unicode="&#xac;" horiz-adv-x="870" d="M0 559q0 30 15 52t46 22h693q48 0 67 -23t19 -49v-309q0 -59 -76 -59q-80 0 -80 61v227h-623q-32 0 -46.5 22t-14.5 56z" />
<glyph unicode="&#xad;" horiz-adv-x="708" d="M61 305q0 26 21.5 70.5t44.5 44.5h467q22 0 29.5 -6t7.5 -23q0 -25 -24 -72t-48 -47h-467q-31 0 -31 33z" />
<glyph unicode="&#xae;" horiz-adv-x="1005" d="M12 889q0 130 65 241.5t176 176.5t241 65q199 0 342 -142.5t143 -340.5q0 -130 -65.5 -241t-177 -175.5t-242.5 -64.5q-130 0 -241 64.5t-176 175.5t-65 241zM127 889q0 -151 108.5 -257t258.5 -106q153 0 259.5 105.5t106.5 257.5t-107 259t-259 107 q-150 0 -258.5 -107.5t-108.5 -258.5zM299 655v488q0 8 7 15.5t16 8.5q114 13 145 13q115 0 180 -47q53 -37 53 -115q0 -80 -75 -131q37 -34 51 -90l41 -135q2 -4 2 -11q0 -9 -6.5 -15.5t-16.5 -6.5h-78q-3 0 -9.5 4.5t-6.5 7.5q-20 30 -45 125q-20 77 -90 80h-47v-191 q0 -26 -23 -26h-73q-11 0 -18 7t-7 19zM420 942h51q49 0 78 18.5t29 49.5q0 67 -109 67q-35 0 -49 -4v-131z" />
<glyph unicode="&#xb0;" horiz-adv-x="495" d="M31 1055q0 91 64 155t155 64t155 -64t64 -155t-64 -155t-155 -64t-155 64t-64 155zM154 1055q0 -40 28 -68.5t68 -28.5q39 0 66.5 28.5t27.5 68.5t-27 67t-67 27t-68 -27t-28 -67z" />
<glyph unicode="&#xb1;" horiz-adv-x="942" d="M41 205q0 26 21 70t44 44h748q22 0 29.5 -5.5t7.5 -22.5q0 -25 -24 -72t-48 -47h-747q-31 0 -31 33zM68 819q0 30 10 51t28 21h302v299q0 21 20.5 32t50.5 11t53 -10.5t23 -28.5v-303h299q21 0 32 -21t11 -51t-10.5 -53t-28.5 -23h-303v-297q0 -20 -23 -31.5t-53 -11.5 q-29 0 -50 10.5t-21 28.5v301h-297q-20 0 -31.5 23t-11.5 53z" />
<glyph unicode="&#xb2;" horiz-adv-x="579" d="M18 735q0 17 6.5 30.5t14.5 21.5t29 26q49 45 72 66.5t66.5 64.5t65.5 71.5t48.5 66t37.5 71.5t11 66q0 38 -20 57.5t-54 19.5q-31 0 -55.5 -23t-24.5 -50q0 -17 18.5 -39.5t18.5 -48.5q0 -29 -20.5 -48.5t-55.5 -19.5q-41 0 -67.5 30t-26.5 77q0 83 69.5 143.5 t170.5 60.5q126 0 193 -48.5t67 -158.5q0 -45 -23 -88t-60 -79t-75.5 -67t-79 -65.5t-61.5 -60.5q10 2 30 2t52.5 -4t50.5 -4q56 0 96 45q14 20 27 20q18 0 18 -22t-15.5 -59t-41.5 -75t-68 -65.5t-88 -27.5q-44 0 -95 17t-93 17q-16 0 -44 -14t-42 -14q-20 0 -36 40.5 t-16 67.5z" />
<glyph unicode="&#xb3;" horiz-adv-x="514" d="M0 838q0 16 8 26t23 10q17 0 30 -32q11 -26 41.5 -47t61.5 -21q49 0 75.5 31t26.5 78q0 35 -24.5 58.5t-63.5 29.5q-24 4 -24 49q0 22 11.5 34t39.5 23q47 18 75.5 63t28.5 95q0 63 -63 63q-25 0 -43.5 -14.5t-18.5 -34.5q0 -16 13.5 -31.5t13.5 -39.5q0 -25 -22 -43.5 t-48 -18.5q-36 0 -59 24.5t-23 61.5q0 58 37.5 99t88 58t104.5 17q92 0 151.5 -39.5t59.5 -115.5q0 -66 -47.5 -109.5t-104.5 -64.5q49 -12 98.5 -63.5t49.5 -127.5q0 -97 -70 -167.5t-186 -70.5q-59 0 -107.5 23.5t-76 59t-42 71.5t-14.5 66z" />
<glyph unicode="&#xb4;" horiz-adv-x="385" d="M12 719q0 22 31 39q122 72 168 209q13 39 47 39q24 0 62 -47.5t38 -79.5q0 -25 -9 -41.5t-38 -40.5q-57 -50 -135 -78.5t-129 -28.5q-16 0 -25.5 9t-9.5 20z" />
<glyph unicode="&#xb5;" horiz-adv-x="901" d="M-139 -434q0 82 15 158.5t49 205.5t57 238q44 210 49 330q0 18 -7.5 35t-7.5 30q0 33 69 54.5t161 21.5q69 0 69 -53q0 -15 -1.5 -29.5t-3.5 -21.5l-1 -7q-57 -231 -57 -305q0 -51 23 -75.5t55 -24.5q68 0 110 80q30 57 48 144.5t18 150.5q0 18 -7 35t-7 30 q0 33 68.5 54.5t160.5 21.5q70 0 70 -53q0 -36 -36 -162t-36 -184q0 -39 18.5 -61.5t46.5 -22.5q12 0 25 4.5t20 8t22 13.5t17 11q28 20 37 20q11 0 18 -6.5t7 -16.5q0 -4 -0.5 -7.5t-1.5 -7t-2 -6.5t-3.5 -7t-3.5 -6t-4.5 -7t-5 -7t-6 -8.5t-6.5 -8.5q-110 -135 -262 -135 q-32 0 -59.5 8.5t-43.5 21t-27 25t-15 21.5l-5 8q-2 -3 -6.5 -9t-20 -20.5t-32.5 -25.5t-44 -20t-56 -9q-33 0 -62.5 9.5t-43.5 19.5l-13 10q-20 -78 -40 -202.5t-20 -188.5q0 -48 24 -72.5t60 -24.5q29 0 29 -24q0 -30 -69 -70.5t-160 -40.5q-80 0 -125 44t-45 116z" />
<glyph unicode="&#xb6;" horiz-adv-x="770" d="M10 903q0 70 33.5 124.5t88.5 85.5t119 47t132 16h350q25 0 33 -16t8 -46q0 -18 -12.5 -37.5t-26.5 -19.5h-78v-975q0 -17 -20.5 -28t-42.5 -11t-40.5 10.5t-18.5 28.5v975h-97v-975q0 -17 -21 -28t-40 -11q-24 0 -45 11t-21 28v541q-128 5 -214.5 78.5t-86.5 201.5z" />
<glyph unicode="&#xb7;" horiz-adv-x="299" d="M41 618q0 52 41 101t94 49q36 0 59 -27t23 -67q0 -55 -40.5 -103.5t-98.5 -48.5q-34 0 -56 27.5t-22 68.5z" />
<glyph unicode="&#xb8;" horiz-adv-x="432" d="M14 -276q0 25 19 46t43 21q20 0 33.5 -12.5t31 -25.5t47.5 -13q57 0 98.5 33t41.5 59q-81 -22 -148 -22q-20 0 -32.5 12.5t-12.5 27.5q0 21 6.5 58.5t12.5 64.5l6 27h92q0 -76 31 -76q15 0 45 3t41 3q47 0 47 -55q0 -35 -18 -75t-50.5 -76t-88 -60t-122.5 -24 q-54 0 -88.5 23t-34.5 61z" />
<glyph unicode="&#xb9;" horiz-adv-x="346" d="M10 645q0 49 26.5 171.5t53.5 226t27 106.5q-42 -14 -62 -14q-12 0 -20 10t-8 22q0 30 28 50q100 77 144 114q52 45 71 45q27 0 55.5 -19t28.5 -40q0 -11 -5 -25.5t-17.5 -49.5t-24.5 -77q-110 -396 -110 -516q0 -26 -27 -26q-23 0 -75.5 -3.5t-59.5 -3.5q-25 0 -25 29z " />
<glyph unicode="&#xba;" horiz-adv-x="724" d="M-31 969q0 76 29.5 146.5t84 126.5t139 90t186.5 34q114 0 185 -67t71 -173q0 -179 -108 -302.5t-290 -123.5q-135 0 -216 73t-81 196zM244 1001q0 -69 36.5 -110t96.5 -41q58 0 96.5 49t38.5 107q0 60 -41 77q-46 18 -64 37t-18 47q0 30 15.5 54.5t15.5 25.5 q0 17 -19 17q-20 0 -57 -29q-100 -80 -100 -234z" />
<glyph unicode="&#xbb;" horiz-adv-x="1101" d="M33 125q0 20 5 28t25 25q116 96 320 318q3 4 14 15t15 16t10.5 14t9 17t2.5 17q0 50 -59 109q-2 2 -17 17.5t-36.5 37.5t-54.5 54.5t-85.5 81t-115.5 104.5q-13 10 -18 15t-10 15t-5 23q0 31 31.5 61.5t58.5 30.5q31 0 59 -32q99 -105 219.5 -213.5t130.5 -118.5 q47 -49 63.5 -92t16.5 -93q0 -90 -73 -163q-49 -48 -131 -132t-137.5 -137.5t-98.5 -85.5q-29 -22 -53 -22q-31 0 -58.5 30.5t-27.5 59.5zM483 125q0 4 0.5 8t0.5 7t1.5 5.5t2 4.5t2.5 5t3 4l4 4l4.5 4.5t6 5t6.5 5.5q116 96 320 318q3 4 14 15t15 16t10.5 14t9 17t2.5 17 q0 49 -60 109q-2 2 -17 17.5t-36.5 37.5t-54.5 54.5t-85.5 81t-115.5 104.5q-13 10 -18 15t-10 15t-5 23q0 31 31.5 61.5t58.5 30.5q32 0 60 -32q99 -105 219.5 -213.5t130.5 -118.5q47 -49 63.5 -92t16.5 -93q0 -89 -74 -163q-50 -49 -131 -132t-136.5 -137t-98.5 -86 q-29 -22 -54 -22q-31 0 -58.5 30.5t-27.5 59.5z" />
<glyph unicode="&#xbc;" horiz-adv-x="1144" d="M35 481q0 49 26.5 171.5t53 226t26.5 106.5q-42 -14 -61 -14q-12 0 -20.5 10.5t-8.5 22.5q0 28 29 49q91 69 143 114t72 45q27 0 55.5 -19t28.5 -40q0 -11 -5 -25.5t-17.5 -49.5t-24.5 -77q-111 -400 -111 -516q0 -26 -26 -26q-23 0 -76 -3t-60 -3q-24 0 -24 28zM96 41 q0 12 10 35q41 94 212.5 498.5t254.5 605.5q5 11 18 20.5t27 9.5q55 0 96.5 -12t41.5 -27q0 -25 -19 -73q-76 -185 -257.5 -610t-203.5 -472q-8 -28 -45 -28q-38 0 -77.5 7.5t-47.5 18.5q-10 13 -10 27zM522 352q0 13 22 40t49 55t49 69t22 78q0 17 -16.5 41t-16.5 49 q0 28 25 50t57 22q42 0 63 -27t21 -70q0 -61 -25 -124t-65 -111q18 4 51 4q36 0 96 -8q64 242 113 278q22 17 68 36.5t65 19.5q20 0 20 -19q0 -6 -3 -15t-10 -27t-13 -36q-38 -129 -66 -270q12 -4 43 -4q21 0 21 -14q0 -22 -29.5 -58t-61.5 -43q-32 -174 -32 -237 q0 -17 -6.5 -23t-20.5 -6q-23 0 -79.5 -3t-63.5 -3q-27 0 -27 29q0 71 37 235q-61 10 -170 10q-19 0 -38.5 -4t-27.5 -4q-18 0 -34.5 34.5t-16.5 55.5z" />
<glyph unicode="&#xbd;" horiz-adv-x="1105" d="M10 481q0 49 26.5 171.5t53.5 226t27 106.5q-42 -14 -62 -14q-12 0 -20 10.5t-8 22.5q0 29 28 49q100 77 144 114q52 45 71 45q27 0 55.5 -19t28.5 -40q0 -11 -5 -25.5t-17.5 -49.5t-24.5 -77q-110 -396 -110 -516q0 -26 -27 -26q-23 0 -75.5 -3t-59.5 -3q-25 0 -25 28z M72 41q0 12 10 35q41 94 212.5 498.5t254.5 605.5q5 11 18 20.5t27 9.5q55 0 96 -12t41 -27q0 -28 -18 -73q-76 -185 -257.5 -610t-203.5 -472q-8 -28 -45 -28q-38 0 -77.5 7.5t-47.5 18.5q-10 13 -10 27zM498 113q0 17 6.5 30t14 21t28.5 26q49 45 72 66.5t66.5 64.5 t65.5 71.5t48.5 66t37.5 71.5t11 66q0 38 -20 58t-54 20q-31 0 -55.5 -23.5t-24.5 -50.5q0 -17 18.5 -39.5t18.5 -48.5q0 -29 -20.5 -48.5t-55.5 -19.5q-41 0 -67.5 30t-26.5 77q0 83 69.5 144t170.5 61q126 0 193 -48.5t67 -158.5q0 -45 -23 -88.5t-60 -79.5t-75.5 -67 t-79 -65.5t-61.5 -60.5q10 2 31 2q20 0 52 -4t50 -4q56 0 96 45q15 21 27 21q18 0 18 -23q0 -22 -15.5 -59t-41.5 -75t-68 -65.5t-88 -27.5q-45 0 -96 17.5t-92 17.5q-16 0 -44 -14.5t-42 -14.5q-20 0 -35.5 40.5t-15.5 68.5z" />
<glyph unicode="&#xbe;" horiz-adv-x="1404" d="M33 674q0 16 8 26.5t22 10.5q18 0 31 -33q11 -26 41.5 -47t61.5 -21q49 0 75.5 31t26.5 78q0 35 -24.5 58.5t-63.5 29.5q-25 4 -25 49q0 22 12 34t40 23q47 18 75.5 63t28.5 95q0 64 -63 64q-25 0 -43.5 -15t-18.5 -35q0 -16 13.5 -31.5t13.5 -39.5q0 -25 -22 -43.5 t-48 -18.5q-36 0 -59 24.5t-23 61.5q0 58 37.5 99t88 58t104.5 17q92 0 151 -39.5t59 -115.5q0 -66 -47 -109.5t-104 -64.5q49 -12 98 -63.5t49 -127.5q0 -97 -69.5 -167t-186.5 -70q-59 0 -107.5 23.5t-75.5 58.5t-41.5 71t-14.5 66zM350 41q0 12 10 35q41 94 212.5 498.5 t254.5 605.5q5 11 18 20.5t27 9.5q55 0 96.5 -12t41.5 -27q0 -25 -19 -73q-76 -185 -257.5 -610t-203.5 -472q-8 -28 -45 -28q-38 0 -77.5 7.5t-47.5 18.5q-10 13 -10 27zM776 352q0 13 22 40t49 55t49 69t22 78q0 17 -16.5 41t-16.5 49q0 28 25 50t57 22q42 0 63 -27 t21 -70q0 -61 -25 -124t-65 -111q18 4 51 4q36 0 96 -8q64 242 113 278q22 17 68 36.5t65 19.5q20 0 20 -19q0 -6 -3 -15t-10 -27t-13 -36q-38 -129 -66 -270q12 -4 43 -4q21 0 21 -14q0 -22 -29.5 -58t-61.5 -43q-32 -174 -32 -237q0 -17 -6.5 -23t-20.5 -6q-23 0 -79.5 -3 t-63.5 -3q-27 0 -27 29q0 71 37 235q-61 10 -170 10q-19 0 -38.5 -4t-27.5 -4q-18 0 -34.5 34.5t-16.5 55.5z" />
<glyph unicode="&#xbf;" horiz-adv-x="735" d="M4 -80q0 60 27 117t67.5 100.5t90 91.5t94 89t79 93t44.5 103q8 48 59 51q32 2 73.5 16.5t51.5 14.5q11 0 21 -9.5t10 -23.5q0 -54 -33 -123.5t-79.5 -137.5t-93 -138.5t-79.5 -149.5t-33 -147q0 -85 36 -124.5t118 -39.5q53 0 94 38t41 89q0 26 -31 66.5t-31 83.5 q0 41 31.5 66.5t73.5 25.5q66 0 105.5 -45t39.5 -121q0 -146 -107 -230t-267 -84q-82 0 -152 18t-127.5 55.5t-90 102.5t-32.5 152zM428 768q0 55 40.5 103.5t98.5 48.5q34 0 56 -28t22 -69q0 -52 -41 -100.5t-94 -48.5q-36 0 -59 27t-23 67z" />
<glyph unicode="&#xc0;" horiz-adv-x="1476" d="M0 266q0 55 21.5 103t54.5 79.5t72.5 54.5t74.5 33.5t62 10.5q28 0 28 -27q0 -10 -18.5 -42t-18.5 -58q0 -50 29 -78.5t90 -28.5q43 0 86.5 27t92.5 89.5t75 101t77 122.5q2 3 2.5 4t2 3t2.5 4q23 38 83 138t92 151t82.5 118t94.5 107q-128 41 -266 41 q-85 0 -141.5 -45.5t-56.5 -104.5q0 -44 23 -67t63 -23q19 0 37.5 10t23.5 10q9 0 16 -6t7 -16q0 -65 -71.5 -136t-170.5 -71q-98 0 -166 66.5t-68 171.5q0 106 63.5 187.5t164 122t217.5 40.5q124 0 265 -27.5t177 -27.5q74 0 139 8t103.5 16t48.5 8q37 0 37 -35 q0 -11 -9.5 -30.5t-30.5 -70t-42 -120.5q-48 -156 -98 -411t-50 -398q0 -114 68 -114q24 0 39 9.5t39 33.5q20 20 35 20q12 0 20 -9.5t8 -19.5q0 -22 -32 -65q-42 -54 -108 -94.5t-152 -40.5q-98 0 -148.5 61t-50.5 166q0 134 49 379q-75 0 -123 -34t-88 -109 q-98 -186 -150 -259q-116 -162 -267 -200q-55 -14 -117 -14q-140 0 -231 79t-91 207zM969 725h133q37 160 153 418q-83 -67 -164 -194t-122 -224zM981 1550q0 32 38 79.5t62 47.5q34 0 47 -39q46 -136 168 -208q31 -17 31 -39q0 -11 -9.5 -20t-25.5 -9q-52 0 -130 28 t-134 78q-29 24 -38 40.5t-9 41.5z" />
<glyph unicode="&#xc1;" horiz-adv-x="1476" d="M0 266q0 55 21.5 103t54.5 79.5t72.5 54.5t74.5 33.5t62 10.5q28 0 28 -27q0 -10 -18.5 -42t-18.5 -58q0 -50 29 -78.5t90 -28.5q43 0 86.5 27t92.5 89.5t75 101t77 122.5q2 3 2.5 4t2 3t2.5 4q23 38 83 138t92 151t82.5 118t94.5 107q-128 41 -266 41 q-85 0 -141.5 -45.5t-56.5 -104.5q0 -44 23 -67t63 -23q19 0 37.5 10t23.5 10q9 0 16 -6t7 -16q0 -65 -71.5 -136t-170.5 -71q-98 0 -166 66.5t-68 171.5q0 106 63.5 187.5t164 122t217.5 40.5q124 0 265 -27.5t177 -27.5q74 0 139 8t103.5 16t48.5 8q37 0 37 -35 q0 -11 -9.5 -30.5t-30.5 -70t-42 -120.5q-48 -156 -98 -411t-50 -398q0 -114 68 -114q24 0 39 9.5t39 33.5q20 20 35 20q12 0 20 -9.5t8 -19.5q0 -22 -32 -65q-42 -54 -108 -94.5t-152 -40.5q-98 0 -148.5 61t-50.5 166q0 134 49 379q-75 0 -123 -34t-88 -109 q-98 -186 -150 -259q-116 -162 -267 -200q-55 -14 -117 -14q-140 0 -231 79t-91 207zM969 725h133q37 160 153 418q-83 -67 -164 -194t-122 -224zM1159 1405q0 22 31 39q122 72 168 209q13 39 47 39q24 0 62 -47.5t38 -79.5q0 -25 -9 -41.5t-38 -40.5q-57 -50 -135 -78.5 t-129 -28.5q-16 0 -25.5 9t-9.5 20z" />
<glyph unicode="&#xc2;" horiz-adv-x="1476" d="M0 266q0 55 21.5 103t54.5 79.5t72.5 54.5t74.5 33.5t62 10.5q28 0 28 -27q0 -10 -18.5 -42t-18.5 -58q0 -50 29 -78.5t90 -28.5q43 0 86.5 27t92.5 89.5t75 101t77 122.5q2 3 2.5 4t2 3t2.5 4q23 38 83 138t92 151t82.5 118t94.5 107q-128 41 -266 41 q-85 0 -141.5 -45.5t-56.5 -104.5q0 -44 23 -67t63 -23q19 0 37.5 10t23.5 10q9 0 16 -6t7 -16q0 -65 -71.5 -136t-170.5 -71q-98 0 -166 66.5t-68 171.5q0 106 63.5 187.5t164 122t217.5 40.5q124 0 265 -27.5t177 -27.5q74 0 139 8t103.5 16t48.5 8q37 0 37 -35 q0 -11 -9.5 -30.5t-30.5 -70t-42 -120.5q-48 -156 -98 -411t-50 -398q0 -114 68 -114q24 0 39 9.5t39 33.5q20 20 35 20q12 0 20 -9.5t8 -19.5q0 -22 -32 -65q-42 -54 -108 -94.5t-152 -40.5q-98 0 -148.5 61t-50.5 166q0 134 49 379q-75 0 -123 -34t-88 -109 q-98 -186 -150 -259q-116 -162 -267 -200q-55 -14 -117 -14q-140 0 -231 79t-91 207zM926 1415q0 26 30 47q47 34 73 58t85 88q5 5 14.5 16.5t13.5 16.5t13 12.5t16 11t18 6t23 2.5t21.5 -1.5t16.5 -6t11.5 -7.5t9.5 -12.5t7 -13t7 -16.5t7 -17q7 -17 16 -32.5t15.5 -25.5 t16.5 -23t15.5 -19t17.5 -19t16 -18q7 -8 17 -17t13.5 -14.5t3.5 -13.5q0 -12 -9.5 -21.5t-24.5 -9.5q-25 0 -75.5 26.5t-123.5 96.5q-14 -8 -55.5 -32.5t-60 -35.5t-47.5 -26.5t-45 -22t-24 -6.5q-14 0 -23 9.5t-9 19.5zM969 725h133q37 160 153 418q-83 -67 -164 -194 t-122 -224z" />
<glyph unicode="&#xc3;" horiz-adv-x="1476" d="M0 266q0 55 21.5 103t54.5 79.5t72.5 54.5t74.5 33.5t62 10.5q28 0 28 -27q0 -10 -18.5 -42t-18.5 -58q0 -50 29 -78.5t90 -28.5q43 0 86.5 27t92.5 89.5t75 101t77 122.5q2 3 2.5 4t2 3t2.5 4q23 38 83 138t92 151t82.5 118t94.5 107q-128 41 -266 41 q-85 0 -141.5 -45.5t-56.5 -104.5q0 -44 23 -67t63 -23q19 0 37.5 10t23.5 10q9 0 16 -6t7 -16q0 -65 -71.5 -136t-170.5 -71q-98 0 -166 66.5t-68 171.5q0 106 63.5 187.5t164 122t217.5 40.5q124 0 265 -27.5t177 -27.5q74 0 139 8t103.5 16t48.5 8q37 0 37 -35 q0 -11 -9.5 -30.5t-30.5 -70t-42 -120.5q-48 -156 -98 -411t-50 -398q0 -114 68 -114q24 0 39 9.5t39 33.5q20 20 35 20q12 0 20 -9.5t8 -19.5q0 -22 -32 -65q-42 -54 -108 -94.5t-152 -40.5q-98 0 -148.5 61t-50.5 166q0 134 49 379q-75 0 -123 -34t-88 -109 q-98 -186 -150 -259q-116 -162 -267 -200q-55 -14 -117 -14q-140 0 -231 79t-91 207zM922 1442q0 17 20 45q30 43 77 77.5t95 34.5q46 0 120 -36.5t124 -36.5q36 0 82 22.5t51 22.5q10 0 18.5 -5.5t8.5 -15.5q0 -15 -13 -37q-43 -60 -84.5 -94.5t-95.5 -34.5 q-47 0 -130.5 36t-129.5 36q-28 0 -71 -19.5t-48 -19.5q-10 0 -17 7t-7 18zM969 725h133q37 160 153 418q-83 -67 -164 -194t-122 -224z" />
<glyph unicode="&#xc4;" horiz-adv-x="1476" d="M0 266q0 55 21.5 103t54.5 79.5t72.5 54.5t74.5 33.5t62 10.5q28 0 28 -27q0 -10 -18.5 -42t-18.5 -58q0 -50 29 -78.5t90 -28.5q43 0 86.5 27t92.5 89.5t75 101t77 122.5q2 3 2.5 4t2 3t2.5 4q23 38 83 138t92 151t82.5 118t94.5 107q-128 41 -266 41 q-85 0 -141.5 -45.5t-56.5 -104.5q0 -44 23 -67t63 -23q19 0 37.5 10t23.5 10q9 0 16 -6t7 -16q0 -65 -71.5 -136t-170.5 -71q-98 0 -166 66.5t-68 171.5q0 106 63.5 187.5t164 122t217.5 40.5q124 0 265 -27.5t177 -27.5q74 0 139 8t103.5 16t48.5 8q37 0 37 -35 q0 -11 -9.5 -30.5t-30.5 -70t-42 -120.5q-48 -156 -98 -411t-50 -398q0 -114 68 -114q24 0 39 9.5t39 33.5q20 20 35 20q12 0 20 -9.5t8 -19.5q0 -22 -32 -65q-42 -54 -108 -94.5t-152 -40.5q-98 0 -148.5 61t-50.5 166q0 134 49 379q-75 0 -123 -34t-88 -109 q-98 -186 -150 -259q-116 -162 -267 -200q-55 -14 -117 -14q-140 0 -231 79t-91 207zM969 725h133q37 160 153 418q-83 -67 -164 -194t-122 -224zM1024 1489q0 52 41 100.5t94 48.5q36 0 59 -27t23 -67q0 -55 -40.5 -103t-98.5 -48q-34 0 -56 27.5t-22 68.5zM1307 1489 q0 52 41 100.5t94 48.5q36 0 59 -27t23 -67q0 -55 -41 -103t-99 -48q-34 0 -55.5 27.5t-21.5 68.5z" />
<glyph unicode="&#xc5;" horiz-adv-x="1476" d="M0 266q0 55 21.5 103t54.5 79.5t72.5 54.5t74.5 33.5t62 10.5q28 0 28 -27q0 -10 -18.5 -42t-18.5 -58q0 -50 29 -78.5t90 -28.5q43 0 86.5 27t92.5 89.5t75 101t77 122.5q2 3 2.5 4t2 3t2.5 4q23 38 83 138t92 151t82.5 118t94.5 107q-128 41 -266 41 q-85 0 -141.5 -45.5t-56.5 -104.5q0 -44 23 -67t63 -23q19 0 37.5 10t23.5 10q9 0 16 -6t7 -16q0 -65 -71.5 -136t-170.5 -71q-98 0 -166 66.5t-68 171.5q0 106 63.5 187.5t164 122t217.5 40.5q124 0 265 -27.5t177 -27.5q74 0 139 8t103.5 16t48.5 8q37 0 37 -35 q0 -11 -9.5 -30.5t-30.5 -70t-42 -120.5q-48 -156 -98 -411t-50 -398q0 -114 68 -114q24 0 39 9.5t39 33.5q20 20 35 20q12 0 20 -9.5t8 -19.5q0 -22 -32 -65q-42 -54 -108 -94.5t-152 -40.5q-98 0 -148.5 61t-50.5 166q0 134 49 379q-75 0 -123 -34t-88 -109 q-98 -186 -150 -259q-116 -162 -267 -200q-55 -14 -117 -14q-140 0 -231 79t-91 207zM969 725h133q37 160 153 418q-83 -67 -164 -194t-122 -224zM1049 1569q0 85 58.5 144t143.5 59t144 -59t59 -144t-59 -144t-144 -59t-143.5 59t-58.5 144zM1165 1569q0 -35 25.5 -60.5 t60.5 -25.5t58.5 25t23.5 61q0 35 -23.5 58.5t-58.5 23.5q-36 0 -61 -23.5t-25 -58.5z" />
<glyph unicode="&#xc6;" horiz-adv-x="1953" d="M0 266q0 55 21.5 103t54.5 79.5t72.5 54.5t74.5 33.5t62 10.5q28 0 28 -27q0 -10 -18.5 -42t-18.5 -58q0 -41 27 -68.5t86 -27.5q156 0 365 340q23 38 83 138t92 151t82.5 118t94.5 107q-128 41 -266 41q-85 0 -142 -45.5t-57 -104.5q0 -44 23 -67t63 -23q19 0 37.5 10 t23.5 10q9 0 16 -6t7 -16q0 -65 -71.5 -136t-170.5 -71q-98 0 -165.5 66.5t-67.5 171.5q0 107 63.5 188t163.5 121.5t217 40.5q124 0 265.5 -27.5t177.5 -27.5q94 0 158.5 8.5t92.5 19t74 19t107 8.5q136 0 209 -56t73 -161q0 -78 -38.5 -128t-102.5 -50q-41 0 -70.5 25 t-29.5 65q0 27 13.5 47.5t29.5 31t29.5 27.5t13.5 37q0 51 -70 51q-82 0 -135 -77.5t-53 -188.5q0 -40 11 -70t21 -41l11 -10q38 17 110 17q49 0 79 -26t30 -67q0 -51 -37 -81.5t-96 -30.5q-76 0 -166 43q-35 -26 -74 -106t-39 -167q0 -106 66 -166.5t166 -60.5 q49 0 94.5 22t70.5 45t54 58q36 41 49 41q11 0 19 -6.5t8 -16.5q0 -13 -17 -55q-16 -40 -37.5 -77t-63.5 -85.5t-93 -83.5t-129.5 -59.5t-169.5 -24.5q-84 0 -151 26.5t-108 71.5t-62 100.5t-21 117.5q0 117 38 307q-75 0 -122.5 -34t-87.5 -109q-33 -62 -56.5 -104.5 t-58.5 -96t-66 -89.5t-73.5 -73.5t-86 -59.5t-98.5 -36t-116 -14q-140 0 -231 79t-91 207zM989 725h133q36 155 154 418q-83 -67 -164.5 -194t-122.5 -224z" />
<glyph unicode="&#xc7;" horiz-adv-x="976" d="M0 446q0 149 40 290t109 252t157.5 195.5t190 129.5t201.5 45q123 0 201 -68t78 -190q0 -86 -38.5 -142.5t-98.5 -56.5q-43 0 -72 25t-29 67q0 31 14.5 55t31.5 36t31.5 34t14.5 51q0 35 -26.5 54.5t-65.5 19.5q-103 0 -195 -102t-148 -274t-56 -365q0 -140 74 -213.5 t190 -73.5q38 0 74 12.5t68.5 37.5t48.5 40t41 41q32 35 47 35q11 0 18.5 -6.5t7.5 -16.5q0 -18 -20 -63q-15 -33 -41.5 -71.5t-70.5 -84t-95 -81.5t-119 -60.5t-139 -24.5q-198 0 -311 114.5t-113 358.5zM205 -285q0 25 18.5 46.5t42.5 21.5q20 0 33.5 -12.5t31.5 -25.5 t48 -13q57 0 98 32.5t41 59.5q-85 -23 -147 -23q-20 0 -32.5 13t-12.5 28q0 21 6 58.5t12 64.5l6 27h92q0 -76 31 -76q15 0 45 3t41 3q47 0 47 -55q0 -35 -17.5 -75t-50.5 -76.5t-88 -60.5t-122 -24q-54 0 -88.5 23t-34.5 61z" />
<glyph unicode="&#xc8;" horiz-adv-x="815" d="M0 350q0 77 22.5 145t54.5 113t77 83.5t78.5 58t70.5 36.5q-106 109 -106 234q0 136 123 237t282 101q136 0 209.5 -56t73.5 -161q0 -78 -39 -128t-103 -50q-41 0 -70.5 25t-29.5 65q0 27 13.5 47.5t29.5 31t29.5 27.5t13.5 37q0 51 -70 51q-82 0 -135 -77.5t-53 -188.5 q0 -25 4.5 -47t10.5 -35t12.5 -22.5t11.5 -12.5l4 -4q39 17 111 17q49 0 78.5 -25.5t29.5 -67.5q0 -51 -37 -81.5t-96 -30.5q-76 0 -166 43q-35 -26 -73.5 -106t-38.5 -167q0 -106 66 -166.5t165 -60.5q49 0 94.5 22t70.5 45t54 58q36 41 49 41q11 0 19 -6.5t8 -16.5 q0 -13 -17 -55q-17 -40 -36.5 -77t-57.5 -85.5t-82.5 -83.5t-111 -59.5t-142.5 -24.5q-171 0 -286 108t-115 269zM477 1589q0 32 38.5 79.5t62.5 47.5q34 0 47 -39q46 -137 168 -209q18 -10 24 -18t6 -20q0 -11 -9.5 -20t-25.5 -9q-52 0 -130 28t-134 78q-29 24 -38 40.5 t-9 41.5z" />
<glyph unicode="&#xc9;" horiz-adv-x="815" d="M0 350q0 77 22.5 145t54.5 113t77 83.5t78.5 58t70.5 36.5q-106 109 -106 234q0 136 123 237t282 101q136 0 209.5 -56t73.5 -161q0 -78 -39 -128t-103 -50q-41 0 -70.5 25t-29.5 65q0 27 13.5 47.5t29.5 31t29.5 27.5t13.5 37q0 51 -70 51q-82 0 -135 -77.5t-53 -188.5 q0 -25 4.5 -47t10.5 -35t12.5 -22.5t11.5 -12.5l4 -4q39 17 111 17q49 0 78.5 -25.5t29.5 -67.5q0 -51 -37 -81.5t-96 -30.5q-76 0 -166 43q-35 -26 -73.5 -106t-38.5 -167q0 -106 66 -166.5t165 -60.5q49 0 94.5 22t70.5 45t54 58q36 41 49 41q11 0 19 -6.5t8 -16.5 q0 -13 -17 -55q-17 -40 -36.5 -77t-57.5 -85.5t-82.5 -83.5t-111 -59.5t-142.5 -24.5q-171 0 -286 108t-115 269zM500 1432q0 12 6 20t24 18q122 72 168 209q13 39 47 39q24 0 62.5 -47.5t38.5 -79.5q0 -25 -9 -41.5t-38 -40.5q-56 -50 -134 -78t-130 -28q-16 0 -25.5 9 t-9.5 20z" />
<glyph unicode="&#xca;" horiz-adv-x="815" d="M0 350q0 77 22.5 145t54.5 113t77 83.5t78.5 58t70.5 36.5q-106 109 -106 234q0 136 123 237t282 101q136 0 209.5 -56t73.5 -161q0 -78 -39 -128t-103 -50q-41 0 -70.5 25t-29.5 65q0 27 13.5 47.5t29.5 31t29.5 27.5t13.5 37q0 51 -70 51q-82 0 -135 -77.5t-53 -188.5 q0 -25 4.5 -47t10.5 -35t12.5 -22.5t11.5 -12.5l4 -4q39 17 111 17q49 0 78.5 -25.5t29.5 -67.5q0 -51 -37 -81.5t-96 -30.5q-76 0 -166 43q-35 -26 -73.5 -106t-38.5 -167q0 -106 66 -166.5t165 -60.5q49 0 94.5 22t70.5 45t54 58q36 41 49 41q11 0 19 -6.5t8 -16.5 q0 -13 -17 -55q-17 -40 -36.5 -77t-57.5 -85.5t-82.5 -83.5t-111 -59.5t-142.5 -24.5q-171 0 -286 108t-115 269zM369 1407q0 26 30 47q48 34 74 58.5t84 86.5q4 5 16.5 19.5t17.5 19.5t15.5 13t22 11t26.5 3q12 0 21.5 -1.5t16.5 -6t11.5 -7.5t9.5 -12.5t7 -13t7 -16.5 t7 -17q7 -17 16 -32.5t15 -25.5t17 -23.5t15 -18.5t17 -19.5t16 -17.5q7 -8 17 -17t14 -14.5t4 -13.5q0 -12 -10 -21.5t-25 -9.5q-69 0 -198 123q-14 -8 -55.5 -32.5t-60 -35.5t-47.5 -26.5t-45 -22t-24 -6.5q-14 0 -23 9.5t-9 19.5z" />
<glyph unicode="&#xcb;" horiz-adv-x="815" d="M0 350q0 77 22.5 145t54.5 113t77 83.5t78.5 58t70.5 36.5q-106 109 -106 234q0 136 123 237t282 101q136 0 209.5 -56t73.5 -161q0 -78 -39 -128t-103 -50q-41 0 -70.5 25t-29.5 65q0 27 13.5 47.5t29.5 31t29.5 27.5t13.5 37q0 51 -70 51q-82 0 -135 -77.5t-53 -188.5 q0 -25 4.5 -47t10.5 -35t12.5 -22.5t11.5 -12.5l4 -4q39 17 111 17q49 0 78.5 -25.5t29.5 -67.5q0 -51 -37 -81.5t-96 -30.5q-76 0 -166 43q-35 -26 -73.5 -106t-38.5 -167q0 -106 66 -166.5t165 -60.5q49 0 94.5 22t70.5 45t54 58q36 41 49 41q11 0 19 -6.5t8 -16.5 q0 -13 -17 -55q-17 -40 -36.5 -77t-57.5 -85.5t-82.5 -83.5t-111 -59.5t-142.5 -24.5q-171 0 -286 108t-115 269zM373 1495q0 52 41 101t94 49q36 0 59 -27.5t23 -67.5q0 -55 -40.5 -103t-98.5 -48q-34 0 -56 27.5t-22 68.5zM655 1495q0 52 41.5 101t94.5 49q36 0 58.5 -27 t22.5 -68q0 -55 -40.5 -103t-98.5 -48q-34 0 -56 27.5t-22 68.5z" />
<glyph unicode="&#xcc;" horiz-adv-x="972" d="M0 279q0 69 28.5 127t74.5 94t100 55.5t108 19.5q70 0 70 -26q0 -22 -27 -29q-38 -11 -68 -48t-30 -81q0 -53 35 -87t90 -34q67 0 116 45.5t76.5 119.5t46.5 164.5t31.5 184.5t25 175t33 141t50.5 78q-293 -108 -293 -312q0 -74 49 -108q2 -1 6 -3.5t6 -3.5t5 -3t4 -3 t3 -2.5t2.5 -3t2 -3t1.5 -3t0.5 -4t0.5 -4.5q0 -12 -16.5 -21.5t-45.5 -9.5q-62 0 -123.5 27t-106 81.5t-44.5 123.5q0 36 13.5 68.5t33 56.5t55 48.5t65.5 40.5t79.5 35.5t81.5 30.5t86.5 29t81.5 27q31 11 65.5 39.5t52.5 33.5q82 23 127 23q41 0 41 -31q0 -4 -0.5 -8.5 t-2.5 -11t-4 -12t-6.5 -16t-8 -19t-10.5 -24.5t-13 -30q-16 -38 -27.5 -117.5t-18 -171t-21.5 -200.5t-34.5 -212t-59.5 -200.5t-94.5 -169.5t-142.5 -116t-200 -44q-151 0 -250.5 86t-99.5 218zM608 1589q0 32 38.5 79.5t62.5 47.5q34 0 47 -39q46 -137 168 -209 q18 -10 24 -18t6 -20t-9 -20.5t-25 -8.5q-52 0 -130.5 28.5t-134.5 77.5q-29 24 -38 40.5t-9 41.5z" />
<glyph unicode="&#xcd;" horiz-adv-x="972" d="M0 279q0 69 28.5 127t74.5 94t100 55.5t108 19.5q70 0 70 -26q0 -22 -27 -29q-38 -11 -68 -48t-30 -81q0 -53 35 -87t90 -34q67 0 116 45.5t76.5 119.5t46.5 164.5t31.5 184.5t25 175t33 141t50.5 78q-293 -108 -293 -312q0 -74 49 -108q2 -1 6 -3.5t6 -3.5t5 -3t4 -3 t3 -2.5t2.5 -3t2 -3t1.5 -3t0.5 -4t0.5 -4.5q0 -12 -16.5 -21.5t-45.5 -9.5q-62 0 -123.5 27t-106 81.5t-44.5 123.5q0 36 13.5 68.5t33 56.5t55 48.5t65.5 40.5t79.5 35.5t81.5 30.5t86.5 29t81.5 27q31 11 65.5 39.5t52.5 33.5q82 23 127 23q41 0 41 -31q0 -4 -0.5 -8.5 t-2.5 -11t-4 -12t-6.5 -16t-8 -19t-10.5 -24.5t-13 -30q-16 -38 -27.5 -117.5t-18 -171t-21.5 -200.5t-34.5 -212t-59.5 -200.5t-94.5 -169.5t-142.5 -116t-200 -44q-151 0 -250.5 86t-99.5 218zM641 1397q0 22 31 39q122 72 168 209q13 38 47 38q24 0 62 -47.5t38 -79.5 q0 -25 -9 -40.5t-38 -40.5q-57 -50 -135 -78.5t-129 -28.5q-16 0 -25.5 9t-9.5 20z" />
<glyph unicode="&#xce;" horiz-adv-x="972" d="M0 279q0 69 28.5 127t74.5 94t100 55.5t108 19.5q70 0 70 -26q0 -22 -27 -29q-38 -11 -68 -48t-30 -81q0 -53 35 -87t90 -34q67 0 116 45.5t76.5 119.5t46.5 164.5t31.5 184.5t25 175t33 141t50.5 78q-293 -108 -293 -312q0 -74 49 -108q2 -1 6 -3.5t6 -3.5t5 -3t4 -3 t3 -2.5t2.5 -3t2 -3t1.5 -3t0.5 -4t0.5 -4.5q0 -12 -16.5 -21.5t-45.5 -9.5q-62 0 -123.5 27t-106 81.5t-44.5 123.5q0 36 13.5 68.5t33 56.5t55 48.5t65.5 40.5t79.5 35.5t81.5 30.5t86.5 29t81.5 27q31 11 65.5 39.5t52.5 33.5q82 23 127 23q41 0 41 -31q0 -4 -0.5 -8.5 t-2.5 -11t-4 -12t-6.5 -16t-8 -19t-10.5 -24.5t-13 -30q-16 -38 -27.5 -117.5t-18 -171t-21.5 -200.5t-34.5 -212t-59.5 -200.5t-94.5 -169.5t-142.5 -116t-200 -44q-151 0 -250.5 86t-99.5 218zM561 1419q0 25 31 47q47 34 73 58t85 88q5 5 14.5 16.5t13.5 16.5t13 12.5 t16 11t18 6t23 2.5t21 -1.5t16.5 -6t12 -7t9.5 -12t7 -12.5t7.5 -17t6.5 -17q6 -15 12.5 -27.5t14.5 -24.5l13 -19.5t14.5 -19t13 -16t14.5 -16.5t14 -15q7 -8 17 -17t14 -14.5t4 -13.5q0 -12 -10 -21t-25 -9q-71 0 -199 122q-14 -8 -40 -23.5t-42 -25t-38.5 -22.5 t-37.5 -20.5t-30.5 -15.5t-26 -11.5t-16.5 -3.5q-14 0 -23.5 9t-9.5 19z" />
<glyph unicode="&#xcf;" horiz-adv-x="972" d="M0 279q0 69 28.5 127t74.5 94t100 55.5t108 19.5q70 0 70 -26q0 -22 -27 -29q-38 -11 -68 -48t-30 -81q0 -53 35 -87t90 -34q67 0 116 45.5t76.5 119.5t46.5 164.5t31.5 184.5t25 175t33 141t50.5 78q-293 -108 -293 -312q0 -74 49 -108q2 -1 6 -3.5t6 -3.5t5 -3t4 -3 t3 -2.5t2.5 -3t2 -3t1.5 -3t0.5 -4t0.5 -4.5q0 -12 -16.5 -21.5t-45.5 -9.5q-62 0 -123.5 27t-106 81.5t-44.5 123.5q0 36 13.5 68.5t33 56.5t55 48.5t65.5 40.5t79.5 35.5t81.5 30.5t86.5 29t81.5 27q31 11 65.5 39.5t52.5 33.5q82 23 127 23q41 0 41 -31q0 -4 -0.5 -8.5 t-2.5 -11t-4 -12t-6.5 -16t-8 -19t-10.5 -24.5t-13 -30q-16 -38 -27.5 -117.5t-18 -171t-21.5 -200.5t-34.5 -212t-59.5 -200.5t-94.5 -169.5t-142.5 -116t-200 -44q-151 0 -250.5 86t-99.5 218zM594 1491q0 52 41 100.5t94 48.5q36 0 59 -27t23 -67q0 -55 -40.5 -103 t-98.5 -48q-34 0 -56 27.5t-22 68.5zM877 1491q0 52 41 100.5t94 48.5q36 0 59 -27t23 -67q0 -55 -41 -103t-99 -48q-34 0 -55.5 27.5t-21.5 68.5z" />
<glyph unicode="&#xd0;" horiz-adv-x="1531" d="M0 811q0 156 127 283t329.5 195.5t430.5 68.5q101 0 189 -17.5t165 -57t132 -99t86.5 -149t31.5 -201.5q0 -258 -70 -435q-80 -200 -215 -304.5t-297 -104.5q-60 0 -124 18t-108 36.5t-56 18.5q-22 0 -100.5 -36.5t-108.5 -36.5q-33 0 -33 26q0 11 8 24t25.5 43.5 t33.5 72.5q20 58 64 272h-92q-31 0 -31 33q0 26 21 70t45 44h86q85 412 96 455q12 50 29 86.5t39.5 62.5t38 39.5t42.5 32.5q-96 -6 -184.5 -42.5t-148 -88t-94.5 -110.5t-35 -111q0 -96 84 -96q16 0 41 7t28 7q21 0 21 -22t-21 -56.5t-56 -69t-89 -59t-111 -24.5 q-97 0 -158 60t-61 165zM764 188q0 -79 84 -79q88 0 161 87.5t117 233.5q66 216 66 469q0 165 -49 247t-129 95q-47 -58 -92 -221q-38 -130 -99 -445h97q22 0 29 -5.5t7 -22.5q0 -26 -23.5 -72.5t-47.5 -46.5h-86q-35 -215 -35 -240z" />
<glyph unicode="&#xd1;" horiz-adv-x="1478" d="M0 180q0 103 81.5 182.5t149.5 79.5q29 0 29 -24q0 -10 -7 -36t-7 -52q0 -43 30 -74t89 -31q67 0 143 84.5t136.5 210t101 280.5t40.5 287q0 156 -122 156q-83 0 -158.5 -111t-75.5 -235q0 -48 23.5 -73t58.5 -25q15 0 38 8t28 8q20 0 20 -22q0 -24 -20 -58.5t-53 -68.5 t-83.5 -58t-103.5 -24q-94 0 -154.5 63.5t-60.5 169.5q0 100 37 189t98 152t138.5 109t158.5 68.5t158 22.5q108 0 185 -26.5t125 -80.5t75 -116t47 -152q28 -120 37 -393q51 255 91 402.5t93 252.5q28 57 65 85t95 28q80 0 125 -36t45 -73q0 -30 -31 -30q-40 0 -66 -10.5 t-55 -45.5q-78 -95 -180.5 -429t-138.5 -675q-3 -59 -54 -59h-202q-18 0 -28 10t-11 35q-6 98 -8.5 358.5t-18.5 384.5h-10q-61 -267 -108 -399q-172 -476 -490 -477q-133 0 -214 78t-81 190zM872 1442q0 16 21 45q30 43 77 77.5t95 34.5q47 0 121 -36.5t123 -36.5 q36 0 82 22.5t51 22.5q10 0 18 -5.5t8 -15.5q0 -17 -12 -37q-43 -60 -84.5 -94.5t-95.5 -34.5q-47 0 -130.5 36t-129.5 36q-28 0 -71 -19.5t-48 -19.5q-10 0 -17.5 7t-7.5 18z" />
<glyph unicode="&#xd2;" horiz-adv-x="1159" d="M0 477q0 -122 35.5 -218.5t99.5 -157.5t148.5 -92.5t185.5 -31.5q110 0 216 51.5t190 141.5t148 205t99 248.5t35 265.5q0 157 -73 239t-193 82q-116 0 -209 -65q-52 -35 -84.5 -83t-32.5 -75q0 -22 19 -22q10 0 39 16q57 31 116 31q71 0 114.5 -49t43.5 -162 q0 -152 -45 -300t-128 -247.5t-179 -99.5q-85 0 -137 88t-52 264q0 182 39.5 330.5t107 245t155.5 148.5t188 52q30 0 62 -2t36 -2q27 0 27 20q0 25 -48 42.5t-139 17.5q-71 0 -145.5 -16t-151.5 -50.5t-147.5 -84.5t-133 -123t-108 -160.5t-72 -202.5t-26.5 -244zM575 1602 q0 32 38.5 79.5t62.5 47.5q34 0 47 -39q46 -137 168 -209q31 -17 31 -39q0 -11 -9.5 -20t-25.5 -9q-51 0 -129 28.5t-135 78.5q-29 25 -38.5 41t-9.5 41z" />
<glyph unicode="&#xd3;" horiz-adv-x="1159" d="M0 477q0 -122 35.5 -218.5t99.5 -157.5t148.5 -92.5t185.5 -31.5q110 0 216 51.5t190 141.5t148 205t99 248.5t35 265.5q0 157 -73 239t-193 82q-116 0 -209 -65q-52 -35 -84.5 -83t-32.5 -75q0 -22 19 -22q10 0 39 16q57 31 116 31q71 0 114.5 -49t43.5 -162 q0 -152 -45 -300t-128 -247.5t-179 -99.5q-85 0 -137 88t-52 264q0 182 39.5 330.5t107 245t155.5 148.5t188 52q30 0 62 -2t36 -2q27 0 27 20q0 25 -48 42.5t-139 17.5q-71 0 -145.5 -16t-151.5 -50.5t-147.5 -84.5t-133 -123t-108 -160.5t-72 -202.5t-26.5 -244zM573 1438 q0 22 31 39q122 72 168 209q13 38 47 38q24 0 62.5 -47.5t38.5 -79.5q0 -25 -9.5 -40.5t-38.5 -40.5q-57 -50 -135 -78.5t-129 -28.5q-16 0 -25.5 9t-9.5 20z" />
<glyph unicode="&#xd4;" horiz-adv-x="1159" d="M0 477q0 -122 35.5 -218.5t99.5 -157.5t148.5 -92.5t185.5 -31.5q110 0 216 51.5t190 141.5t148 205t99 248.5t35 265.5q0 157 -73 239t-193 82q-116 0 -209 -65q-52 -35 -84.5 -83t-32.5 -75q0 -22 19 -22q10 0 39 16q57 31 116 31q71 0 114.5 -49t43.5 -162 q0 -152 -45 -300t-128 -247.5t-179 -99.5q-85 0 -137 88t-52 264q0 182 39.5 330.5t107 245t155.5 148.5t188 52q30 0 62 -2t36 -2q27 0 27 20q0 25 -48 42.5t-139 17.5q-71 0 -145.5 -16t-151.5 -50.5t-147.5 -84.5t-133 -123t-108 -160.5t-72 -202.5t-26.5 -244zM508 1419 q0 25 31 47q46 33 71 56.5t86 89.5q4 5 14 17t14 16t13.5 12t16.5 11t18 6t23 3q14 0 24.5 -3t17 -5.5t13 -13t8 -13t8.5 -19t8 -19.5q7 -17 16 -32.5t15 -25.5t17 -24t15.5 -19t17.5 -19.5t16 -17.5q7 -8 17 -17t14 -14.5t4 -13.5q0 -12 -10 -21t-25 -9q-71 0 -199 122 q-14 -8 -40 -23.5t-42 -25t-38.5 -22.5t-37.5 -20.5t-30.5 -15.5t-26 -11.5t-16.5 -3.5q-14 0 -23.5 9t-9.5 19z" />
<glyph unicode="&#xd5;" horiz-adv-x="1159" d="M0 477q0 -122 35.5 -218.5t99.5 -157.5t148.5 -92.5t185.5 -31.5q110 0 216 51.5t190 141.5t148 205t99 248.5t35 265.5q0 157 -73 239t-193 82q-116 0 -209 -65q-52 -35 -84.5 -83t-32.5 -75q0 -22 19 -22q10 0 39 16q57 31 116 31q71 0 114.5 -49t43.5 -162 q0 -152 -45 -300t-128 -247.5t-179 -99.5q-85 0 -137 88t-52 264q0 182 39.5 330.5t107 245t155.5 148.5t188 52q30 0 62 -2t36 -2q27 0 27 20q0 25 -48 42.5t-139 17.5q-71 0 -145.5 -16t-151.5 -50.5t-147.5 -84.5t-133 -123t-108 -160.5t-72 -202.5t-26.5 -244zM477 1479 q0 16 21 45q30 43 77 77.5t95 34.5q46 0 120 -36.5t123 -36.5q36 0 82.5 22.5t51.5 22.5q10 0 18 -5.5t8 -15.5q0 -17 -12 -37q-43 -60 -84.5 -94.5t-95.5 -34.5q-47 0 -130.5 36t-129.5 36q-28 0 -71 -19.5t-48 -19.5q-10 0 -17.5 7t-7.5 18z" />
<glyph unicode="&#xd6;" horiz-adv-x="1159" d="M0 477q0 -122 35.5 -218.5t99.5 -157.5t148.5 -92.5t185.5 -31.5q110 0 216 51.5t190 141.5t148 205t99 248.5t35 265.5q0 157 -73 239t-193 82q-116 0 -209 -65q-52 -35 -84.5 -83t-32.5 -75q0 -22 19 -22q10 0 39 16q57 31 116 31q71 0 114.5 -49t43.5 -162 q0 -152 -45 -300t-128 -247.5t-179 -99.5q-85 0 -137 88t-52 264q0 182 39.5 330.5t107 245t155.5 148.5t188 52q30 0 62 -2t36 -2q27 0 27 20q0 25 -48 42.5t-139 17.5q-71 0 -145.5 -16t-151.5 -50.5t-147.5 -84.5t-133 -123t-108 -160.5t-72 -202.5t-26.5 -244zM547 1516 q0 52 41 100.5t94 48.5q36 0 59 -27t23 -67q0 -55 -40.5 -103.5t-98.5 -48.5q-34 0 -56 28t-22 69zM829 1516q0 52 41.5 100.5t94.5 48.5q36 0 59 -27t23 -67q0 -55 -41 -103.5t-99 -48.5q-34 0 -56 28t-22 69z" />
<glyph unicode="&#xd7;" horiz-adv-x="716" d="M35 340q0 12 6 18l213 213l-209 211q-8 8 -8 23q0 30 31 61q33 29 59 29q12 0 18 -6l213 -213l211 211q10 10 25 10q26 0 57 -31q33 -33 33 -61q0 -13 -6 -19l-215 -215l211 -211q10 -10 10 -24q0 -26 -31 -57q-33 -33 -61 -33q-13 0 -19 6l-215 215l-211 -209 q-8 -8 -22 -8q-31 0 -62 31q-28 31 -28 59z" />
<glyph unicode="&#xd8;" horiz-adv-x="1159" d="M0 477q0 129 26.5 244t72 202.5t108 160.5t133 123t147.5 84.5t151.5 50.5t145.5 16q29 0 43 -2l13 30q5 12 18 21.5t27 9.5q55 0 96 -12t41 -27q0 -28 -18 -73l-43 -103q91 -23 143.5 -102t52.5 -211t-35 -265.5t-99 -248.5t-148 -205t-190 -141.5t-216 -51.5 q-12 0 -57 5q-1 -2 -5 -10.5t-4 -10.5q-9 -29 -45 -29h-65q-22 0 -34.5 1.5t-24 9t-11.5 22.5q0 12 10 35l11 25q-114 54 -179 169t-65 283zM356 506q0 -110 21 -184l299 682q-17 -5 -53 -23q-29 -16 -39 -16q-19 0 -19 22q0 27 32.5 75t84.5 83q47 30 72 41l41 92 q-190 -27 -314.5 -231.5t-124.5 -540.5zM496 162q19 -8 49 -8q96 0 179 99.5t128 247.5t45 300q0 107 -43 160z" />
<glyph unicode="&#xd9;" horiz-adv-x="1613" d="M0 782q0 126 60 236t156 183t214.5 115t237.5 42q151 0 238 -68.5t87 -199.5q0 -89 -26 -201.5t-57 -201.5t-57 -195t-26 -183q0 -43 22.5 -68.5t61.5 -25.5q57 0 115.5 69t126.5 191q47 87 87.5 230t73.5 291.5t48 195.5q14 43 94 80t176 37q39 0 39 -37q0 -10 -26 -55 t-37 -80q-35 -106 -102 -428.5t-68 -438.5q0 -114 67 -114q24 0 39 9.5t39 33.5q20 20 35 20q13 0 21 -9.5t8 -19.5q0 -4 -0.5 -7.5t-1.5 -7t-2 -6.5t-3.5 -7t-3.5 -6t-4.5 -7t-5 -7t-6 -8.5t-6.5 -8.5q-42 -54 -108 -94.5t-152 -40.5q-98 0 -148.5 61t-50.5 166q0 58 4 78 q-28 -44 -53.5 -80t-68 -82.5t-84.5 -77.5t-99.5 -53t-116.5 -22q-109 0 -178.5 70.5t-69.5 176.5q0 67 23 158.5t55.5 184t65 187t55.5 194t23 179.5q0 113 -90 113q-76 0 -150 -60.5t-119 -149.5t-45 -171q0 -48 23.5 -73t58.5 -25q15 0 38 8t28 8q20 0 20 -22 q0 -24 -20 -58.5t-53 -68.5t-83.5 -58t-103.5 -24q-94 0 -154.5 63.5t-60.5 169.5zM956 1493q0 32 38.5 79.5t62.5 47.5q34 0 47 -39q46 -137 168 -209q31 -17 31 -39q0 -11 -9.5 -19.5t-25.5 -8.5q-52 0 -130 28t-134 78q-29 25 -38.5 41t-9.5 41z" />
<glyph unicode="&#xda;" horiz-adv-x="1613" d="M0 782q0 126 60 236t156 183t214.5 115t237.5 42q151 0 238 -68.5t87 -199.5q0 -89 -26 -201.5t-57 -201.5t-57 -195t-26 -183q0 -43 22.5 -68.5t61.5 -25.5q57 0 115.5 69t126.5 191q47 87 87.5 230t73.5 291.5t48 195.5q14 43 94 80t176 37q39 0 39 -37q0 -10 -26 -55 t-37 -80q-35 -106 -102 -428.5t-68 -438.5q0 -114 67 -114q24 0 39 9.5t39 33.5q20 20 35 20q13 0 21 -9.5t8 -19.5q0 -4 -0.5 -7.5t-1.5 -7t-2 -6.5t-3.5 -7t-3.5 -6t-4.5 -7t-5 -7t-6 -8.5t-6.5 -8.5q-42 -54 -108 -94.5t-152 -40.5q-98 0 -148.5 61t-50.5 166q0 58 4 78 q-28 -44 -53.5 -80t-68 -82.5t-84.5 -77.5t-99.5 -53t-116.5 -22q-109 0 -178.5 70.5t-69.5 176.5q0 67 23 158.5t55.5 184t65 187t55.5 194t23 179.5q0 113 -90 113q-76 0 -150 -60.5t-119 -149.5t-45 -171q0 -48 23.5 -73t58.5 -25q15 0 38 8t28 8q20 0 20 -22 q0 -24 -20 -58.5t-53 -68.5t-83.5 -58t-103.5 -24q-94 0 -154.5 63.5t-60.5 169.5zM1069 1272q0 22 31 39q122 72 168 209q13 39 47 39q24 0 62 -47.5t38 -79.5q0 -25 -9 -41.5t-38 -40.5q-57 -50 -135 -78.5t-129 -28.5q-16 0 -25.5 9t-9.5 20z" />
<glyph unicode="&#xdb;" horiz-adv-x="1613" d="M0 782q0 126 60 236t156 183t214.5 115t237.5 42q151 0 238 -68.5t87 -199.5q0 -89 -26 -201.5t-57 -201.5t-57 -195t-26 -183q0 -43 22.5 -68.5t61.5 -25.5q57 0 115.5 69t126.5 191q47 87 87.5 230t73.5 291.5t48 195.5q14 43 94 80t176 37q39 0 39 -37q0 -10 -26 -55 t-37 -80q-35 -106 -102 -428.5t-68 -438.5q0 -114 67 -114q24 0 39 9.5t39 33.5q20 20 35 20q13 0 21 -9.5t8 -19.5q0 -4 -0.5 -7.5t-1.5 -7t-2 -6.5t-3.5 -7t-3.5 -6t-4.5 -7t-5 -7t-6 -8.5t-6.5 -8.5q-42 -54 -108 -94.5t-152 -40.5q-98 0 -148.5 61t-50.5 166q0 58 4 78 q-28 -44 -53.5 -80t-68 -82.5t-84.5 -77.5t-99.5 -53t-116.5 -22q-109 0 -178.5 70.5t-69.5 176.5q0 67 23 158.5t55.5 184t65 187t55.5 194t23 179.5q0 113 -90 113q-76 0 -150 -60.5t-119 -149.5t-45 -171q0 -48 23.5 -73t58.5 -25q15 0 38 8t28 8q20 0 20 -22 q0 -24 -20 -58.5t-53 -68.5t-83.5 -58t-103.5 -24q-94 0 -154.5 63.5t-60.5 169.5zM940 1354q0 25 31 47q47 34 72.5 57.5t84.5 87.5q5 5 14.5 16.5t14 16.5t13.5 13t16 11t18 6t23 3t21.5 -1.5t16.5 -6t11.5 -7.5t9.5 -12.5t7 -13t7 -16.5t7 -17q7 -17 16 -32.5t15 -25.5 t17 -23.5t15 -18.5t17 -19.5t16 -17.5q7 -8 17 -17t14 -14.5t4 -13.5q0 -12 -10 -21.5t-25 -9.5q-25 0 -75.5 26.5t-123.5 96.5q-17 -10 -56 -33t-59 -35t-47.5 -27t-44 -21.5t-24.5 -6.5q-14 0 -23.5 9.5t-9.5 19.5z" />
<glyph unicode="&#xdc;" horiz-adv-x="1613" d="M0 782q0 126 60 236t156 183t214.5 115t237.5 42q151 0 238 -68.5t87 -199.5q0 -89 -26 -201.5t-57 -201.5t-57 -195t-26 -183q0 -43 22.5 -68.5t61.5 -25.5q57 0 115.5 69t126.5 191q47 87 87.5 230t73.5 291.5t48 195.5q14 43 94 80t176 37q39 0 39 -37q0 -10 -26 -55 t-37 -80q-35 -106 -102 -428.5t-68 -438.5q0 -114 67 -114q24 0 39 9.5t39 33.5q20 20 35 20q13 0 21 -9.5t8 -19.5q0 -4 -0.5 -7.5t-1.5 -7t-2 -6.5t-3.5 -7t-3.5 -6t-4.5 -7t-5 -7t-6 -8.5t-6.5 -8.5q-42 -54 -108 -94.5t-152 -40.5q-98 0 -148.5 61t-50.5 166q0 58 4 78 q-28 -44 -53.5 -80t-68 -82.5t-84.5 -77.5t-99.5 -53t-116.5 -22q-109 0 -178.5 70.5t-69.5 176.5q0 67 23 158.5t55.5 184t65 187t55.5 194t23 179.5q0 113 -90 113q-76 0 -150 -60.5t-119 -149.5t-45 -171q0 -48 23.5 -73t58.5 -25q15 0 38 8t28 8q20 0 20 -22 q0 -24 -20 -58.5t-53 -68.5t-83.5 -58t-103.5 -24q-94 0 -154.5 63.5t-60.5 169.5zM973 1423q0 52 41 101t94 49q36 0 59 -27t23 -67q0 -55 -40.5 -103.5t-98.5 -48.5q-34 0 -56 27.5t-22 68.5zM1255 1423q0 52 41.5 101t94.5 49q36 0 59 -27t23 -67q0 -55 -41 -103.5 t-99 -48.5q-34 0 -56 27.5t-22 68.5z" />
<glyph unicode="&#xdd;" horiz-adv-x="1622" d="M0 782q0 126 60 236t156 183t214.5 115t237.5 42q149 0 231 -66t82 -188q0 -81 -21.5 -178t-48 -173t-48 -169t-21.5 -166q0 -43 24.5 -71t63.5 -28q57 0 124 64.5t111 155.5q27 56 57.5 150t50.5 168t48.5 186.5t38.5 148.5q11 43 94.5 80t181.5 37q18 0 28.5 -8.5 t10.5 -22.5q0 -10 -6.5 -23t-20 -38t-24.5 -52q-35 -85 -93 -311.5t-112 -491.5q-22 -107 -39.5 -184.5t-42.5 -172.5t-49 -163t-57.5 -143.5t-69.5 -127.5t-83.5 -102t-101 -79.5t-120.5 -47.5t-143 -18q-179 0 -288.5 92.5t-109.5 241.5q0 152 103 242t254 90 q49 0 75.5 -12t26.5 -27q0 -27 -31 -27q-41 0 -75.5 -35t-34.5 -94q0 -64 39 -102.5t110 -38.5q235 0 385 715q-64 -103 -176.5 -188t-224.5 -85q-105 0 -169.5 67.5t-64.5 176.5q0 73 28 177.5t61.5 195.5t61.5 212.5t28 225.5q0 44 -24 68t-66 24q-76 0 -150 -60.5 t-119 -149.5t-45 -171q0 -48 23.5 -73t58.5 -25q15 0 38 8t28 8q20 0 20 -22q0 -24 -20 -58.5t-53 -68.5t-83.5 -58t-103.5 -24q-94 0 -154.5 63.5t-60.5 169.5zM1073 1350q0 22 31 39q122 72 168 208q13 39 47 39q24 0 62 -47.5t38 -79.5q0 -25 -9 -41.5t-38 -40.5 q-56 -50 -134 -78t-130 -28q-16 0 -25.5 9t-9.5 20z" />
<glyph unicode="&#xde;" horiz-adv-x="862" d="M-47 35q0 94 34 257.5t75 310.5t75 301.5t35 232.5q0 49 -22 74.5t-58 25.5q-29 0 -29 25q0 35 71.5 72.5t154.5 37.5q80 0 127 -42t47 -118q0 -21 -15 -97t-16 -81q108 90 234 90q121 0 174 -63.5t53 -198.5q0 -68 -17.5 -141.5t-54.5 -144.5t-88 -127t-125 -90.5 t-159 -34.5q-114 0 -179 75q-57 -234 -57 -356q0 -25 -10 -34t-33 -9q-35 0 -100 -5t-78 -5q-20 0 -29.5 10t-9.5 35zM322 526q0 -38 19.5 -64t57.5 -26q51 0 93 47t65.5 116.5t36 139.5t12.5 127q0 107 -82 107q-37 0 -72 -32t-61 -89q-20 -44 -44.5 -152t-24.5 -174z" />
<glyph unicode="&#xdf;" horiz-adv-x="825" d="M-43 35q0 107 16 243t63.5 311.5t117.5 301.5q161 289 421 289q250 0 250 -219q0 -56 -24 -103.5t-60 -77t-77.5 -55.5t-77.5 -42t-60 -33.5t-24 -33.5q0 -25 25.5 -53t61.5 -57t72 -63t61.5 -84.5t25.5 -108.5q0 -112 -75 -186t-179 -74q-95 0 -160.5 58t-65.5 116 q0 14 8 22.5t21 8.5q8 0 20.5 -11t36 -22.5t58.5 -11.5q36 0 63 38t27 82q0 52 -13 92.5t-32 66.5t-37.5 49t-31.5 52.5t-13 65.5t24.5 72.5t59.5 68t69.5 64.5t59 75.5t24.5 88.5q0 47 -51 47q-41 0 -91 -51.5t-85 -131.5q-90 -207 -123.5 -386t-44.5 -400q0 -25 -10 -34 t-33 -9q-35 0 -100 -5t-78 -5q-20 0 -29.5 10t-9.5 35z" />
<glyph unicode="&#xe0;" d="M-31 229q0 79 24.5 150t73 130.5t130.5 94.5t188 35q48 0 83.5 -9.5t56 -19.5t32.5 -10q16 0 80.5 19.5t89.5 19.5q31 0 31 -31q0 -17 -18 -76.5t-36 -140.5t-18 -151q0 -38 20.5 -61t49.5 -23q24 0 39 9.5t39 33.5q20 20 34 20q13 0 21 -9.5t8 -19.5q0 -4 -0.5 -7.5 t-1.5 -7t-2 -6.5t-3.5 -7t-3.5 -6t-4.5 -7t-5 -7t-6 -8.5t-6.5 -8.5q-42 -54 -108 -94.5t-152 -40.5q-34 0 -63 11t-46 27t-28.5 32t-16.5 27l-4 11q-4 -4 -12.5 -11.5t-35 -26t-55 -33t-71 -26t-84.5 -11.5q-95 0 -157 62.5t-62 176.5zM190 883q0 32 38.5 79.5t62.5 47.5 q34 0 47 -39q46 -137 168 -209q31 -17 31 -39q0 -11 -9.5 -20t-25.5 -9q-51 0 -129 28.5t-135 78.5q-29 25 -38.5 41t-9.5 41zM236 221q0 -42 18 -69t51 -27q30 0 58.5 25.5t48.5 70.5q19 41 36 125t17 143q0 60 -62 60q-41 0 -75 -35t-53 -87.5t-29 -106t-10 -99.5z" />
<glyph unicode="&#xe1;" d="M-31 229q0 79 24.5 150t73 130.5t130.5 94.5t188 35q48 0 83.5 -9.5t56 -19.5t32.5 -10q16 0 80.5 19.5t89.5 19.5q31 0 31 -31q0 -17 -18 -76.5t-36 -140.5t-18 -151q0 -38 20.5 -61t49.5 -23q24 0 39 9.5t39 33.5q20 20 34 20q13 0 21 -9.5t8 -19.5q0 -4 -0.5 -7.5 t-1.5 -7t-2 -6.5t-3.5 -7t-3.5 -6t-4.5 -7t-5 -7t-6 -8.5t-6.5 -8.5q-42 -54 -108 -94.5t-152 -40.5q-34 0 -63 11t-46 27t-28.5 32t-16.5 27l-4 11q-4 -4 -12.5 -11.5t-35 -26t-55 -33t-71 -26t-84.5 -11.5q-95 0 -157 62.5t-62 176.5zM236 221q0 -42 18 -69t51 -27 q30 0 58.5 25.5t48.5 70.5q19 41 36 125t17 143q0 60 -62 60q-41 0 -75 -35t-53 -87.5t-29 -106t-10 -99.5zM301 719q0 22 31 39q122 72 168 209q13 39 47 39q24 0 62 -47.5t38 -79.5q0 -25 -9 -41.5t-38 -40.5q-57 -50 -135 -78.5t-129 -28.5q-16 0 -25.5 9t-9.5 20z" />
<glyph unicode="&#xe2;" d="M-31 229q0 79 24.5 150t73 130.5t130.5 94.5t188 35q48 0 83.5 -9.5t56 -19.5t32.5 -10q16 0 80.5 19.5t89.5 19.5q31 0 31 -31q0 -17 -18 -76.5t-36 -140.5t-18 -151q0 -38 20.5 -61t49.5 -23q24 0 39 9.5t39 33.5q20 20 34 20q13 0 21 -9.5t8 -19.5q0 -4 -0.5 -7.5 t-1.5 -7t-2 -6.5t-3.5 -7t-3.5 -6t-4.5 -7t-5 -7t-6 -8.5t-6.5 -8.5q-42 -54 -108 -94.5t-152 -40.5q-34 0 -63 11t-46 27t-28.5 32t-16.5 27l-4 11q-4 -4 -12.5 -11.5t-35 -26t-55 -33t-71 -26t-84.5 -11.5q-95 0 -157 62.5t-62 176.5zM184 717q0 25 31 47q48 34 74 58.5 t84 86.5q4 5 16.5 19.5t17.5 19.5t15.5 13t22 11t26.5 3q12 0 21.5 -1.5t16.5 -6t11.5 -7.5t9.5 -12.5t7 -13t7 -16.5t7 -17q7 -17 16 -32.5t15 -25.5t17 -23.5t15 -18.5t17 -19.5t16 -17.5q7 -8 17 -17t14 -14.5t4 -13.5q0 -12 -10 -21.5t-25 -9.5q-69 0 -198 123 q-14 -8 -55.5 -32.5t-60 -35.5t-47.5 -26.5t-45 -22t-24 -6.5q-14 0 -23.5 9.5t-9.5 19.5zM236 221q0 -42 18 -69t51 -27q30 0 58.5 25.5t48.5 70.5q19 41 36 125t17 143q0 60 -62 60q-41 0 -75 -35t-53 -87.5t-29 -106t-10 -99.5z" />
<glyph unicode="&#xe3;" d="M-31 229q0 79 24.5 150t73 130.5t130.5 94.5t188 35q48 0 83.5 -9.5t56 -19.5t32.5 -10q16 0 80.5 19.5t89.5 19.5q31 0 31 -31q0 -17 -18 -76.5t-36 -140.5t-18 -151q0 -38 20.5 -61t49.5 -23q24 0 39 9.5t39 33.5q20 20 34 20q13 0 21 -9.5t8 -19.5q0 -4 -0.5 -7.5 t-1.5 -7t-2 -6.5t-3.5 -7t-3.5 -6t-4.5 -7t-5 -7t-6 -8.5t-6.5 -8.5q-42 -54 -108 -94.5t-152 -40.5q-34 0 -63 11t-46 27t-28.5 32t-16.5 27l-4 11q-4 -4 -12.5 -11.5t-35 -26t-55 -33t-71 -26t-84.5 -11.5q-95 0 -157 62.5t-62 176.5zM176 743q0 16 21 45q30 43 77 78 t95 35q47 0 120 -37t123 -37q36 0 82 22.5t51 22.5q27 0 27 -20q0 -17 -12 -37q-43 -60 -84.5 -94.5t-95.5 -34.5q-47 0 -131 36t-130 36q-28 0 -70.5 -19.5t-47.5 -19.5q-10 0 -17.5 6.5t-7.5 17.5zM236 221q0 -42 18 -69t51 -27q30 0 58.5 25.5t48.5 70.5q19 41 36 125 t17 143q0 60 -62 60q-41 0 -75 -35t-53 -87.5t-29 -106t-10 -99.5z" />
<glyph unicode="&#xe4;" d="M-31 229q0 79 24.5 150t73 130.5t130.5 94.5t188 35q48 0 83.5 -9.5t56 -19.5t32.5 -10q16 0 80.5 19.5t89.5 19.5q31 0 31 -31q0 -17 -18 -76.5t-36 -140.5t-18 -151q0 -38 20.5 -61t49.5 -23q24 0 39 9.5t39 33.5q20 20 34 20q13 0 21 -9.5t8 -19.5q0 -4 -0.5 -7.5 t-1.5 -7t-2 -6.5t-3.5 -7t-3.5 -6t-4.5 -7t-5 -7t-6 -8.5t-6.5 -8.5q-42 -54 -108 -94.5t-152 -40.5q-34 0 -63 11t-46 27t-28.5 32t-16.5 27l-4 11q-4 -4 -12.5 -11.5t-35 -26t-55 -33t-71 -26t-84.5 -11.5q-95 0 -157 62.5t-62 176.5zM182 788q0 52 41 101t94 49 q36 0 59 -27t23 -67q0 -55 -40.5 -103.5t-98.5 -48.5q-34 0 -56 27.5t-22 68.5zM236 221q0 -42 18 -69t51 -27q30 0 58.5 25.5t48.5 70.5q19 41 36 125t17 143q0 60 -62 60q-41 0 -75 -35t-53 -87.5t-29 -106t-10 -99.5zM465 788q0 52 41 101t94 49q36 0 59 -27t23 -67 q0 -55 -40.5 -103.5t-98.5 -48.5q-34 0 -56 27.5t-22 68.5z" />
<glyph unicode="&#xe5;" d="M-31 229q0 79 24.5 150t73 130.5t130.5 94.5t188 35q48 0 83.5 -9.5t56 -19.5t32.5 -10q16 0 80.5 19.5t89.5 19.5q31 0 31 -31q0 -17 -18 -76.5t-36 -140.5t-18 -151q0 -38 20.5 -61t49.5 -23q24 0 39 9.5t39 33.5q20 20 34 20q13 0 21 -9.5t8 -19.5q0 -4 -0.5 -7.5 t-1.5 -7t-2 -6.5t-3.5 -7t-3.5 -6t-4.5 -7t-5 -7t-6 -8.5t-6.5 -8.5q-42 -54 -108 -94.5t-152 -40.5q-34 0 -63 11t-46 27t-28.5 32t-16.5 27l-4 11q-4 -4 -12.5 -11.5t-35 -26t-55 -33t-71 -26t-84.5 -11.5q-95 0 -157 62.5t-62 176.5zM229 883q0 85 59 143.5t144 58.5 t144 -58.5t59 -143.5t-59 -144t-144 -59t-144 59t-59 144zM236 221q0 -42 18 -69t51 -27q30 0 58.5 25.5t48.5 70.5q19 41 36 125t17 143q0 60 -62 60q-41 0 -75 -35t-53 -87.5t-29 -106t-10 -99.5zM346 883q0 -35 25.5 -60.5t60.5 -25.5t58.5 25t23.5 61q0 35 -23.5 58.5 t-58.5 23.5q-36 0 -61 -23.5t-25 -58.5z" />
<glyph unicode="&#xe6;" horiz-adv-x="1136" d="M-27 229q0 79 24.5 150t73 130.5t130.5 94.5t188 35q123 0 191 -86q59 47 117 68.5t145 21.5q101 0 151.5 -40t50.5 -109q0 -90 -96 -162t-246 -84q0 -55 46.5 -91t119.5 -36q121 0 230 104q29 25 43 25q11 0 17.5 -7.5t6.5 -17.5q0 -25 -41 -69q-33 -34 -61 -58.5 t-75.5 -53.5t-109.5 -44.5t-135 -15.5q-90 0 -149.5 40t-106.5 111q-64 -69 -133.5 -107t-160.5 -38q-95 0 -157.5 62.5t-62.5 176.5zM240 227q0 -42 18 -69t51 -27q57 0 107 96q29 57 55.5 130t26.5 114t-27 62.5t-63 21.5q-41 0 -75 -35t-53.5 -87.5t-29.5 -106.5t-10 -99 zM702 334q81 16 137 73.5t56 100.5q0 47 -49 47t-96.5 -67.5t-47.5 -153.5z" />
<glyph unicode="&#xe7;" horiz-adv-x="673" d="M-31 256q0 164 117.5 275.5t310.5 111.5q110 0 161.5 -39.5t51.5 -103.5q0 -61 -34 -96t-87 -35q-36 0 -58.5 18.5t-22.5 48.5q0 25 15.5 52t16.5 36q0 27 -37 27q-49 0 -98 -76t-49 -178q0 -86 47 -131t117 -45q96 0 215 104q29 25 43 25q11 0 17.5 -7.5t6.5 -17.5 q0 -23 -43 -69q-29 -29 -47 -45.5t-55.5 -44t-71 -43t-84 -27.5t-104.5 -12q-146 0 -237 73t-91 199zM80 -276q0 25 18.5 46t42.5 21q20 0 33.5 -12.5t31.5 -25.5t48 -13q57 0 98 32.5t41 59.5q-81 -22 -147 -22q-20 0 -32.5 12.5t-12.5 27.5q0 21 6 58.5t12 64.5l6 27h92 q0 -76 31 -76q15 0 45 3t41 3q47 0 47 -55q0 -35 -17.5 -74.5t-50.5 -76t-88 -60.5t-122 -24q-54 0 -88.5 23t-34.5 61z" />
<glyph unicode="&#xe8;" horiz-adv-x="675" d="M-31 266q0 75 29.5 143t84 120t137 83t181.5 31q101 0 152 -40t51 -109q0 -90 -96 -162t-246 -84q0 -56 41 -91.5t113 -35.5q17 0 33 2t32 7.5t28 9t27.5 13t23.5 13.5t23.5 16t19 14.5t19.5 15.5l15 13q29 25 43 25q11 0 18 -7.5t7 -17.5q0 -25 -41 -69q-34 -36 -60 -59 t-72 -52.5t-105.5 -45t-129.5 -15.5q-152 0 -240 70t-88 212zM164 879q0 32 38 79.5t62 47.5q34 0 47 -39q46 -137 168 -209q31 -17 31 -39q0 -11 -9.5 -20t-25.5 -9q-51 0 -129 28.5t-135 78.5q-29 24 -38 40.5t-9 41.5zM262 334q81 16 137 73.5t56 100.5q0 47 -49 47 t-96.5 -67.5t-47.5 -153.5z" />
<glyph unicode="&#xe9;" horiz-adv-x="675" d="M-31 266q0 75 29.5 143t84 120t137 83t181.5 31q101 0 152 -40t51 -109q0 -90 -96 -162t-246 -84q0 -56 41 -91.5t113 -35.5q17 0 33 2t32 7.5t28 9t27.5 13t23.5 13.5t23.5 16t19 14.5t19.5 15.5l15 13q29 25 43 25q11 0 18 -7.5t7 -17.5q0 -25 -41 -69q-34 -36 -60 -59 t-72 -52.5t-105.5 -45t-129.5 -15.5q-152 0 -240 70t-88 212zM256 719q0 22 31 39q122 72 168 209q13 39 47 39q24 0 62 -47.5t38 -79.5q0 -25 -9 -41.5t-38 -40.5q-57 -50 -135 -78.5t-129 -28.5q-16 0 -25.5 9t-9.5 20zM262 334q81 16 137 73.5t56 100.5q0 47 -49 47 t-96.5 -67.5t-47.5 -153.5z" />
<glyph unicode="&#xea;" horiz-adv-x="675" d="M-31 266q0 75 29.5 143t84 120t137 83t181.5 31q101 0 152 -40t51 -109q0 -90 -96 -162t-246 -84q0 -56 41 -91.5t113 -35.5q17 0 33 2t32 7.5t28 9t27.5 13t23.5 13.5t23.5 16t19 14.5t19.5 15.5l15 13q29 25 43 25q11 0 18 -7.5t7 -17.5q0 -25 -41 -69q-34 -36 -60 -59 t-72 -52.5t-105.5 -45t-129.5 -15.5q-152 0 -240 70t-88 212zM121 700q0 26 31 48q47 34 72.5 57.5t84.5 87.5q4 5 14 17t14 16t13.5 12t16.5 11t18 6t23 3q14 0 24.5 -3t17 -5.5t13 -13t8 -13t8.5 -19t8 -19.5q7 -17 16 -32.5t15.5 -25.5t16.5 -23t15.5 -19t17.5 -19 t16 -18q6 -7 13.5 -14t11 -11t6.5 -9.5t3 -11.5q0 -12 -9.5 -21t-24.5 -9q-25 0 -75.5 26.5t-123.5 96.5q-17 -10 -56 -33t-59 -35t-47.5 -27t-44 -21.5t-24.5 -6.5q-14 0 -23.5 9t-9.5 19zM262 334q81 16 137 73.5t56 100.5q0 47 -49 47t-96.5 -67.5t-47.5 -153.5z" />
<glyph unicode="&#xeb;" horiz-adv-x="675" d="M-31 266q0 75 29.5 143t84 120t137 83t181.5 31q101 0 152 -40t51 -109q0 -90 -96 -162t-246 -84q0 -56 41 -91.5t113 -35.5q17 0 33 2t32 7.5t28 9t27.5 13t23.5 13.5t23.5 16t19 14.5t19.5 15.5l15 13q29 25 43 25q11 0 18 -7.5t7 -17.5q0 -25 -41 -69q-34 -36 -60 -59 t-72 -52.5t-105.5 -45t-129.5 -15.5q-152 0 -240 70t-88 212zM150 784q0 52 41 101t94 49q36 0 59 -27t23 -67q0 -55 -41 -103.5t-99 -48.5q-34 0 -55.5 27.5t-21.5 68.5zM262 334q81 16 137 73.5t56 100.5q0 47 -49 47t-96.5 -67.5t-47.5 -153.5zM432 784q0 52 41 101 t94 49q36 0 59 -27t23 -67q0 -55 -40.5 -103.5t-98.5 -48.5q-34 0 -56 27.5t-22 68.5z" />
<glyph unicode="&#xec;" horiz-adv-x="434" d="M-31 160q0 73 34 190.5t34 147.5q0 18 -6 35t-6 30q0 33 67.5 54.5t159.5 21.5q70 0 70 -53q0 -34 -33 -153t-33 -193q0 -38 19.5 -61t48.5 -23q17 0 30.5 6t21.5 13t25 24q20 20 35 20q13 0 21 -9.5t8 -19.5q0 -4 -0.5 -7.5t-1.5 -7t-2 -6.5t-3.5 -7t-3.5 -6t-4.5 -7 t-5 -7t-6 -8.5t-6.5 -8.5q-42 -54 -108 -94.5t-152 -40.5q-97 0 -150 48t-53 122zM43 879q0 32 38 79.5t62 47.5q34 0 47 -39q46 -137 168 -209q31 -17 31 -39q0 -11 -9.5 -20t-25.5 -9q-51 0 -129 28.5t-135 78.5q-29 24 -38 40.5t-9 41.5z" />
<glyph unicode="&#xed;" horiz-adv-x="434" d="M-31 160q0 73 34 190.5t34 147.5q0 18 -6 35t-6 30q0 33 67.5 54.5t159.5 21.5q70 0 70 -53q0 -34 -33 -153t-33 -193q0 -38 19.5 -61t48.5 -23q17 0 30.5 6t21.5 13t25 24q20 20 35 20q13 0 21 -9.5t8 -19.5q0 -4 -0.5 -7.5t-1.5 -7t-2 -6.5t-3.5 -7t-3.5 -6t-4.5 -7 t-5 -7t-6 -8.5t-6.5 -8.5q-42 -54 -108 -94.5t-152 -40.5q-97 0 -150 48t-53 122zM43 719q0 22 31 39q122 72 168 209q13 39 47 39q24 0 62 -47.5t38 -79.5q0 -25 -9 -41.5t-38 -40.5q-57 -50 -135 -78.5t-129 -28.5q-16 0 -25.5 9t-9.5 20z" />
<glyph unicode="&#xee;" horiz-adv-x="434" d="M-31 160q0 73 34 190.5t34 147.5q0 18 -6 35t-6 30q0 33 67.5 54.5t159.5 21.5q70 0 70 -53q0 -34 -33 -153t-33 -193q0 -38 19.5 -61t48.5 -23q17 0 30.5 6t21.5 13t25 24q20 20 35 20q13 0 21 -9.5t8 -19.5q0 -4 -0.5 -7.5t-1.5 -7t-2 -6.5t-3.5 -7t-3.5 -6t-4.5 -7 t-5 -7t-6 -8.5t-6.5 -8.5q-42 -54 -108 -94.5t-152 -40.5q-97 0 -150 48t-53 122zM-31 717q0 25 31 47q48 34 74 58.5t84 86.5q4 5 16.5 19.5t17.5 19.5t15.5 13t22 11t26.5 3q12 0 21.5 -1.5t16.5 -6t11.5 -7.5t9.5 -12.5t7 -13t7 -16.5t7 -17q7 -17 16 -32.5t15 -25.5 t17 -23.5t15 -18.5t17 -19.5t16 -17.5q7 -8 17 -17t14 -14.5t4 -13.5q0 -12 -10 -21.5t-25 -9.5q-25 0 -75.5 26.5t-123.5 96.5q-17 -10 -56 -33t-59 -35t-47.5 -27t-44 -21.5t-24.5 -6.5q-14 0 -23.5 9.5t-9.5 19.5z" />
<glyph unicode="&#xef;" horiz-adv-x="434" d="M-33 829q0 52 41 101t94 49q36 0 59 -27t23 -67q0 -55 -40.5 -103.5t-98.5 -48.5q-34 0 -56 27.5t-22 68.5zM-31 160q0 73 34 190.5t34 147.5q0 18 -6 35t-6 30q0 33 67.5 54.5t159.5 21.5q70 0 70 -53q0 -34 -33 -153t-33 -193q0 -38 19.5 -61t48.5 -23q17 0 30.5 6 t21.5 13t25 24q20 20 35 20q13 0 21 -9.5t8 -19.5q0 -4 -0.5 -7.5t-1.5 -7t-2 -6.5t-3.5 -7t-3.5 -6t-4.5 -7t-5 -7t-6 -8.5t-6.5 -8.5q-42 -54 -108 -94.5t-152 -40.5q-97 0 -150 48t-53 122zM250 829q0 52 41 101t94 49q36 0 59 -27t23 -67q0 -55 -40.5 -103.5 t-98.5 -48.5q-34 0 -56 27.5t-22 68.5z" />
<glyph unicode="&#xf0;" horiz-adv-x="729" d="M-27 250q0 134 88 243t240 142q-33 23 -63 53q-106 -67 -117 -67q-21 0 -33 27t-12 52q0 27 14 35l74 47q-25 52 -25 97q0 42 34 95t73.5 86.5t58.5 33.5q25 0 25 -29q0 -84 28 -160q143 92 154 92q10 0 20 -16q17 -25 17 -63q0 -30 -17 -41l-116 -74q58 -88 157 -187 q38 -40 66.5 -97.5t28.5 -110.5q0 -179 -108 -302.5t-290 -123.5q-135 0 -216 72.5t-81 195.5zM248 283q0 -69 31 -110.5t83 -41.5q73 0 117.5 84.5t44.5 212.5q0 54 -27 85.5t-69 31.5q-72 0 -126 -79t-54 -183z" />
<glyph unicode="&#xf1;" horiz-adv-x="868" d="M-41 35q0 34 43 218.5t43 244.5q0 18 -7 35t-7 30q0 33 68.5 54.5t160.5 21.5q70 0 70 -53q0 -15 -4 -38t-8 -38l-5 -16q38 47 118.5 96t160.5 49q158 0 158 -129q0 -48 -29 -144t-29 -137q0 -73 66 -73q24 0 39 9.5t39 33.5q20 20 34 20q13 0 21 -9.5t8 -19.5 q0 -4 -0.5 -7.5t-1.5 -7t-2 -6.5t-3.5 -7t-3.5 -6t-4.5 -7t-5 -7t-6 -8.5t-6.5 -8.5q-42 -54 -108 -94.5t-152 -40.5t-137 44.5t-51 112.5t32.5 160.5t32.5 126.5q0 25 -13 41.5t-34 16.5q-29 0 -63 -31t-66 -94q-28 -57 -58 -162t-30 -162q0 -25 -10.5 -34t-34.5 -9 q-34 0 -97 -5t-75 -5q-22 0 -32.5 10t-10.5 35zM123 739q0 17 20 45q30 43 77 78t95 35q47 0 121 -37t123 -37q36 0 82 22.5t51 22.5q27 0 27 -20q0 -17 -12 -37q-42 -59 -84.5 -94t-96.5 -35q-47 0 -130.5 36t-129.5 36q-28 0 -71 -19.5t-48 -19.5q-10 0 -17 6.5t-7 17.5z " />
<glyph unicode="&#xf2;" horiz-adv-x="724" d="M-31 250q0 76 29.5 146.5t84 126.5t139 90t186.5 34q114 0 185 -66.5t71 -172.5q0 -179 -108 -302.5t-290 -123.5q-135 0 -216 72.5t-81 195.5zM188 879q0 32 38.5 79.5t62.5 47.5q34 0 47 -39q46 -137 168 -209q31 -17 31 -39q0 -11 -9.5 -20t-25.5 -9q-51 0 -129 28.5 t-135 78.5q-29 25 -38.5 41t-9.5 41zM244 283q0 -69 36.5 -110.5t96.5 -41.5q58 0 96.5 49t38.5 107q0 61 -41 78q-46 18 -64 37t-18 47q0 30 15.5 54t15.5 25q0 17 -19 17q-20 0 -57 -29q-100 -80 -100 -233z" />
<glyph unicode="&#xf3;" horiz-adv-x="724" d="M-31 250q0 76 29.5 146.5t84 126.5t139 90t186.5 34q114 0 185 -66.5t71 -172.5q0 -179 -108 -302.5t-290 -123.5q-135 0 -216 72.5t-81 195.5zM244 283q0 -69 36.5 -110.5t96.5 -41.5q58 0 96.5 49t38.5 107q0 61 -41 78q-46 18 -64 37t-18 47q0 30 15.5 54t15.5 25 q0 17 -19 17q-20 0 -57 -29q-100 -80 -100 -233zM244 715q0 13 6 21t24 18q122 72 168 209q13 38 47 38q24 0 62.5 -47.5t38.5 -79.5q0 -25 -9 -40.5t-38 -40.5q-57 -50 -135 -78.5t-129 -28.5q-16 0 -25.5 9t-9.5 20z" />
<glyph unicode="&#xf4;" horiz-adv-x="724" d="M-31 250q0 76 29.5 146.5t84 126.5t139 90t186.5 34q114 0 185 -66.5t71 -172.5q0 -179 -108 -302.5t-290 -123.5q-135 0 -216 72.5t-81 195.5zM150 705q0 26 30 47q48 34 74 58.5t84 86.5q4 5 16.5 19.5t17.5 19.5t15.5 13t22 11t26.5 3q12 0 21.5 -1.5t16.5 -6 t11.5 -7.5t9.5 -12.5t7 -13t7 -16.5t7 -17q7 -17 16 -32.5t15 -25.5t17 -23.5t15 -18.5t17 -19.5t16 -17.5q7 -8 17 -17t14 -14.5t4 -13.5q0 -12 -10 -21.5t-25 -9.5q-69 0 -198 123q-14 -8 -55.5 -32.5t-60 -35.5t-47.5 -26.5t-45 -22t-24 -6.5q-14 0 -23 9.5t-9 19.5z M244 283q0 -69 36.5 -110.5t96.5 -41.5q58 0 96.5 49t38.5 107q0 61 -41 78q-46 18 -64 37t-18 47q0 30 15.5 54t15.5 25q0 17 -19 17q-20 0 -57 -29q-100 -80 -100 -233z" />
<glyph unicode="&#xf5;" horiz-adv-x="724" d="M-31 250q0 76 29.5 146.5t84 126.5t139 90t186.5 34q114 0 185 -66.5t71 -172.5q0 -179 -108 -302.5t-290 -123.5q-135 0 -216 72.5t-81 195.5zM100 752q0 16 21 45q30 43 77 77.5t95 34.5q47 0 121 -36.5t123 -36.5q36 0 82 22.5t51 22.5q10 0 18 -5.5t8 -15.5 q0 -17 -12 -37q-43 -60 -84.5 -94.5t-95.5 -34.5q-47 0 -130.5 36t-129.5 36q-28 0 -71 -19.5t-48 -19.5q-10 0 -17.5 7t-7.5 18zM244 283q0 -69 36.5 -110.5t96.5 -41.5q58 0 96.5 49t38.5 107q0 61 -41 78q-46 18 -64 37t-18 47q0 30 15.5 54t15.5 25q0 17 -19 17 q-20 0 -57 -29q-100 -80 -100 -233z" />
<glyph unicode="&#xf6;" horiz-adv-x="724" d="M-31 250q0 76 29.5 146.5t84 126.5t139 90t186.5 34q114 0 185 -66.5t71 -172.5q0 -179 -108 -302.5t-290 -123.5q-135 0 -216 72.5t-81 195.5zM156 797q0 52 41 100.5t94 48.5q36 0 59 -27t23 -67q0 -55 -41 -103.5t-99 -48.5q-34 0 -55.5 27.5t-21.5 69.5zM244 283 q0 -69 36.5 -110.5t96.5 -41.5q58 0 96.5 49t38.5 107q0 61 -41 78q-46 18 -64 37t-18 47q0 30 15.5 54t15.5 25q0 17 -19 17q-20 0 -57 -29q-100 -80 -100 -233zM438 797q0 52 41 100.5t94 48.5q36 0 59 -27t23 -67q0 -55 -40.5 -103.5t-98.5 -48.5q-34 0 -56 28t-22 69z " />
<glyph unicode="&#xf7;" horiz-adv-x="931" d="M43 530q0 26 21.5 70.5t44.5 44.5h747q22 0 29.5 -6t7.5 -23q0 -25 -24 -71.5t-48 -46.5h-747q-31 0 -31 32zM342 283q0 52 41 100.5t94 48.5q36 0 59 -27t23 -67q0 -55 -40.5 -103.5t-98.5 -48.5q-34 0 -56 28t-22 69zM387 803q0 52 41 100.5t94 48.5q36 0 59 -27 t23 -67q0 -55 -40.5 -103t-98.5 -48q-34 0 -56 27.5t-22 68.5z" />
<glyph unicode="&#xf8;" horiz-adv-x="724" d="M-31 250q0 76 29.5 146.5t84 126.5t139 90t186.5 34q3 0 9.5 -1t10.5 -1q10 28 21 49q5 12 18 21.5t27 9.5q55 0 96 -12t41 -27q0 -26 -19 -74l-16 -37q68 -65 68 -167q0 -160 -86 -277t-236 -143l-6 -13q-8 -28 -45 -28h-66q-22 0 -34.5 1.5t-23.5 9t-11 22.5q0 10 2 16 q-89 25 -139 91.5t-50 162.5zM244 283q0 -40 8 -64q115 277 133 322q-16 -7 -41 -25q-100 -80 -100 -233zM408 135q45 12 74.5 57t29.5 95q0 33 -14 55z" />
<glyph unicode="&#xf9;" horiz-adv-x="880" d="M-31 147q0 70 35 195.5t35 155.5q0 18 -7 35t-7 30q0 33 68.5 54.5t160.5 21.5q70 0 70 -53q0 -40 -38 -169.5t-38 -211.5q0 -23 13.5 -37t35.5 -14q34 0 68.5 23.5t54.5 60.5q33 59 52.5 130.5t19.5 129.5q0 18 -7.5 35t-7.5 30q0 33 69 54.5t161 21.5q69 0 69 -53 q0 -36 -35.5 -162t-35.5 -184q0 -39 18.5 -61.5t46.5 -22.5q24 0 39 9.5t39 33.5q20 20 35 20q12 0 20 -9.5t8 -19.5q0 -22 -32 -65q-106 -135 -258 -135q-45 0 -80.5 13t-53.5 31t-29.5 36.5t-14.5 31.5l-3 13q-5 -5 -14.5 -13.5t-41 -30t-65.5 -38t-85 -30t-103 -13.5 q-74 0 -118 45.5t-44 111.5zM172 874q0 32 38 79.5t62 47.5q34 0 47 -38q46 -137 168 -209q31 -17 31 -39q0 -11 -9.5 -20t-25.5 -9q-51 0 -129 28.5t-135 78.5q-29 25 -38 40.5t-9 40.5z" />
<glyph unicode="&#xfa;" horiz-adv-x="880" d="M-31 147q0 70 35 195.5t35 155.5q0 18 -7 35t-7 30q0 33 68.5 54.5t160.5 21.5q70 0 70 -53q0 -40 -38 -169.5t-38 -211.5q0 -23 13.5 -37t35.5 -14q34 0 68.5 23.5t54.5 60.5q33 59 52.5 130.5t19.5 129.5q0 18 -7.5 35t-7.5 30q0 33 69 54.5t161 21.5q69 0 69 -53 q0 -36 -35.5 -162t-35.5 -184q0 -39 18.5 -61.5t46.5 -22.5q24 0 39 9.5t39 33.5q20 20 35 20q12 0 20 -9.5t8 -19.5q0 -22 -32 -65q-106 -135 -258 -135q-45 0 -80.5 13t-53.5 31t-29.5 36.5t-14.5 31.5l-3 13q-5 -5 -14.5 -13.5t-41 -30t-65.5 -38t-85 -30t-103 -13.5 q-74 0 -118 45.5t-44 111.5zM344 711q0 22 31 39q122 72 168 208q13 39 47 39q24 0 62 -47.5t38 -79.5q0 -25 -9 -41.5t-38 -40.5q-56 -50 -134 -78t-130 -28q-16 0 -25.5 9t-9.5 20z" />
<glyph unicode="&#xfb;" horiz-adv-x="880" d="M-31 147q0 70 35 195.5t35 155.5q0 18 -7 35t-7 30q0 33 68.5 54.5t160.5 21.5q70 0 70 -53q0 -40 -38 -169.5t-38 -211.5q0 -23 13.5 -37t35.5 -14q34 0 68.5 23.5t54.5 60.5q33 59 52.5 130.5t19.5 129.5q0 18 -7.5 35t-7.5 30q0 33 69 54.5t161 21.5q69 0 69 -53 q0 -36 -35.5 -162t-35.5 -184q0 -39 18.5 -61.5t46.5 -22.5q24 0 39 9.5t39 33.5q20 20 35 20q12 0 20 -9.5t8 -19.5q0 -22 -32 -65q-106 -135 -258 -135q-45 0 -80.5 13t-53.5 31t-29.5 36.5t-14.5 31.5l-3 13q-5 -5 -14.5 -13.5t-41 -30t-65.5 -38t-85 -30t-103 -13.5 q-74 0 -118 45.5t-44 111.5zM154 721q0 26 30 47q48 34 74 58.5t84 86.5q4 5 16.5 19.5t17.5 19.5t15.5 13t22 11t26.5 3q12 0 21.5 -1.5t16.5 -6t11.5 -7.5t9.5 -12.5t7 -13t7 -16.5t7 -17q7 -17 16 -32.5t15 -25.5t17 -23.5t15 -18.5t17 -19.5t16 -17.5q7 -8 17 -17 t14 -14.5t4 -13.5q0 -12 -10 -21.5t-25 -9.5q-69 0 -198 123q-14 -8 -55.5 -32.5t-60 -35.5t-47.5 -26.5t-45 -22t-24 -6.5q-14 0 -23 9.5t-9 19.5z" />
<glyph unicode="&#xfc;" horiz-adv-x="880" d="M-31 147q0 70 35 195.5t35 155.5q0 18 -7 35t-7 30q0 33 68.5 54.5t160.5 21.5q70 0 70 -53q0 -40 -38 -169.5t-38 -211.5q0 -23 13.5 -37t35.5 -14q34 0 68.5 23.5t54.5 60.5q33 59 52.5 130.5t19.5 129.5q0 18 -7.5 35t-7.5 30q0 33 69 54.5t161 21.5q69 0 69 -53 q0 -36 -35.5 -162t-35.5 -184q0 -39 18.5 -61.5t46.5 -22.5q24 0 39 9.5t39 33.5q20 20 35 20q12 0 20 -9.5t8 -19.5q0 -22 -32 -65q-106 -135 -258 -135q-45 0 -80.5 13t-53.5 31t-29.5 36.5t-14.5 31.5l-3 13q-5 -5 -14.5 -13.5t-41 -30t-65.5 -38t-85 -30t-103 -13.5 q-74 0 -118 45.5t-44 111.5zM186 797q0 52 41.5 100.5t94.5 48.5q36 0 58.5 -27t22.5 -67q0 -55 -40.5 -103.5t-98.5 -48.5q-34 0 -56 28t-22 69zM469 797q0 52 41 100.5t94 48.5q36 0 59 -27t23 -67q0 -55 -40.5 -103.5t-98.5 -48.5q-34 0 -56 28t-22 69z" />
<glyph unicode="&#xfd;" horiz-adv-x="837" d="M-51 -360q0 57 21 104.5t51 73.5t58 39.5t48 13.5q23 0 23 -18q0 -7 -9.5 -28.5t-9.5 -47.5q0 -44 32 -70t85 -26q36 0 67 17.5t53.5 50.5t40.5 71.5t31.5 91.5t22.5 98.5t18 102.5q-128 -123 -311 -123q-76 0 -126 44.5t-50 112.5q0 76 33.5 199t33.5 152q0 18 -7 35 t-7 30q0 33 68 54.5t159 21.5q70 0 70 -53q0 -40 -36 -170.5t-36 -198.5q0 -27 15 -45t39 -18q33 0 68.5 25t60.5 61q28 42 43.5 118t15.5 140q0 18 -7 35t-7 30q0 33 68 54.5t159 21.5q70 0 70 -53q0 -17 -5 -40.5t-13.5 -56t-25.5 -117t-36 -196.5q-43 -253 -75 -362 q-91 -309 -281 -381q-61 -23 -134 -23q-117 0 -197.5 63t-80.5 167zM371 735q0 13 6 21t24 18q122 72 168 209q13 39 47 39q24 0 62.5 -47.5t38.5 -79.5q0 -25 -9 -41.5t-38 -40.5q-56 -50 -134 -78t-130 -28q-16 0 -25.5 8.5t-9.5 19.5z" />
<glyph unicode="&#xfe;" horiz-adv-x="827" d="M-102 -332q0 95 36.5 285.5t80 370t80 361.5t36.5 263q0 49 -22.5 75t-57.5 26q-28 0 -28 24q0 35 71 73t154 38q80 0 127 -42t47 -118q0 -35 -13 -99t-27 -116.5t-40.5 -147t-36.5 -133.5q11 11 28 24.5t50 35.5t77 36.5t87 14.5q97 0 154 -60.5t57 -164.5 q0 -54 -16 -112t-49 -114t-78 -100t-109 -71t-137 -27q-57 0 -99 19t-59 36q-37 -142 -37 -285q0 -49 29 -82.5t65 -33.5q29 0 29 -25q0 -30 -69 -70.5t-160 -40.5q-80 0 -125 44t-45 116zM256 154q0 -28 17 -44t49 -16q41 0 74 37t51.5 92t28 110.5t9.5 100.5q0 84 -65 84 q-29 0 -57 -25t-48 -71q-21 -44 -40 -126t-19 -142z" />
<glyph unicode="&#xff;" horiz-adv-x="837" d="M-51 -360q0 57 21 104.5t51 73.5t58 39.5t48 13.5q23 0 23 -18q0 -7 -9.5 -28.5t-9.5 -47.5q0 -44 32 -70t85 -26q36 0 67 17.5t53.5 50.5t40.5 71.5t31.5 91.5t22.5 98.5t18 102.5q-128 -123 -311 -123q-76 0 -126 44.5t-50 112.5q0 76 33.5 199t33.5 152q0 18 -7 35 t-7 30q0 33 68 54.5t159 21.5q70 0 70 -53q0 -40 -36 -170.5t-36 -198.5q0 -27 15 -45t39 -18q33 0 68.5 25t60.5 61q28 42 43.5 118t15.5 140q0 18 -7 35t-7 30q0 33 68 54.5t159 21.5q70 0 70 -53q0 -17 -5 -40.5t-13.5 -56t-25.5 -117t-36 -196.5q-43 -253 -75 -362 q-91 -309 -281 -381q-61 -23 -134 -23q-117 0 -197.5 63t-80.5 167zM213 793q0 52 41 100.5t94 48.5q36 0 59 -27t23 -67q0 -55 -40.5 -103.5t-98.5 -48.5q-34 0 -56 28t-22 69zM496 793q0 52 41 100.5t94 48.5q36 0 59 -27t23 -67q0 -55 -41 -103.5t-99 -48.5 q-34 0 -55.5 27.5t-21.5 69.5z" />
<glyph unicode="&#x152;" horiz-adv-x="1712" d="M0 477q0 129 26.5 244t72 202.5t108 160.5t133 123t147.5 84.5t151.5 50.5t145.5 16q91 0 139 -17.5t48 -42.5q0 -20 -27 -20q-4 0 -36 2t-62 2q-100 0 -188 -52t-155.5 -148.5t-107 -245t-39.5 -330.5q0 -176 52 -264t137 -88q73 0 140.5 57.5t115 148t76 205 t28.5 226.5q0 123 -40.5 174t-116.5 51q-61 0 -125 -35q-29 -16 -39 -16q-19 0 -19 22q0 27 32.5 75t84.5 83q93 65 209 65q105 0 176 -65q47 94 151.5 153.5t223.5 59.5q136 0 209 -56t73 -161q0 -78 -38.5 -128t-102.5 -50q-41 0 -70.5 25t-29.5 65q0 27 13.5 47.5 t29.5 31t29.5 27.5t13.5 37q0 51 -70 51q-82 0 -135 -77.5t-53 -188.5q0 -40 10.5 -70t21.5 -41l11 -10q38 17 110 17q49 0 79 -26t30 -67q0 -51 -37 -81.5t-96 -30.5q-76 0 -166 43q-35 -26 -74 -106t-39 -167q0 -106 66 -166.5t166 -60.5q49 0 94.5 22t70.5 45t54 58 q36 41 49 41q11 0 19 -6.5t8 -16.5q0 -13 -17 -55q-17 -40 -36.5 -77t-57.5 -85.5t-82.5 -83.5t-111 -59.5t-142.5 -24.5q-120 0 -215 55t-145 150q-188 -201 -412 -201q-101 0 -185.5 31.5t-148.5 92.5t-99.5 157.5t-35.5 218.5z" />
<glyph unicode="&#x153;" horiz-adv-x="1243" d="M-27 250q0 76 29.5 146.5t84 126.5t139 90t186.5 34q74 0 132 -31t89 -84q121 111 315 111q101 0 152 -40t51 -109q0 -90 -96 -162t-246 -84q0 -55 46.5 -91t119.5 -36q120 0 229 104q29 25 43 25q11 0 18 -7.5t7 -17.5q0 -25 -41 -69q-33 -34 -61 -58.5t-75.5 -53.5 t-109.5 -44.5t-135 -15.5q-210 0 -291 120q-109 -122 -289 -122q-135 0 -216 72.5t-81 195.5zM248 283q0 -69 36.5 -110.5t96.5 -41.5q57 0 96 46t39 104q0 67 -41 84q-46 18 -64 37t-18 47q0 30 15.5 54t15.5 25q0 17 -18 17q-21 0 -58 -29q-100 -80 -100 -233zM809 334 q80 16 136 73.5t56 100.5q0 47 -49 47t-96 -67t-47 -154z" />
<glyph unicode="&#x178;" horiz-adv-x="1622" d="M0 782q0 126 60 236t156 183t214.5 115t237.5 42q149 0 231 -66t82 -188q0 -81 -21.5 -178t-48 -173t-48 -169t-21.5 -166q0 -43 24.5 -71t63.5 -28q57 0 124 64.5t111 155.5q27 56 57.5 150t50.5 168t48.5 186.5t38.5 148.5q11 43 94.5 80t181.5 37q18 0 28.5 -8.5 t10.5 -22.5q0 -10 -6.5 -23t-20 -38t-24.5 -52q-35 -85 -93 -311.5t-112 -491.5q-22 -107 -39.5 -184.5t-42.5 -172.5t-49 -163t-57.5 -143.5t-69.5 -127.5t-83.5 -102t-101 -79.5t-120.5 -47.5t-143 -18q-179 0 -288.5 92.5t-109.5 241.5q0 152 103 242t254 90 q49 0 75.5 -12t26.5 -27q0 -27 -31 -27q-41 0 -75.5 -35t-34.5 -94q0 -64 39 -102.5t110 -38.5q235 0 385 715q-64 -103 -176.5 -188t-224.5 -85q-105 0 -169.5 67.5t-64.5 176.5q0 73 28 177.5t61.5 195.5t61.5 212.5t28 225.5q0 44 -24 68t-66 24q-76 0 -150 -60.5 t-119 -149.5t-45 -171q0 -48 23.5 -73t58.5 -25q15 0 38 8t28 8q20 0 20 -22q0 -24 -20 -58.5t-53 -68.5t-83.5 -58t-103.5 -24q-94 0 -154.5 63.5t-60.5 169.5zM946 1411q0 52 41 101t94 49q36 0 59 -27.5t23 -67.5q0 -55 -40.5 -103t-98.5 -48q-34 0 -56 27.5t-22 68.5z M1229 1411q0 52 41 101t94 49q36 0 59 -27.5t23 -67.5q0 -55 -40.5 -103t-98.5 -48q-34 0 -56 27.5t-22 68.5z" />
<glyph unicode="&#x2c6;" horiz-adv-x="573" d="M39 717q0 25 31 47q47 34 72.5 57.5t84.5 87.5q5 5 14.5 16.5t14 16.5t13.5 13t16 11t18 6t23 3t21.5 -1.5t16.5 -6t11.5 -7.5t9.5 -12.5t7 -13t7 -16.5t7 -17q7 -17 16 -32.5t15 -25.5t17 -23.5t15 -18.5t17 -19.5t16 -17.5q7 -8 17 -17t14 -14.5t4 -13.5 q0 -12 -10 -21.5t-25 -9.5q-25 0 -75.5 26.5t-123.5 96.5q-17 -10 -56 -33t-59 -35t-47.5 -27t-44 -21.5t-24.5 -6.5q-14 0 -23.5 9.5t-9.5 19.5z" />
<glyph unicode="&#x2dc;" horiz-adv-x="638" d="M20 760q0 16 21 45q30 43 77 78t95 35q47 0 121 -37t123 -37q36 0 82 22.5t51 22.5q10 0 18 -5.5t8 -15.5q0 -17 -12 -37q-43 -60 -84.5 -94.5t-95.5 -34.5q-47 0 -130.5 36t-129.5 36q-28 0 -71 -19.5t-48 -19.5q-10 0 -17.5 7t-7.5 18z" />
<glyph unicode="&#x2000;" horiz-adv-x="886" />
<glyph unicode="&#x2001;" horiz-adv-x="1772" />
<glyph unicode="&#x2002;" horiz-adv-x="886" />
<glyph unicode="&#x2003;" horiz-adv-x="1772" />
<glyph unicode="&#x2004;" horiz-adv-x="590" />
<glyph unicode="&#x2005;" horiz-adv-x="443" />
<glyph unicode="&#x2006;" horiz-adv-x="295" />
<glyph unicode="&#x2007;" horiz-adv-x="295" />
<glyph unicode="&#x2008;" horiz-adv-x="221" />
<glyph unicode="&#x2009;" horiz-adv-x="354" />
<glyph unicode="&#x200a;" horiz-adv-x="98" />
<glyph unicode="&#x2010;" horiz-adv-x="708" d="M61 305q0 26 21.5 70.5t44.5 44.5h467q22 0 29.5 -6t7.5 -23q0 -25 -24 -72t-48 -47h-467q-31 0 -31 33z" />
<glyph unicode="&#x2011;" horiz-adv-x="708" d="M61 305q0 26 21.5 70.5t44.5 44.5h467q22 0 29.5 -6t7.5 -23q0 -25 -24 -72t-48 -47h-467q-31 0 -31 33z" />
<glyph unicode="&#x2012;" horiz-adv-x="708" d="M61 305q0 26 21.5 70.5t44.5 44.5h467q22 0 29.5 -6t7.5 -23q0 -25 -24 -72t-48 -47h-467q-31 0 -31 33z" />
<glyph unicode="&#x2013;" horiz-adv-x="856" d="M51 305q0 26 21.5 70.5t44.5 44.5h651q22 0 29.5 -6t7.5 -23q0 -25 -24 -72t-48 -47h-651q-31 0 -31 33z" />
<glyph unicode="&#x2014;" horiz-adv-x="1163" d="M39 305q0 26 21 70.5t44 44.5h990q22 0 29 -6t7 -23q0 -26 -23.5 -72.5t-47.5 -46.5h-989q-31 0 -31 33z" />
<glyph unicode="&#x2018;" horiz-adv-x="278" d="M6 922q0 51 30 109t70 99.5t77.5 69t54.5 27.5q12 0 20 -8t8 -19q0 -15 -16 -40t-32.5 -62t-16.5 -80q0 -19 11 -47.5t11 -50.5q0 -46 -29 -76.5t-79 -30.5q-109 0 -109 109z" />
<glyph unicode="&#x2019;" horiz-adv-x="313" d="M6 840q0 14 16.5 38.5t33 62t16.5 81.5q0 18 -11.5 46t-11.5 50q0 47 29.5 78t79.5 31q108 0 108 -111q0 -51 -30 -108.5t-69.5 -98.5t-76.5 -68.5t-53 -27.5q-14 0 -22.5 7.5t-8.5 19.5z" />
<glyph unicode="&#x201a;" horiz-adv-x="303" d="M47 -193q0 10 12.5 67t12.5 116q0 18 -11.5 46t-11.5 50q0 47 29.5 78t79.5 31q108 0 108 -111q0 -52 -38.5 -126.5t-83.5 -125.5t-66 -51q-14 0 -22.5 7t-8.5 19z" />
<glyph unicode="&#x201c;" horiz-adv-x="565" d="M6 922q0 51 30 109t70 99.5t77.5 69t54.5 27.5q12 0 20 -8t8 -19q0 -15 -16 -40t-32.5 -62t-16.5 -80q0 -19 11 -47.5t11 -50.5q0 -46 -29 -76.5t-79 -30.5q-109 0 -109 109zM309 922q0 51 30 109t69 99.5t76.5 69t54.5 27.5q13 0 20.5 -8t7.5 -19q0 -15 -16.5 -40 t-32.5 -62t-16 -80q0 -19 11 -47.5t11 -50.5q0 -46 -28.5 -76.5t-77.5 -30.5q-109 0 -109 109z" />
<glyph unicode="&#x201d;" horiz-adv-x="612" d="M6 840q0 14 16.5 38.5t33 62t16.5 81.5q0 18 -11.5 46t-11.5 50q0 47 29.5 78t79.5 31q108 0 108 -111q0 -51 -30 -108.5t-69.5 -98.5t-76.5 -68.5t-53 -27.5q-14 0 -22.5 7.5t-8.5 19.5zM309 840q0 14 16.5 38.5t33 62t16.5 81.5q0 18 -11.5 46t-11.5 50q0 47 28.5 78 t78.5 31q108 0 108 -111q0 -51 -29.5 -108.5t-69 -98.5t-76.5 -68.5t-54 -27.5q-29 0 -29 27z" />
<glyph unicode="&#x201e;" horiz-adv-x="616" d="M6 -166q0 14 16.5 38.5t33 62t16.5 81.5q0 18 -11.5 46.5t-11.5 50.5q0 47 29.5 77.5t79.5 30.5q108 0 108 -110q0 -51 -30 -108.5t-69.5 -99t-76.5 -69t-53 -27.5q-14 0 -22.5 7.5t-8.5 19.5zM309 -166q0 14 16.5 38.5t33 62t16.5 81.5q0 18 -11.5 46.5t-11.5 50.5 q0 47 28.5 77.5t78.5 30.5q108 0 108 -110q0 -51 -29.5 -108.5t-69 -99t-76.5 -69t-54 -27.5q-29 0 -29 27z" />
<glyph unicode="&#x2022;" horiz-adv-x="292" d="M41 557q0 52 41 101t94 49q36 0 59 -27.5t23 -67.5q0 -55 -40.5 -103t-98.5 -48q-34 0 -56 27.5t-22 68.5z" />
<glyph unicode="&#x2026;" horiz-adv-x="921" d="M20 84q0 52 41.5 100.5t94.5 48.5q36 0 59 -27t23 -67q0 -55 -41 -103t-99 -48q-34 0 -56 27.5t-22 68.5zM328 84q0 52 41 100.5t94 48.5q36 0 59 -27t23 -67q0 -55 -40.5 -103t-98.5 -48q-34 0 -56 27.5t-22 68.5zM635 84q0 52 41 100.5t94 48.5q36 0 59 -27t23 -67 q0 -55 -40.5 -103t-98.5 -48q-34 0 -56 27.5t-22 68.5z" />
<glyph unicode="&#x202f;" horiz-adv-x="354" />
<glyph unicode="&#x2039;" horiz-adv-x="673" d="M33 575q0 50 16.5 93t63.5 92q22 23 137.5 129.5t212.5 202.5q28 32 59 32q27 0 58.5 -30.5t31.5 -61.5q0 -18 -7 -28.5t-25 -24.5q-92 -90 -163.5 -157.5t-103 -96t-43.5 -41.5q-59 -63 -59 -109q0 -9 2.5 -17t9 -17t10.5 -14t15 -16t14 -15q114 -124 320 -318 q19 -14 24.5 -23t5.5 -30q0 -29 -27.5 -59.5t-58.5 -30.5q-18 0 -53 22q-161 143 -367 355q-32 29 -52.5 73t-20.5 90z" />
<glyph unicode="&#x203a;" horiz-adv-x="645" d="M33 125q0 21 5.5 30t24.5 23q206 194 320 318q3 4 14 15t15 16t10.5 14t9 17t2.5 17q0 50 -59 109q-2 2 -17 17.5t-36.5 37.5t-54.5 54.5t-85.5 81t-115.5 104.5q-13 10 -18 15t-10 15t-5 23q0 31 31.5 61.5t58.5 30.5q8 0 15 -1.5t14 -6t10.5 -7t10.5 -9t9 -8.5 q71 -68 152.5 -144t127.5 -119.5t70 -68.5q47 -49 63.5 -92t16.5 -93q0 -90 -73 -163q-45 -44 -131.5 -129t-141 -137.5t-94.5 -88.5q-35 -22 -53 -22q-31 0 -58.5 30.5t-27.5 59.5z" />
<glyph unicode="&#x205f;" horiz-adv-x="443" />
<glyph unicode="&#x20ac;" horiz-adv-x="1071" d="M29 459q0 26 21 70t44 44h56q4 47 20 127h-70q-30 0 -30 33q0 26 21 70.5t44 44.5h76q86 230 253 370t355 140q124 0 197.5 -66t73.5 -172q0 -86 -39 -142t-99 -56q-43 0 -71.5 25t-28.5 67q0 32 14 56t30 36.5t30 30t14 37.5q0 27 -17.5 43t-50.5 16q-68 0 -157 -80 q-48 -45 -94 -126.5t-78 -178.5h196q22 0 29.5 -6t7.5 -23q0 -26 -23.5 -72.5t-47.5 -46.5h-201q-15 -79 -17 -127h211q22 0 29.5 -5.5t7.5 -22.5q0 -26 -23.5 -72.5t-47.5 -46.5h-172q18 -106 76 -158.5t141 -52.5q49 0 92 21t66.5 44.5t50.5 59.5q30 41 49 41q22 0 22 -29 q0 -22 -14 -63t-49 -96.5t-83 -104t-126.5 -82t-169.5 -33.5q-168 0 -280 119.5t-122 333.5h-86q-30 0 -30 33z" />
<glyph unicode="&#x2122;" horiz-adv-x="1224" d="M23 1188v69q0 17 20 17h463q18 0 18 -17v-69q0 -9 -5 -15t-13 -6h-174v-538q0 -19 -17 -19h-84q-16 0 -16 19v538h-172q-20 0 -20 21zM514 629l41 628q0 7 6 12t14 5h105q4 0 10 -3t6 -5q144 -416 156 -459q11 43 160 459q0 2 7 5t11 3h103q18 0 18 -17l41 -628 q0 -7 -6.5 -13t-14.5 -6h-77q-8 0 -14.5 5t-6.5 12q-6 141 -11 238.5t-7.5 137.5t-3.5 62q-23 -75 -78 -220t-78 -218q-1 -6 -7 -10.5t-11 -4.5h-62q-6 0 -11 4.5t-5 10.5q-45 134 -78 227.5t-42.5 118.5t-14.5 41.5t-11 40.5l-26 -428q0 -7 -5.5 -12t-11.5 -5h-78 q-7 0 -12.5 5.5t-5.5 13.5z" />
<glyph unicode="&#x25fc;" horiz-adv-x="634" d="M0 0v635h635v-635h-635z" />
</font>
</defs>
</svg>
